<svg width="500" height="500" viewBox="0 0 500 500" fill="none" xmlns="http://www.w3.org/2000/svg">
<path d="M45 484.19H45.26H46.06H49.18L61.27 484L106.37 483.85L106.05 484.18C106.05 471.61 106.05 457.34 105.97 441.67V441.27H106.37L176.83 441.19L176.34 441.67C176.34 429.11 176.34 415.9 176.34 402.31V401.8H255.69L255.17 402.32C255.17 386.89 255.17 371.8 255.17 357.17V356.66H255.68L335.08 356.72L334.63 357.17C334.68 328.89 334.71 303.95 334.75 283.36V283H335.08L384.96 283.16L398.27 283.24L401.7 283.29H402.57C402.67 283.277 402.77 283.277 402.87 283.29H402.57H401.7H398.27L384.96 283.38L335.08 283.54L335.42 283.2C335.42 303.79 335.49 328.73 335.54 357.01V357.46H335.08L255.68 357.52L256.19 357.01C256.19 371.64 256.19 386.73 256.19 402.16V402.68H242.46H176.83L177.33 402.18C177.33 415.77 177.33 428.98 177.33 441.54V442.02H176.85L106.39 441.95L106.8 441.54C106.8 457.21 106.74 471.48 106.72 484.05V484.38H106.39L61.29 484.23L49.2 484.14H46.08H45.28C45.1906 484.174 45.0956 484.191 45 484.19Z" fill="#263238"/>
<path d="M64.67 434.26C65.8402 434.813 66.8864 435.596 67.7457 436.564C68.605 437.531 69.2596 438.663 69.67 439.89C70.4737 442.345 70.6996 444.953 70.3301 447.51C69.7701 452.46 66.96 457.45 63.94 461.4C59.77 457.77 58.82 451.4 58.53 448.18C58.08 443.05 60.39 433.5 64.71 434.26" fill="#161A1D"/>
<path d="M68.74 469.56C68.4567 468.147 68.5516 466.685 69.0152 465.32C69.4788 463.956 70.2946 462.738 71.38 461.79C72.4814 460.864 73.7558 460.166 75.1291 459.737C76.5025 459.308 77.9474 459.156 79.38 459.29C80.0449 459.282 80.7036 459.419 81.3099 459.692C81.9162 459.965 82.4555 460.367 82.89 460.87C83.2138 461.402 83.3901 462.01 83.4006 462.632C83.4112 463.254 83.2556 463.868 82.95 464.41C82.3178 465.484 81.4187 466.376 80.34 467C76.73 469.26 72.82 470.79 68.74 469.56Z" fill="#161A1D"/>
<path d="M63.4001 484.73C63.4162 484.392 63.4665 484.057 63.5501 483.73C63.6801 483.02 63.8501 482.1 64.0501 480.99C64.5146 477.93 65.4702 474.965 66.8801 472.21C68.3506 469.461 70.5248 467.153 73.1801 465.52C73.989 465.043 74.8517 464.663 75.7501 464.39C75.9923 464.31 76.2395 464.247 76.4901 464.2C76.5761 464.185 76.6642 464.185 76.7501 464.2C75.554 464.611 74.4016 465.141 73.3101 465.78C70.746 467.447 68.6444 469.734 67.2001 472.43C65.8146 475.127 64.8373 478.016 64.3001 481C64.0501 482.15 63.8401 483.08 63.6801 483.72C63.6187 484.065 63.525 484.403 63.4001 484.73Z" fill="#263238"/>
<path d="M63.55 441.69C63.5889 441.833 63.6091 441.981 63.61 442.13C63.61 442.46 63.61 442.89 63.68 443.41C63.74 444.52 63.81 446.12 63.87 448.1C64 452.1 64.1 457.54 64.07 463.59C64.04 469.64 63.9 475.12 63.74 479.08C63.65 481.08 63.58 482.66 63.51 483.77C63.51 484.29 63.44 484.71 63.42 485.04C63.4176 485.191 63.4009 485.342 63.37 485.49C63.3487 485.341 63.3487 485.189 63.37 485.04C63.37 484.71 63.37 484.29 63.37 483.76C63.37 482.61 63.43 481.02 63.48 479.07C63.58 475.07 63.69 469.64 63.71 463.59C63.73 457.54 63.71 452.07 63.61 448.11C63.61 446.16 63.61 444.57 63.54 443.41C63.54 442.89 63.54 442.47 63.54 442.14C63.5345 441.99 63.5378 441.84 63.55 441.69Z" fill="#263238"/>
<path d="M61.5301 472.57C61.0269 469.575 59.8174 466.743 58.0019 464.308C56.1864 461.874 53.8171 459.907 51.0901 458.57C49.7001 457.91 47.8801 457.47 46.7401 458.51C45.6001 459.55 45.8501 461.4 46.4101 462.84C47.6286 465.824 49.7034 468.38 52.3729 470.187C55.0424 471.993 58.187 472.968 61.4101 472.99" fill="#161A1D"/>
<path d="M51.76 463.25C52.0678 463.353 52.3657 463.484 52.65 463.64C52.9929 463.798 53.3268 463.975 53.65 464.17C54.02 464.41 54.47 464.63 54.92 464.97C55.4223 465.308 55.9063 465.671 56.37 466.06C56.9115 466.502 57.4289 466.973 57.92 467.47C59.041 468.614 60.0274 469.882 60.86 471.25C61.6734 472.63 62.3244 474.1 62.8 475.63C63.0025 476.286 63.1661 476.954 63.29 477.63C63.4065 478.228 63.49 478.833 63.54 479.44C63.61 479.99 63.59 480.5 63.61 480.94C63.6375 481.316 63.6375 481.694 63.61 482.07C63.6079 482.406 63.5744 482.741 63.51 483.07C63.42 483.07 63.57 481.69 63.32 479.5C63.2602 478.905 63.1633 478.313 63.03 477.73C62.8955 477.055 62.7253 476.387 62.52 475.73C62.0321 474.232 61.3851 472.79 60.59 471.43C59.7664 470.09 58.8045 468.84 57.72 467.7C57.21 467.19 56.72 466.7 56.22 466.29C55.72 465.88 55.22 465.51 54.81 465.18C53 463.9 51.73 463.32 51.76 463.25Z" fill="#263238"/>
<path d="M293.58 80.8799L302.32 76.6999C304.737 69.298 309.836 63.0679 316.613 59.2343C323.391 55.4007 331.357 54.2408 338.946 55.9826C346.536 57.7244 353.199 62.242 357.626 68.6474C362.054 75.0527 363.925 82.8825 362.873 90.5976C361.821 98.3128 357.92 105.355 351.939 110.341C345.958 115.326 338.328 117.894 330.55 117.54C322.771 117.185 315.406 113.934 309.903 108.426C304.4 102.917 301.157 95.5488 300.81 87.7699L293.58 80.8799Z" fill="white"/>
<path d="M293.58 80.88L294.02 81.33L295.37 82.65C296.6 83.85 298.37 85.6 300.73 87.86C300.75 87.879 300.777 87.8895 300.805 87.8895C300.833 87.8895 300.86 87.879 300.88 87.86H300.67C300.87 93.045 302.362 98.0979 305.01 102.56C305.838 103.964 306.774 105.301 307.81 106.56C308.935 107.88 310.159 109.114 311.47 110.25C314.346 112.747 317.658 114.693 321.24 115.99C325.351 117.471 329.725 118.08 334.084 117.779C338.443 117.478 342.692 116.272 346.56 114.24C350.834 111.986 354.522 108.763 357.33 104.83C360.307 100.735 362.225 95.9664 362.91 90.95L363.16 89.03L363.22 87.11V86.11L363.16 85.11L363.05 83.21C362.98 82.58 362.86 81.96 362.77 81.33C362.689 80.7071 362.572 80.0894 362.42 79.48C362.144 78.2618 361.79 77.0626 361.36 75.89C359.051 69.4392 354.691 63.9235 348.947 60.1883C343.203 56.453 336.393 54.7042 329.56 55.21C325.748 55.4948 322.02 56.4743 318.56 58.1C316.985 58.8412 315.471 59.7038 314.03 60.68C312.718 61.63 311.463 62.655 310.27 63.75C306.514 67.3342 303.719 71.8043 302.14 76.75V76.69L295.63 79.88L293.99 80.7L293.45 80.97C293.45 80.97 293.66 80.89 294.04 80.71L295.74 79.92L302.23 76.92C302.244 76.9157 302.257 76.908 302.267 76.8975C302.278 76.887 302.286 76.8742 302.29 76.86C303.909 71.9866 306.713 67.5917 310.45 64.07C311.638 62.9991 312.887 61.9974 314.19 61.07C315.618 60.1163 317.116 59.2706 318.67 58.54C324.331 55.9218 330.648 55.0672 336.801 56.0873C342.954 57.1075 348.657 59.9551 353.17 64.26C356.632 67.5328 359.309 71.5463 361 76C361.405 77.1551 361.739 78.3339 362 79.53C362.148 80.133 362.261 80.744 362.34 81.36C362.43 81.97 362.55 82.58 362.61 83.2L362.72 85.08L362.78 86.02V86.96L362.72 88.85L362.48 90.74C361.803 95.6775 359.921 100.372 357 104.41C354.235 108.278 350.61 111.451 346.41 113.68C342.601 115.688 338.417 116.883 334.122 117.189C329.827 117.495 325.515 116.907 321.46 115.46C317.923 114.189 314.649 112.281 311.8 109.83C310.502 108.712 309.288 107.498 308.17 106.2C307.137 104.977 306.204 103.673 305.38 102.3C302.737 97.889 301.219 92.8957 300.96 87.76C300.96 87.746 300.957 87.7321 300.952 87.7193C300.946 87.7064 300.938 87.6949 300.927 87.6855C300.917 87.6761 300.905 87.6689 300.891 87.6645C300.878 87.6601 300.864 87.6586 300.85 87.66C300.827 87.6612 300.805 87.6696 300.787 87.6839C300.769 87.6983 300.756 87.7179 300.75 87.74L300.93 87.69L295.53 82.62L294.12 81.31L293.58 80.88Z" fill="#263238"/>
<path d="M332.04 106.31C342.207 106.31 350.45 98.0676 350.45 87.9C350.45 77.7324 342.207 69.49 332.04 69.49C321.872 69.49 313.63 77.7324 313.63 87.9C313.63 98.0676 321.872 106.31 332.04 106.31Z" fill="#161A1D"/>
<path opacity="0.3" d="M332.04 106.31C342.207 106.31 350.45 98.0676 350.45 87.9C350.45 77.7324 342.207 69.49 332.04 69.49C321.872 69.49 313.63 77.7324 313.63 87.9C313.63 98.0676 321.872 106.31 332.04 106.31Z" fill="black"/>
<path d="M339.007 102.889C348.418 99.0412 352.928 88.2923 349.08 78.8811C345.231 69.47 334.482 64.9604 325.071 68.8087C315.66 72.657 311.15 83.4059 314.999 92.817C318.847 102.228 329.596 106.738 339.007 102.889Z" fill="#161A1D"/>
<path d="M340.766 94.5902C345.581 89.775 345.581 81.9681 340.766 77.153C335.95 72.3378 328.143 72.3378 323.328 77.1529C318.513 81.9681 318.513 89.775 323.328 94.5902C328.143 99.4054 335.95 99.4054 340.766 94.5902Z" fill="white"/>
<path d="M332.04 91.9001C335.37 91.9001 338.07 89.2004 338.07 85.8701C338.07 82.5398 335.37 79.8401 332.04 79.8401C328.71 79.8401 326.01 82.5398 326.01 85.8701C326.01 89.2004 328.71 91.9001 332.04 91.9001Z" fill="#161A1D"/>
<path d="M344.87 72.3899L344.37 68.4599L348.37 64.1799L348.66 68.4199L344.87 72.3899Z" fill="#455A64"/>
<path d="M353.45 69.2599L349.4 68.9299L345.33 72.8399L349.4 73.2799L353.45 69.2599Z" fill="#455A64"/>
<path opacity="0.3" d="M332.85 85.7801L346.93 75.0001C346.398 74.2375 345.806 73.5185 345.16 72.8501L332.85 84.8201V85.7801Z" fill="black"/>
<path d="M348.82 67.83L343.09 73.56L334 82.65L331.91 84.74C331.827 84.8794 331.794 85.0424 331.814 85.2031C331.834 85.3639 331.907 85.5133 332.022 85.6279C332.136 85.7425 332.286 85.8157 332.447 85.836C332.607 85.8563 332.77 85.8225 332.91 85.74L338.68 80L347.77 70.91L349.86 68.82C350.52 68.16 349.49 67.14 348.86 67.82L348.82 67.83Z" fill="#263238"/>
<path d="M243.14 95.2899L247 52.9999C247.6 42.4299 254.26 33.9999 264.8 34.8799L265.8 35.0199C270.503 35.699 274.779 38.1229 277.776 41.81C280.774 45.497 282.275 50.1771 281.98 54.9199C281.4 64.0799 280.65 74.1799 279.89 79.0299C278.24 88.9999 268 89.1199 268 89.1199C268 89.1199 267.31 95.2499 267 98.2199L265.73 105.12L260.57 102.51L243.14 95.2899Z" fill="#FFBF9D"/>
<path d="M268 88.77C263.357 88.0848 259.009 86.0823 255.47 83C255.47 83 257.53 91 267.69 91.55L268 88.77Z" fill="#FF9A6C"/>
<path d="M277.47 63.5701C277.418 63.9446 277.221 64.2838 276.922 64.5155C276.623 64.7471 276.246 64.8528 275.87 64.8101C275.686 64.7988 275.506 64.7507 275.341 64.6687C275.176 64.5866 275.028 64.4723 274.908 64.3325C274.788 64.1926 274.697 64.0301 274.641 63.8545C274.584 63.6789 274.564 63.4938 274.58 63.3101C274.63 62.9357 274.824 62.5955 275.121 62.3621C275.418 62.1286 275.794 62.0203 276.17 62.0601C276.355 62.0714 276.537 62.1197 276.703 62.2023C276.869 62.2848 277.018 62.3998 277.139 62.5406C277.26 62.6814 277.352 62.845 277.409 63.0218C277.465 63.1986 277.486 63.3851 277.47 63.5701Z" fill="#263238"/>
<path d="M279.16 58.66C278.95 58.82 277.98 57.86 276.44 57.66C274.9 57.46 273.65 58.05 273.51 57.83C273.37 57.61 273.67 57.43 274.21 57.14C274.945 56.77 275.777 56.6406 276.59 56.77C277.388 56.8683 278.134 57.2186 278.72 57.77C279.15 58.22 279.26 58.58 279.16 58.66Z" fill="#263238"/>
<path d="M264 61.75C263.976 61.9379 263.916 62.1193 263.822 62.2838C263.729 62.4484 263.604 62.5928 263.454 62.7089C263.305 62.825 263.134 62.9105 262.951 62.9604C262.768 63.0104 262.578 63.0239 262.39 63C262.205 62.9901 262.025 62.9429 261.859 62.8613C261.693 62.7798 261.545 62.6655 261.425 62.5253C261.304 62.3852 261.213 62.2221 261.158 62.0459C261.102 61.8697 261.082 61.684 261.1 61.5C261.147 61.1245 261.341 60.7829 261.638 60.5489C261.936 60.315 262.314 60.2076 262.69 60.25C262.875 60.2601 263.057 60.3072 263.224 60.3886C263.39 60.4699 263.539 60.5839 263.661 60.7237C263.783 60.8635 263.876 61.0263 263.934 61.2026C263.993 61.3789 264.015 61.565 264 61.75Z" fill="#263238"/>
<path d="M264 56.83C263.79 56.99 262.82 56.03 261.28 55.83C259.74 55.63 258.49 56.22 258.35 56.01C258.21 55.8 258.51 55.6 259.06 55.31C259.793 54.9471 260.621 54.818 261.43 54.94C262.229 55.0447 262.977 55.394 263.57 55.94C264 56.4 264.07 56.76 264 56.83Z" fill="#263238"/>
<path d="M267.8 69.4899C268.65 69.3617 269.513 69.3315 270.37 69.3999C270.77 69.3999 271.16 69.3999 271.26 69.1399C271.35 68.7365 271.318 68.3156 271.17 67.9299C270.93 66.9299 270.69 65.8699 270.43 64.7599C269.43 60.2499 268.77 56.5699 268.95 56.5299C269.13 56.4899 270.09 60.1099 271.09 64.6199C271.33 65.7299 271.56 66.7899 271.77 67.7999C271.96 68.3094 271.96 68.8704 271.77 69.3799C271.692 69.5099 271.586 69.6207 271.46 69.7038C271.334 69.787 271.19 69.8403 271.04 69.8599C270.814 69.885 270.586 69.885 270.36 69.8599C269.494 69.8517 268.633 69.7273 267.8 69.4899Z" fill="#263238"/>
<path d="M265.17 52.0701C264.9 52.4401 263.46 51.8101 261.64 51.5001C259.82 51.1901 258.26 51.2601 258.14 50.8301C258.08 50.6301 258.44 50.3201 259.14 50.0901C260.045 49.8182 261.001 49.7668 261.93 49.9401C262.853 50.0938 263.729 50.4563 264.49 51.0001C265.06 51.4801 265.29 51.9001 265.17 52.0701Z" fill="#263238"/>
<path d="M279.88 54.13C279.52 54.44 278.3 53.91 276.79 53.7C275.28 53.49 273.96 53.57 273.72 53.16C273.61 52.97 273.86 52.64 274.46 52.38C275.285 52.0653 276.18 51.9789 277.05 52.13C277.92 52.2393 278.743 52.5852 279.43 53.13C279.92 53.59 280.05 54 279.88 54.13Z" fill="#263238"/>
<path d="M246.73 60.16C246.57 60.06 240.12 57.16 239.35 64.02C238.58 70.88 245.67 70.27 245.7 70.08C245.73 69.89 246.73 60.16 246.73 60.16Z" fill="#FFBF9D"/>
<path d="M243.89 67.2299C243.89 67.2299 243.76 67.2999 243.54 67.3699C243.241 67.4594 242.919 67.4307 242.64 67.2899C242.225 66.9564 241.906 66.5185 241.716 66.0212C241.527 65.5239 241.473 64.985 241.56 64.4599C241.611 63.8678 241.792 63.2942 242.09 62.7799C242.178 62.5729 242.315 62.3902 242.489 62.2475C242.664 62.1047 242.87 62.0061 243.09 61.9599C243.232 61.9363 243.378 61.9647 243.501 62.04C243.624 62.1153 243.716 62.2324 243.76 62.3699C243.83 62.5699 243.76 62.6999 243.76 62.7199C243.76 62.7399 243.92 62.6199 243.9 62.3299C243.876 62.1554 243.795 61.9937 243.67 61.8699C243.586 61.7869 243.486 61.722 243.376 61.679C243.266 61.636 243.148 61.6159 243.03 61.6199C242.739 61.6417 242.459 61.7389 242.217 61.902C241.975 62.0651 241.779 62.2884 241.65 62.5499C241.293 63.1135 241.076 63.755 241.02 64.4199C240.91 65.8199 241.48 67.1999 242.44 67.5999C242.619 67.6741 242.813 67.7073 243.007 67.6969C243.2 67.6865 243.389 67.6328 243.56 67.5399C243.85 67.3899 243.91 67.2399 243.89 67.2299Z" fill="#FF9A6C"/>
<path d="M296.81 46.86C296.719 46.4576 296.484 46.1022 296.15 45.86C295.383 45.4064 294.511 45.1616 293.62 45.15C291.426 44.8584 289.326 44.0719 287.48 42.85C288.2 42.5908 288.875 42.2195 289.48 41.75C290.121 41.2806 290.621 40.6447 290.926 39.9114C291.231 39.1781 291.329 38.3752 291.21 37.59C291.191 37.4434 291.14 37.3029 291.061 37.1784C290.981 37.0539 290.875 36.9486 290.75 36.87C290.31 36.68 289.87 37.07 289.52 37.39C289.06 37.8837 288.476 38.2451 287.829 38.4368C287.182 38.6285 286.495 38.6434 285.84 38.48C284.927 38.3136 284.062 37.9446 283.31 37.4C283.281 37.3652 283.254 37.3284 283.23 37.29L282.3 36.11C280 33.2 278 31.16 275.78 30C271.943 28.0843 267.656 27.2511 263.38 27.59C259.76 28.12 256.28 30.59 255.38 34.15C253.6 32.26 250.65 31.94 248.14 32.63H248.08C245.3 33.28 243.46 35.93 242.36 38.57C242.3 38.71 242.25 38.86 242.19 39C241.125 40.3422 239.753 41.4088 238.19 42.11C237.92 42.23 237.6 42.38 237.54 42.67C237.53 42.8179 237.559 42.9659 237.624 43.0992C237.689 43.2326 237.787 43.3466 237.91 43.43C238.517 43.9417 239.231 44.3108 240 44.51C239.691 45.1369 239.322 45.733 238.9 46.29C238.54 46.76 238.12 47.29 238.32 47.89C238.416 48.101 238.576 48.2768 238.777 48.3933C238.977 48.5097 239.209 48.561 239.44 48.54C239.901 48.4936 240.348 48.3505 240.75 48.12L239.61 50.12C240.562 50.3958 241.566 50.4437 242.54 50.26C242.82 52.87 242.71 57.64 243.17 59.44C244.99 59.68 245.46 59.53 246.35 59.94C247.5 60.47 246.8 62.54 248.43 62.11C249.25 61.9 250.81 59.04 251.17 58.26C253.537 53.088 254.764 47.4678 254.77 41.78C256.016 40.7353 257.453 39.9408 259 39.44L258.87 39.53C261.8 38.88 265.1 38.28 267.63 39.9C269.63 41.17 270.57 43.46 271.92 45.36C273.052 47.0786 274.536 48.5376 276.274 49.6408C278.011 50.744 279.963 51.4662 282 51.76C282.05 54.85 281.6 59.84 281.42 62.7L284.5 57.29C284.73 56.98 284.93 56.66 285.13 56.35L285.19 56.25C285.494 55.7212 285.828 55.2104 286.19 54.72C286.496 54.9761 286.879 55.1227 287.277 55.1365C287.676 55.1503 288.068 55.0305 288.391 54.7961C288.714 54.5617 288.949 54.2262 289.059 53.8428C289.17 53.4594 289.149 53.0502 289 52.68C288.798 52.3103 288.542 51.9731 288.24 51.68C288.551 52.0536 288.952 52.3417 289.405 52.5167C289.858 52.6917 290.349 52.7479 290.83 52.68C291.309 52.59 291.745 52.3458 292.072 51.9847C292.399 51.6235 292.598 51.1653 292.64 50.68C292.639 50.3499 292.552 50.0257 292.387 49.7397C292.222 49.4537 291.985 49.2159 291.7 49.05C292.941 49.291 294.225 49.1587 295.39 48.67C296.17 48.37 297 47.79 296.81 46.86Z" fill="#263238"/>
<path d="M258.43 35.64C258.038 35.8836 257.664 36.1543 257.31 36.45C256.404 37.3261 255.739 38.4215 255.38 39.63C255.112 40.4526 254.927 41.3002 254.83 42.16C254.72 43.09 254.68 44.1 254.63 45.16C254.6 46.2719 254.5 47.3808 254.33 48.48C254.233 49.0629 254.092 49.6378 253.91 50.2C253.745 50.8039 253.432 51.3572 253 51.81C252.802 51.9863 252.561 52.1084 252.302 52.1645C252.043 52.2205 251.773 52.2087 251.52 52.13C251.037 51.9771 250.616 51.6719 250.32 51.26C249.86 50.4428 249.625 49.5178 249.64 48.58L249.85 48.63C249.46 49.3644 248.964 50.0381 248.38 50.63C247.82 51.1745 247.071 51.4794 246.29 51.48C245.936 51.4703 245.591 51.3668 245.29 51.18C245.006 50.9893 244.787 50.7174 244.66 50.4C244.545 50.1079 244.507 49.791 244.55 49.48C244.595 49.1876 244.744 48.9214 244.97 48.73L245.06 48.84C244.383 49.4604 243.582 49.9307 242.71 50.22C242.41 50.32 242.17 50.37 242.01 50.41C241.927 50.4231 241.843 50.4231 241.76 50.41L242 50.34C242.15 50.29 242.39 50.23 242.68 50.12C243.527 49.8082 244.303 49.3286 244.96 48.71L245.06 48.81C244.87 49.0049 244.746 49.2535 244.703 49.522C244.66 49.7905 244.701 50.0657 244.82 50.31C244.943 50.5881 245.14 50.8269 245.39 51C245.672 51.1653 245.993 51.2549 246.32 51.26C247.046 51.2471 247.74 50.9574 248.26 50.45C248.823 49.8743 249.302 49.2211 249.68 48.51L249.86 48.21V48.56C249.852 49.4552 250.076 50.3372 250.51 51.12C250.775 51.4914 251.154 51.7655 251.59 51.9C251.804 51.9696 252.032 51.9813 252.251 51.9338C252.471 51.8864 252.674 51.7816 252.84 51.63C253.243 51.2058 253.532 50.6863 253.68 50.12C253.862 49.5714 254.003 49.0098 254.1 48.44C254.274 47.3478 254.378 46.2455 254.41 45.14C254.47 44.14 254.52 43.08 254.63 42.14C254.741 41.2659 254.939 40.405 255.22 39.57C255.595 38.3497 256.285 37.2496 257.22 36.38C257.578 36.0661 257.987 35.8158 258.43 35.64Z" fill="#455A64"/>
<path d="M288.55 49L288.46 49.06L288.19 49.22C288.043 49.3069 287.889 49.3805 287.73 49.44C287.54 49.52 287.33 49.62 287.08 49.7C285.655 50.1555 284.14 50.2516 282.67 49.98C280.481 49.5813 278.454 48.5606 276.83 47.04C274.88 45.1608 273.332 42.9052 272.28 40.41C271.69 39.1 271.28 37.78 270.7 36.55C270.23 35.3511 269.59 34.2262 268.8 33.21C268.083 32.2998 267.152 31.5817 266.09 31.12C265.607 30.9186 265.093 30.8002 264.57 30.77C264.09 30.7399 263.609 30.7769 263.14 30.88C262.327 31.0499 261.56 31.3908 260.89 31.88C260.386 32.2592 259.944 32.7146 259.58 33.23C259.287 33.6846 259.055 34.1754 258.89 34.69C258.89 34.69 258.89 34.69 258.89 34.58L258.97 34.28C259.095 33.894 259.266 33.5246 259.48 33.18C259.835 32.6434 260.278 32.1702 260.79 31.78C261.464 31.2527 262.246 30.8806 263.08 30.69C263.566 30.5847 264.063 30.541 264.56 30.56C265.101 30.5949 265.634 30.713 266.14 30.91C267.264 31.3843 268.249 32.1382 269 33.1C269.829 34.1184 270.503 35.2541 271 36.47C271.53 37.72 272 39.03 272.58 40.33C273.601 42.7927 275.103 45.0264 277 46.9C278.589 48.4027 280.573 49.4223 282.72 49.84C284.166 50.1223 285.658 50.0502 287.07 49.63C287.574 49.4466 288.068 49.2363 288.55 49Z" fill="#455A64"/>
<path d="M290 44.6901C289.874 44.7732 289.74 44.8435 289.6 44.9001C289.236 45.0708 288.858 45.2113 288.47 45.3201C287.894 45.4902 287.306 45.614 286.71 45.6901C285.244 45.8645 283.758 45.7421 282.34 45.3301C281.762 45.1664 281.2 44.9523 280.66 44.6901C280.294 44.5151 279.943 44.3111 279.61 44.0801C279.478 44.0067 279.357 43.9159 279.25 43.8101C279.25 43.8101 279.8 44.1301 280.73 44.5301C281.268 44.7683 281.823 44.9656 282.39 45.1201C283.089 45.3011 283.801 45.4248 284.52 45.4901C285.242 45.5505 285.968 45.5505 286.69 45.4901C287.277 45.4308 287.859 45.3272 288.43 45.1801C289.38 44.9101 290 44.6501 290 44.6901Z" fill="#455A64"/>
<path d="M267.17 74.2001C267.11 73.9401 265.42 74.4101 263.82 73.2901C262.22 72.1701 261.91 70.2901 261.67 70.3601C261.43 70.4301 261.45 70.8601 261.67 71.6201C261.928 72.6178 262.53 73.4924 263.37 74.0901C264.177 74.6595 265.173 74.8958 266.15 74.7501C266.84 74.6201 267.21 74.3101 267.17 74.2001Z" fill="#263238"/>
<path d="M220.34 89.14C218.295 88.3412 216.057 88.1764 213.916 88.6668C211.776 89.1573 209.833 90.2803 208.34 91.89C203.03 97.58 183.47 135.61 180.89 142.79C176.66 154.59 185.79 164.68 193.39 165.09C200.99 165.5 230.73 155.94 230.73 155.94L224.25 138.88L205.25 140.39L220 110.83L220.34 89.14Z" fill="#455A64"/>
<path d="M252.86 122.62C252.86 122.62 260.18 159.72 263.66 162.72C267.14 165.72 294.66 178.05 294.66 178.05L302.91 164.64L281 151.31L280.9 123.14C280.67 115.2 277.49 110.22 273.85 107.56L252.86 122.62Z" fill="#455A64"/>
<path d="M268.34 97.33L263.34 103.74L260.3 95.8L242.81 84.45L237.71 89.34C237.71 89.34 218.1 89.72 216.83 90.68C214.01 92.81 208.83 124.57 208.83 124.57L198.89 184.47C198.05 186.87 206.39 188.55 211.22 189.73L255.72 196.1C255.72 196.1 261.02 197.36 262.52 194.1C263.73 191.47 266.26 163.81 268.82 148.7C269.5 144.7 270.11 130.42 270.11 130.42L275.06 108.33L269.7 104.33L268.34 97.33Z" fill="#455A64"/>
<path d="M212.16 126.74C211.967 127.465 211.685 128.164 211.32 128.82C210.73 130.08 209.89 131.82 208.94 133.68C207.99 135.54 207.09 137.26 206.43 138.48C206.117 139.163 205.721 139.805 205.25 140.39C205.458 139.668 205.743 138.971 206.1 138.31C206.68 137.05 207.52 135.31 208.47 133.45C209.42 131.59 210.32 129.88 210.98 128.66C211.302 127.979 211.698 127.335 212.16 126.74Z" fill="#263238"/>
<path d="M259.3 96C258.761 96.7073 258.173 97.3757 257.54 98C256.4 99.21 254.77 100.9 252.85 102.86L252.7 103.01L252.52 102.88C251.28 101.94 249.94 100.88 248.52 99.73C245.45 97.17 242.82 94.73 240.97 92.83C240.05 91.91 239.32 91.14 238.83 90.59C238.551 90.3305 238.309 90.0345 238.11 89.71C238.422 89.9257 238.71 90.1737 238.97 90.45L241.23 92.57C243.13 94.35 245.8 96.78 248.86 99.33C250.22 100.47 251.55 101.54 252.77 102.5H252.45C254.4 100.56 256.08 98.92 257.28 97.77C257.904 97.1264 258.58 96.5345 259.3 96Z" fill="#263238"/>
<path d="M272.84 117.14C272.808 119.867 272.604 122.589 272.23 125.29C272.036 128.012 271.661 130.718 271.11 133.39C271.142 130.66 271.345 127.934 271.72 125.23C271.914 122.511 272.288 119.809 272.84 117.14Z" fill="#263238"/>
<path d="M292.85 160.14C292.85 160.14 298.31 150.95 299.46 151.32C300.61 151.69 301.2 154.06 300.51 155.82C299.82 157.58 297.89 164.64 297.89 164.64L292.85 160.14Z" fill="#FFBF9D"/>
<path d="M294.67 320.08L289.25 344.53C289.25 344.53 312.58 356.46 312.02 361.07L263.93 354.07L270.82 315.62L294.67 320.08Z" fill="#455A64"/>
<g opacity="0.6">
<path d="M274.85 339.74C274.362 339.799 273.913 340.035 273.588 340.404C273.264 340.773 273.086 341.249 273.09 341.74C273.131 342.236 273.362 342.697 273.734 343.027C274.107 343.357 274.593 343.53 275.09 343.51C275.604 343.448 276.078 343.199 276.419 342.809C276.761 342.42 276.946 341.918 276.94 341.4C276.845 340.899 276.562 340.454 276.149 340.155C275.737 339.855 275.225 339.725 274.72 339.79" fill="white"/>
</g>
<g opacity="0.6">
<path d="M263.93 354.06L264.63 350.18L310.83 358.58C311.282 358.907 311.645 359.341 311.886 359.844C312.128 360.347 312.239 360.903 312.21 361.46L263.93 354.06Z" fill="white"/>
</g>
<path d="M290.07 344.43C290.02 344.66 288.83 344.55 287.55 345.09C286.27 345.63 285.47 346.5 285.27 346.37C285.07 346.24 285.67 344.95 287.27 344.37C288.87 343.79 290.16 344.23 290.07 344.43Z" fill="#263238"/>
<path d="M294.7 347.43C294.7 347.66 293.63 347.87 292.65 348.71C291.67 349.55 291.26 350.56 291.03 350.5C290.8 350.44 290.89 349.1 292.12 348.08C293.35 347.06 294.73 347.2 294.7 347.43Z" fill="#263238"/>
<path d="M296.44 354C296.22 354 296.11 352.79 296.94 351.62C297.77 350.45 298.94 350.14 299.03 350.36C299.12 350.58 298.29 351.13 297.62 352.1C296.95 353.07 296.68 354 296.44 354Z" fill="#263238"/>
<path d="M290.69 338.72C290.55 338.92 289.54 338.4 288.2 338.24C286.86 338.08 285.76 338.32 285.68 338.09C285.6 337.86 286.73 337.22 288.31 337.42C289.89 337.62 290.84 338.56 290.69 338.72Z" fill="#263238"/>
<g opacity="0.3">
<path d="M293.59 324.92L292.63 329.28L269.19 324.74L269.88 320.78L293.59 324.92Z" fill="black"/>
</g>
<path d="M218.2 364.31L215.1 389.16C215.1 389.16 239.45 398.85 239.32 403.5L190.78 401L194 362.1L218.2 364.31Z" fill="#455A64"/>
<g opacity="0.6">
<path d="M200.32 385.74C199.844 385.843 199.421 386.116 199.132 386.508C198.843 386.9 198.707 387.385 198.75 387.87C198.831 388.351 199.095 388.783 199.486 389.075C199.877 389.368 200.365 389.498 200.85 389.44C201.358 389.334 201.808 389.043 202.113 388.623C202.417 388.204 202.556 387.686 202.5 387.17C202.357 386.679 202.032 386.262 201.591 386.004C201.151 385.745 200.628 385.665 200.13 385.78" fill="white"/>
</g>
<g opacity="0.6">
<path d="M190.78 401L191.11 397.08L237.89 401.08C238.372 401.365 238.776 401.766 239.066 402.246C239.356 402.726 239.522 403.27 239.55 403.83L190.78 401Z" fill="white"/>
</g>
<path d="M215.9 389C215.9 389.23 214.68 389.23 213.45 389.89C212.22 390.55 211.51 391.49 211.31 391.37C211.11 391.25 211.57 389.93 213.07 389.16C214.57 388.39 216 388.77 215.9 389Z" fill="#263238"/>
<path d="M220.79 391.54C220.79 391.77 219.79 392.08 218.88 393.01C217.97 393.94 217.66 395.01 217.43 394.94C217.2 394.87 217.16 393.56 218.29 392.43C219.42 391.3 220.81 391.31 220.79 391.54Z" fill="#263238"/>
<path d="M223.14 397.87C222.92 397.87 222.69 396.69 223.42 395.45C224.15 394.21 225.29 393.79 225.42 394C225.55 394.21 224.76 394.83 224.18 395.86C223.6 396.89 223.38 397.87 223.14 397.87Z" fill="#263238"/>
<path d="M216 383.24C215.89 383.45 214.83 383.03 213.49 383C212.15 382.97 211.06 383.3 210.96 383.09C210.86 382.88 211.96 382.09 213.51 382.17C215.06 382.25 216.12 383.07 216 383.24Z" fill="#263238"/>
<g opacity="0.3">
<path d="M217.58 369.23L217.03 373.66L193.27 371.33L193.59 367.33L217.58 369.23Z" fill="black"/>
</g>
<path d="M194.668 71.5148C195.795 61.3543 188.472 52.2039 178.312 51.0768C168.151 49.9497 159.001 57.2727 157.874 67.4332C156.747 77.5936 164.07 86.744 174.23 87.8711C184.391 88.9982 193.541 81.6753 194.668 71.5148Z" fill="#161A1D"/>
<path d="M401.54 283.36L383.07 240.48L193.88 60.79L168.91 88.38L357.1 266.71L401.54 283.36Z" fill="#161A1D"/>
<g opacity="0.7">
<path d="M357.1 266.71C357.39 264.88 358.98 263.6 360.72 264.25C359.777 262.79 359.315 261.071 359.4 259.336C359.484 257.6 360.111 255.934 361.192 254.573C362.272 253.212 363.753 252.224 365.424 251.748C367.096 251.272 368.874 251.332 370.51 251.92C370.16 250.24 370.263 248.497 370.808 246.869C371.352 245.242 372.32 243.788 373.61 242.657C374.901 241.526 376.469 240.758 378.154 240.432C379.839 240.106 381.58 240.233 383.2 240.8L401.54 283.36L357.1 266.71Z" fill="white"/>
</g>
<path d="M394.11 266.11C394.11 266.11 385.4 264.11 383.34 276.54L401.54 283.36L394.11 266.11Z" fill="#263238"/>
<path opacity="0.3" d="M370.51 251.92L182.92 75.3499L194.72 61.6399L383.07 240.48L383.2 240.8C381.846 240.316 380.398 240.152 378.97 240.32C377.086 240.538 375.304 241.287 373.83 242.48C372.034 243.941 370.833 246.007 370.45 248.29C370.244 249.493 370.265 250.724 370.51 251.92Z" fill="black"/>
<path opacity="0.3" d="M360.72 264.25L172.06 85L168.93 88.63L357.1 266.63C357.177 265.903 357.522 265.232 358.067 264.745C358.612 264.259 359.319 263.993 360.05 264C360.28 264.063 360.505 264.146 360.72 264.25Z" fill="black"/>
<path d="M380.44 254.59C380.398 254.513 380.341 254.444 380.272 254.39C380.203 254.335 380.124 254.294 380.04 254.27C379.8 254.201 379.542 254.224 379.318 254.335C379.094 254.446 378.92 254.637 378.83 254.87C378.586 255.638 378.586 256.462 378.83 257.23C378.947 257.71 379.213 258.14 379.59 258.46C379.791 258.641 380.036 258.768 380.3 258.827C380.565 258.887 380.84 258.878 381.1 258.8C381.376 258.683 381.625 258.51 381.83 258.291C382.035 258.073 382.192 257.813 382.29 257.53C382.535 256.908 382.69 256.255 382.75 255.59C382.932 254.12 382.806 252.628 382.38 251.21C382.278 250.835 382.098 250.487 381.851 250.187C381.605 249.887 381.298 249.643 380.95 249.47C380.569 249.339 380.161 249.305 379.764 249.369C379.366 249.434 378.99 249.596 378.67 249.84C378.045 250.442 377.546 251.162 377.203 251.959C376.859 252.755 376.678 253.612 376.67 254.48C376.533 256.172 376.863 257.869 377.625 259.385C378.387 260.902 379.551 262.18 380.99 263.08C381.316 263.253 381.678 263.35 382.047 263.362C382.416 263.374 382.783 263.302 383.12 263.15C383.753 262.829 384.302 262.363 384.72 261.79C385.485 260.748 386.092 259.599 386.52 258.38C387.142 256.603 387.407 254.72 387.3 252.84C387.25 252.17 387.18 251.66 387.12 251.32C387.06 250.98 387.04 250.79 387.04 250.79C387.225 251.443 387.345 252.113 387.4 252.79C387.547 254.689 387.306 256.598 386.69 258.4C386.267 259.643 385.66 260.816 384.89 261.88C384.452 262.486 383.876 262.98 383.21 263.32C382.842 263.487 382.441 263.567 382.037 263.555C381.633 263.543 381.237 263.438 380.88 263.25C379.392 262.334 378.187 261.025 377.398 259.466C376.609 257.908 376.267 256.161 376.41 254.42C376.473 253.509 376.672 252.612 377 251.76C377.3 250.909 377.833 250.161 378.54 249.6C378.893 249.328 379.309 249.149 379.749 249.079C380.189 249.01 380.64 249.051 381.06 249.2C381.441 249.384 381.778 249.648 382.047 249.974C382.316 250.3 382.512 250.681 382.62 251.09C383.051 252.545 383.174 254.075 382.98 255.58C382.919 256.268 382.753 256.942 382.49 257.58C382.379 257.889 382.204 258.17 381.977 258.406C381.749 258.643 381.474 258.828 381.17 258.95C380.881 259.029 380.577 259.035 380.285 258.967C379.994 258.898 379.724 258.759 379.5 258.56C379.106 258.208 378.83 257.744 378.71 257.23C378.479 256.432 378.507 255.581 378.79 254.8C378.894 254.552 379.088 254.352 379.332 254.239C379.576 254.127 379.853 254.109 380.11 254.19C380.41 254.36 380.44 254.6 380.44 254.59Z" fill="white"/>
<path d="M375.61 273.22C375.61 273.22 375.84 272.74 376.07 271.82C376.37 270.507 376.404 269.146 376.17 267.82C375.808 265.861 375.218 263.951 374.41 262.13C373.38 259.892 372.724 257.5 372.47 255.05C372.359 252.561 372.985 250.094 374.27 247.96C375.32 246.229 376.784 244.785 378.53 243.76C379.696 243.065 380.97 242.571 382.3 242.3C382.783 242.193 383.275 242.129 383.77 242.11L383.4 242.18C383.15 242.18 382.78 242.28 382.32 242.39C381.015 242.705 379.766 243.221 378.62 243.92C376.916 244.949 375.49 246.381 374.47 248.09C373.225 250.184 372.62 252.596 372.73 255.03C372.98 257.451 373.622 259.815 374.63 262.03C375.435 263.87 376.012 265.8 376.35 267.78C376.563 269.112 376.501 270.473 376.17 271.78C376.049 272.283 375.861 272.767 375.61 273.22Z" fill="white"/>
<path d="M365.3 270C366.137 269.584 366.79 268.871 367.13 268C367.808 265.832 368.146 263.572 368.13 261.3C368.184 259.027 368.03 256.755 367.67 254.51C367.53 253.65 367.39 252.96 367.3 252.51C367.232 252.265 367.189 252.014 367.17 251.76C367.17 251.76 367.26 252.02 367.4 252.49C367.54 252.96 367.69 253.65 367.85 254.49C368.49 257.985 368.571 261.56 368.09 265.08C367.98 266.11 367.728 267.12 367.34 268.08C367.067 268.734 366.617 269.299 366.04 269.71C365.813 269.852 365.562 269.95 365.3 270Z" fill="white"/>
<path d="M362.25 253.52C362.493 253.972 362.687 254.448 362.83 254.94C363.272 256.12 363.443 257.385 363.33 258.64C363.275 259.275 363.079 259.889 362.758 260.439C362.436 260.989 361.996 261.461 361.47 261.82C361.148 262.03 360.788 262.176 360.41 262.25C360.15 262.3 360 262.25 360 262.25C360.486 262.121 360.949 261.915 361.37 261.64C361.853 261.279 362.255 260.82 362.548 260.292C362.841 259.765 363.019 259.181 363.07 258.58C363.173 257.365 363.033 256.141 362.66 254.98C362.494 254.502 362.357 254.014 362.25 253.52Z" fill="white"/>
<path d="M381.5 276L381.42 275.79C381.37 275.65 381.29 275.45 381.22 275.19C381.112 274.868 381.065 274.529 381.08 274.19C381.135 273.736 381.296 273.3 381.55 272.92C382.163 271.94 382.831 270.995 383.55 270.09C384.361 268.937 385.077 267.72 385.69 266.45C386.774 264.123 387.667 261.712 388.36 259.24C388.61 258.42 388.83 257.68 389.03 257C389.1 256.72 389.19 256.446 389.3 256.18C389.264 256.467 389.208 256.751 389.13 257.03C389 257.56 388.8 258.34 388.54 259.29C387.887 261.79 387.01 264.227 385.92 266.57C385.305 267.853 384.575 269.078 383.74 270.23C382.96 271.29 382.18 272.17 381.68 273.01C381.454 273.318 381.302 273.674 381.234 274.05C381.166 274.426 381.186 274.812 381.29 275.18C381.379 275.448 381.449 275.722 381.5 276Z" fill="white"/>
<path d="M186.262 53.0083L159.944 79.4828C159.575 79.8549 159.576 80.4564 159.948 80.8263L168.111 88.9409C168.483 89.3108 169.085 89.309 169.455 88.9369L195.773 62.4624C196.143 62.0903 196.141 61.4888 195.769 61.1189L187.606 53.0043C187.234 52.6344 186.632 52.6362 186.262 53.0083Z" fill="#E0E0E0"/>
<path d="M195.78 62.4699C195.827 62.3992 195.871 62.3257 195.91 62.2499C195.968 62.1383 196.003 62.0158 196.011 61.8902C196.02 61.7645 196.002 61.6384 195.96 61.5199C195.86 61.1999 195.47 60.9599 195.13 60.5899L193.88 59.3799L190.46 56.0499L188.33 53.9999L187.76 53.4299C187.605 53.2346 187.401 53.083 187.17 52.9899C187.059 52.9567 186.943 52.9485 186.829 52.9658C186.714 52.983 186.606 53.0255 186.51 53.0899C186.34 53.2199 186.12 53.4799 185.92 53.6699C179.3 60.3599 170.2 69.5599 160.14 79.6699C160.025 79.7859 159.954 79.9391 159.942 80.1021C159.929 80.2651 159.974 80.4273 160.07 80.5599C160.3 80.8299 160.67 81.1699 160.97 81.4699L162.84 83.3299L166.48 86.9999L168.26 88.7699C168.362 88.8859 168.5 88.9653 168.651 88.996C168.803 89.0266 168.96 89.007 169.1 88.9399C169.165 88.9049 169.226 88.8611 169.28 88.8099L169.5 88.5899L169.93 88.1599L173.29 84.7899L185 73.1099L192.89 65.2899L195 63.1799L195.57 62.6499L195.78 62.4699C195.732 62.5468 195.675 62.6174 195.61 62.6799L195.07 63.2599L193 65.4299L185.23 73.3699C181.92 76.7099 178 80.6799 173.65 85.0899C172.56 86.1899 171.45 87.3199 170.3 88.4699L169.87 88.8999L169.66 89.1199C169.566 89.2132 169.458 89.2908 169.34 89.3499C169.106 89.4633 168.843 89.4993 168.587 89.4525C168.332 89.4057 168.098 89.2787 167.92 89.0899L166.14 87.3199L162.49 83.6999L160.62 81.8399C160.3 81.5099 160.01 81.2599 159.62 80.8399C159.457 80.6053 159.381 80.3212 159.405 80.0366C159.428 79.7519 159.55 79.4844 159.75 79.2799L185.64 53.3499C185.845 53.131 186.062 52.924 186.29 52.7299C186.436 52.6347 186.601 52.5728 186.774 52.5486C186.947 52.5244 187.123 52.5385 187.29 52.5899C187.57 52.7086 187.817 52.894 188.01 53.1299L188.57 53.6999L190.67 55.8199L194.03 59.2199L195.25 60.4599C195.58 60.8399 195.96 61.0899 196.07 61.4599C196.108 61.5914 196.119 61.7294 196.102 61.8653C196.085 62.0012 196.04 62.1321 195.97 62.2499C195.927 62.339 195.862 62.415 195.78 62.4699Z" fill="#263238"/>
<path d="M163.12 76.6799C164.858 77.9894 166.489 79.4339 168 80.9999C169.633 82.4461 171.151 84.0175 172.54 85.6999C170.793 84.3936 169.155 82.949 167.64 81.3799C166.013 79.9339 164.501 78.3624 163.12 76.6799Z" fill="#263238"/>
<path d="M172.83 66.28C174.649 67.617 176.386 69.063 178.03 70.61C179.781 72.0244 181.45 73.5368 183.03 75.14C181.12 73.9364 179.331 72.5499 177.69 71C175.927 69.5808 174.3 68.0007 172.83 66.28Z" fill="#263238"/>
<path d="M194.29 63.8601C192.51 62.5565 190.838 61.1119 189.29 59.5401C187.61 58.0943 186.045 56.5196 184.61 54.8301C186.387 56.1413 188.058 57.589 189.61 59.1601C191.289 60.6039 192.853 62.1753 194.29 63.8601Z" fill="#263238"/>
<path d="M254.72 121.43C254.72 121.43 245.81 122.43 243.14 122.77C240.47 123.11 236.88 123.88 235.63 126C235.12 126.86 227.31 138.29 227.31 138.29L224.31 139.13L229.08 152.25L237.15 148.25C237.15 148.25 239.89 145.17 242.08 142.25C244.27 139.33 244.93 138.25 244.93 138.25C244.93 138.25 252.93 138.62 254.54 137.25C254.792 136.965 254.958 136.615 255.018 136.239C255.079 135.864 255.031 135.479 254.88 135.13L246.18 134.37C246.18 134.37 255.64 134.37 257.18 133.3C257.309 133.207 257.433 133.107 257.55 133C257.747 132.789 257.878 132.524 257.927 132.239C257.976 131.954 257.94 131.661 257.824 131.396C257.708 131.132 257.517 130.906 257.275 130.749C257.032 130.591 256.749 130.508 256.46 130.51L246.27 130.44C246.27 130.44 257.97 129.38 258.27 128.07C258.309 127.858 258.336 127.645 258.35 127.43C258.363 127.232 258.334 127.033 258.265 126.847C258.196 126.66 258.089 126.491 257.95 126.348C257.812 126.206 257.645 126.094 257.46 126.021C257.276 125.947 257.078 125.913 256.88 125.92L247.33 126.22C247.33 126.22 256.57 124.75 256.66 123.45C256.84 121 254.72 121.43 254.72 121.43Z" fill="#FFBF9D"/>
<path d="M194.34 146.78C195.577 144.979 197.196 143.473 199.082 142.371C200.968 141.268 203.074 140.595 205.25 140.4L224.69 138.33L230.51 156.53L202.59 163.8" fill="#455A64"/>
<path d="M202.59 163.8C202.754 163.713 202.929 163.649 203.11 163.61L204.65 163.17L210.44 161.59L230.44 156.29L230.27 156.61L226.78 145.73C225.98 143.22 225.2 140.73 224.44 138.41L224.71 138.59L211.85 139.92L206.33 140.49C204.747 140.574 203.183 140.87 201.68 141.37C199.528 142.098 197.572 143.309 195.96 144.91C194.84 146.05 194.39 146.81 194.34 146.78C194.435 146.588 194.545 146.404 194.67 146.23C195.02 145.722 195.407 145.24 195.83 144.79C197.419 143.105 199.387 141.823 201.57 141.05C203.092 140.51 204.679 140.174 206.29 140.05L211.8 139.44L224.66 138.04H224.87L224.93 138.24C225.69 140.59 226.47 143.04 227.27 145.55C228.49 149.36 229.66 153.03 230.74 156.43L230.82 156.69L230.57 156.75L210.57 161.87L204.75 163.31L203.18 163.68C202.988 163.739 202.79 163.779 202.59 163.8Z" fill="#263238"/>
<path d="M298.58 159.83C298.58 159.83 304.17 157.92 305.65 158.93C306.574 159.586 307.272 160.512 307.65 161.58C307.65 161.58 311.07 161.58 310.05 165.17C310.05 165.17 313.05 165.78 312.14 169.27C312.14 169.27 314.34 169.21 313.29 172.11C312.24 175.01 307.75 180.77 306.72 181.54C304.59 183.15 304 180.6 304.52 179.54C305.04 178.48 308 173 308 173C308 173 302.91 181 301.19 179.67C300.19 178.91 300.42 177.73 301.72 175.38C302.62 173.75 304.27 170.53 304.27 170.53L300.27 175.47C300.105 175.68 299.882 175.838 299.629 175.925C299.376 176.012 299.103 176.024 298.843 175.96C298.583 175.895 298.348 175.757 298.164 175.562C297.981 175.367 297.858 175.123 297.81 174.86C297.738 174.351 297.807 173.832 298.01 173.36C298.838 171.469 299.842 169.661 301.01 167.96L297.76 171.15C297.588 171.321 297.381 171.454 297.154 171.539C296.927 171.625 296.684 171.662 296.442 171.648C296.199 171.634 295.962 171.569 295.747 171.457C295.531 171.346 295.341 171.19 295.19 171C294.965 170.748 294.821 170.433 294.776 170.098C294.732 169.763 294.789 169.422 294.94 169.12C295.83 167.33 300.79 162.12 300.79 162.12L298.58 159.83Z" fill="#FFBF9D"/>
<path d="M202.27 186.09C202.27 186.09 197.63 209.39 202.35 219.54C207.07 229.69 219.45 234.54 232.35 238.54C249.56 243.81 279.3 260.18 279.3 260.18C279.3 260.18 275.45 277.18 272.91 287.3C270.47 297.05 263.65 332.54 263.65 332.54L294.94 336.86L317.25 256.57C317.25 256.57 323.48 240.08 309.94 231.9C298.34 224.9 257.32 197.2 257.32 197.2L254.14 189.85L202.27 186.09Z" fill="#263238"/>
<path d="M202.84 213.83L208.66 227.18L200.74 290.58C200.74 290.58 193.96 311.42 192.46 322.42C190.96 333.42 187.65 377.72 187.65 377.72H218.32C218.32 377.72 223.08 323.82 232.32 307.63C239.57 294.88 244.49 272.69 244.79 271.24C245.09 269.79 255.79 234.24 255.79 234.24L240.79 203.41L202.84 213.83Z" fill="#263238"/>
<path d="M290.1 252.75C288.122 253.721 286.2 254.799 284.34 255.98C282.596 257.314 280.927 258.743 279.34 260.26C279.639 259.672 280.034 259.137 280.51 258.68C281.581 257.511 282.778 256.465 284.08 255.56C285.38 254.652 286.779 253.893 288.25 253.3C288.831 253.013 289.456 252.827 290.1 252.75Z" fill="#455A64"/>
<path d="M294.92 336.85L294.37 336.8L292.76 336.6L286.55 335.79L263.61 332.71H263.42V332.52C265.19 323.25 267.31 312.22 269.83 299.96C270.46 296.89 271.12 293.75 271.83 290.55L274.12 280.76C275.69 274.11 277.31 267.21 278.97 260.13L279.1 260.41C276.81 259.16 274.33 257.85 271.83 256.54C264.83 252.9 257.99 249.54 251.26 246.4C244.824 243.358 238.2 240.729 231.43 238.53C224.93 236.53 218.78 234.28 213.52 231.2C210.96 229.747 208.605 227.957 206.52 225.88C204.598 223.948 203.052 221.676 201.96 219.18C201.059 216.877 200.503 214.455 200.31 211.99C200.2 210.83 200.1 209.7 200.09 208.61C200.08 207.52 200.09 206.45 200.09 205.42C200.155 201.916 200.406 198.418 200.84 194.94C201.18 192.08 201.54 189.87 201.84 188.38C201.98 187.64 202.09 187.08 202.17 186.68C202.25 186.28 202.3 186.11 202.3 186.11C202.3 186.11 202.3 186.31 202.22 186.69C202.14 187.07 202.07 187.69 201.95 188.39C201.72 189.89 201.39 192.11 201.08 194.97C200.77 197.83 200.46 201.34 200.42 205.43C200.42 206.43 200.42 207.51 200.48 208.59C200.54 209.67 200.6 210.8 200.72 211.95C200.92 214.379 201.48 216.765 202.38 219.03C203.46 221.479 204.99 223.704 206.89 225.59C208.954 227.635 211.281 229.398 213.81 230.83C219.04 233.83 225.16 236.06 231.65 238.07C238.444 240.262 245.091 242.887 251.55 245.93C258.29 249.03 265.18 252.44 272.15 256.08C274.66 257.39 277.15 258.7 279.43 259.96L279.61 260.05L279.56 260.24C277.89 267.33 276.26 274.24 274.69 280.88L272.39 290.66C271.66 293.85 271 296.99 270.39 300.05C267.85 312.3 265.69 323.33 263.87 332.59L263.72 332.38L286.63 335.62L292.83 336.52L294.44 336.76C294.74 336.8 294.92 336.85 294.92 336.85Z" fill="#455A64"/>
</svg>
