<svg width="500" height="500" viewBox="0 0 500 500" fill="none" xmlns="http://www.w3.org/2000/svg">
<path d="M444.71 349.14H264C262.447 349.137 260.958 348.519 259.859 347.421C258.761 346.322 258.143 344.833 258.14 343.28V80C258.145 78.4484 258.765 76.962 259.863 75.8658C260.961 74.7695 262.448 74.1527 264 74.15H444.71C446.262 74.1527 447.749 74.7695 448.847 75.8658C449.945 76.962 450.565 78.4484 450.57 80V343.28C450.567 344.833 449.949 346.322 448.851 347.421C447.752 348.519 446.263 349.137 444.71 349.14ZM264 74.4C263.261 74.3948 262.528 74.5356 261.843 74.8146C261.159 75.0935 260.536 75.505 260.011 76.0254C259.486 76.5458 259.069 77.1649 258.784 77.847C258.499 78.5291 258.351 79.2608 258.35 80V343.28C258.35 344.768 258.941 346.195 259.993 347.247C261.045 348.299 262.472 348.89 263.96 348.89H444.71C446.198 348.89 447.625 348.299 448.677 347.247C449.729 346.195 450.32 344.768 450.32 343.28V80C450.32 78.5122 449.729 77.0852 448.677 76.0332C447.625 74.9811 446.198 74.39 444.71 74.39L264 74.4Z" fill="#F0F0F0"/>
<path d="M236.28 349.14H55.53C53.9767 349.137 52.4877 348.519 51.3893 347.421C50.2909 346.322 49.6727 344.833 49.67 343.28V80C49.6727 78.4467 50.2909 76.9577 51.3893 75.8593C52.4877 74.7609 53.9767 74.1427 55.53 74.14H236.28C237.833 74.1427 239.322 74.7609 240.421 75.8593C241.519 76.9577 242.137 78.4467 242.14 80V343.28C242.137 344.833 241.519 346.322 240.421 347.421C239.322 348.519 237.833 349.137 236.28 349.14ZM55.53 74.4C54.0439 74.4 52.6185 74.9897 51.5667 76.0396C50.5149 77.0895 49.9227 78.5139 49.92 80V343.28C49.92 344.768 50.5111 346.195 51.5632 347.247C52.6153 348.299 54.0422 348.89 55.53 348.89H236.28C237.768 348.89 239.195 348.299 240.247 347.247C241.299 346.195 241.89 344.768 241.89 343.28V80C241.89 78.5122 241.299 77.0852 240.247 76.0331C239.195 74.9811 237.768 74.39 236.28 74.39L55.53 74.4Z" fill="#F0F0F0"/>
<path d="M500 410.21H0V410.46H500V410.21Z" fill="#F0F0F0"/>
<path d="M88.44 263.48L91.83 265.01L85.92 278.23L90.11 286.83L84.46 295.36L86.92 302.88L82.64 294.66L87.2 287.04L82.92 278L88.44 263.48Z" fill="#161A1D"/>
<path d="M88.44 263.48L91.83 265.01L85.92 278.23L90.11 286.83L84.46 295.36L86.92 302.88L82.64 294.66L87.2 287.04L82.92 278L88.44 263.48Z" fill="#E0E0E0"/>
<path d="M117 300C116.93 300.37 116.85 300.74 116.77 301.11C115.561 306.274 113.037 311.038 109.443 314.939C105.849 318.84 101.307 321.744 96.2586 323.371C91.2102 324.997 85.8268 325.29 80.6317 324.221C75.4365 323.152 70.6062 320.758 66.61 317.27C64.7938 315.67 63.1696 313.865 61.77 311.89C61.35 311.28 60.94 310.67 60.56 310.04C58.8802 307.249 57.6485 304.212 56.91 301.04C56.77 300.42 56.65 299.8 56.54 299.16C55.8767 295.173 56.0127 291.094 56.94 287.16C57.02 286.79 57.12 286.43 57.22 286.06C59.0604 279.283 63.1683 273.342 68.8587 269.228C74.5491 265.114 81.478 263.074 88.49 263.45L86.16 269.58L85.33 271.79L82.93 278L84.03 280.35L84.62 281.6L87.13 286.91L87.2 287.04L86.38 288.41L86.1 288.88L85.63 289.67L82.63 294.67L83.13 295.62L84.13 297.55L85.53 300.25L86.32 301.77L86.9 302.89L86.79 301.82L86.66 300.44L86.49 298.66L86.33 297.15L86.16 295.37L88.67 291.88L89.45 290.8L90.78 288.95L91.57 287.85L93.37 285.35L88.74 278L88.62 277.81L88.25 277.24L88.92 276.53L89.04 276.39L89.15 276.29L92.62 272.59L94.35 270.75L98.92 265.89C100.88 266.726 102.747 267.765 104.49 268.99C105.09 269.42 105.68 269.87 106.25 270.34C108.739 272.367 110.889 274.777 112.62 277.48C113 278.08 113.36 278.67 113.7 279.29C114.916 281.5 115.857 283.851 116.5 286.29C117.171 288.835 117.508 291.458 117.5 294.09C117.526 296.072 117.358 298.051 117 300Z" fill="#161A1D"/>
<path d="M117 300C116.93 300.37 116.85 300.74 116.77 301.11C115.561 306.274 113.037 311.038 109.443 314.939C105.849 318.84 101.307 321.744 96.2586 323.371C91.2102 324.997 85.8268 325.29 80.6317 324.221C75.4365 323.152 70.6062 320.758 66.61 317.27C64.7938 315.67 63.1696 313.865 61.77 311.89C61.35 311.28 60.94 310.67 60.56 310.04C58.8802 307.249 57.6485 304.212 56.91 301.04C56.77 300.42 56.65 299.8 56.54 299.16C55.8767 295.173 56.0127 291.094 56.94 287.16C57.02 286.79 57.12 286.43 57.22 286.06C59.0604 279.283 63.1683 273.342 68.8587 269.228C74.5491 265.114 81.478 263.074 88.49 263.45L86.16 269.58L85.33 271.79L82.93 278L84.03 280.35L84.62 281.6L87.13 286.91L87.2 287.04L86.38 288.41L86.1 288.88L85.63 289.67L82.63 294.67L83.13 295.62L84.13 297.55L85.53 300.25L86.32 301.77L86.9 302.89L86.79 301.82L86.66 300.44L86.49 298.66L86.33 297.15L86.16 295.37L88.67 291.88L89.45 290.8L90.78 288.95L91.57 287.85L93.37 285.35L88.74 278L88.62 277.81L88.25 277.24L88.92 276.53L89.04 276.39L89.15 276.29L92.62 272.59L94.35 270.75L98.92 265.89C100.88 266.726 102.747 267.765 104.49 268.99C105.09 269.42 105.68 269.87 106.25 270.34C108.739 272.367 110.889 274.777 112.62 277.48C113 278.08 113.36 278.67 113.7 279.29C114.916 281.5 115.857 283.851 116.5 286.29C117.171 288.835 117.508 291.458 117.5 294.09C117.526 296.072 117.358 298.051 117 300Z" fill="#F5F5F5"/>
<path d="M86.11 269.61L85.28 271.82C80.1078 272.041 75.1372 273.888 71.0759 277.099C67.0145 280.309 64.0695 284.719 62.66 289.7C62.73 289.33 62.81 288.96 62.89 288.59C64.1267 283.309 67.074 278.585 71.2733 275.152C75.4727 271.72 80.6887 269.771 86.11 269.61Z" fill="#E0E0E0"/>
<path d="M110.71 299.71C110.62 300.09 110.53 300.45 110.44 300.81C110.55 300.2 110.63 299.59 110.7 298.98C111.28 293.51 110.009 288.003 107.09 283.34C106.72 282.75 106.32 282.16 105.91 281.61C103.946 278.99 101.478 276.79 98.65 275.14C97.95 274.73 97.23 274.35 96.49 274.01C95.2366 273.445 93.9389 272.983 92.61 272.63L94.35 270.79C100.201 272.689 105.128 276.713 108.157 282.067C111.185 287.421 112.097 293.717 110.71 299.71Z" fill="#E0E0E0"/>
<path d="M110.44 300.81C108.72 306.886 104.728 312.066 99.2916 315.278C93.8551 318.489 87.3912 319.486 81.24 318.06C80.94 318 80.67 317.93 80.39 317.85L79.55 317.6L79.34 317.54L78.44 317.23H78.31C77.3523 316.878 76.4172 316.467 75.51 316C75.21 315.84 74.91 315.68 74.62 315.51C74.02 315.17 73.45 314.81 72.9 314.43L72.36 314.05L72.08 313.84C71.93 313.74 71.8 313.62 71.66 313.52L71 313C70.73 312.78 70.47 312.54 70.22 312.31C69.97 312.08 69.71 311.84 69.47 311.6L68.87 310.97C68.75 310.84 68.62 310.71 68.5 310.56L68.2 310.23L67.86 309.83L67.34 309.17C67.19 308.97 67.04 308.78 66.9 308.57C66.8643 308.529 66.8309 308.485 66.8 308.44C66.6 308.16 66.4 307.87 66.21 307.57C66.02 307.27 65.86 307.01 65.69 306.73L65.39 306.21C65.29 306.04 65.2 305.85 65.11 305.68L64.84 305.17C64.75 304.98 64.66 304.8 64.58 304.61C64.5 304.42 64.41 304.25 64.32 304.06C64.23 303.87 64.17 303.7 64.09 303.51C63.93 303.14 63.79 302.75 63.65 302.35C63.59 302.19 63.54 302.03 63.49 301.87C63.35 301.47 63.24 301.07 63.13 300.67C63.0728 300.45 63.0293 300.226 63 300C62.84 299.39 62.71 298.76 62.61 298.13C62.61 297.96 62.61 297.79 62.53 297.62C62.53 297.25 62.43 296.87 62.39 296.49V296.44C62.39 296.06 62.32 295.68 62.31 295.3V294.76C62.3052 294.673 62.3052 294.587 62.31 294.5C62.3 294.314 62.3 294.127 62.31 293.94V293.85C62.31 293.64 62.31 293.42 62.31 293.21C62.31 293 62.31 292.74 62.31 292.5C62.31 292.26 62.31 292.04 62.31 291.8C62.31 291.56 62.31 291.43 62.37 291.24V290.89C62.3835 290.722 62.4069 290.555 62.44 290.39L62.56 289.69C63.9694 284.709 66.9145 280.299 70.9758 277.089C75.0372 273.878 80.0078 272.031 85.18 271.81L82.93 278L84.03 280.35L84.62 281.6L87.13 286.91L87.2 287.04L86.38 288.41L86.1 288.88L85.63 289.67L82.63 294.67L83.13 295.62L84.13 297.55L85.53 300.25L86.32 301.77L86.9 302.89L86.79 301.82L86.66 300.44L86.49 298.66L86.33 297.15L86.16 295.37L88.67 291.88L89.45 290.8L90.78 288.95L91.57 287.85L93.37 285.35L88.74 278L88.62 277.81L88.25 277.24L88.92 276.53L89.04 276.39L89.15 276.29L92.62 272.59C93.946 272.954 95.2403 273.426 96.49 274C97.23 274.34 97.95 274.72 98.65 275.13C101.478 276.78 103.946 278.98 105.91 281.6C106.32 282.15 106.72 282.74 107.09 283.33C110.015 288.001 111.287 293.52 110.7 299C110.63 299.59 110.55 300.2 110.44 300.81Z" fill="#F0F0F0"/>
<path d="M97.42 300.68C97.6 295.61 92.26 293.51 88.69 291.87L86.18 295.36L86.35 297.14L86.51 298.65C87.3039 298.974 88.0098 299.481 88.57 300.13C88.6495 300.248 88.7046 300.38 88.7321 300.519C88.7596 300.658 88.7589 300.801 88.73 300.94C88.58 301.56 88.03 301.89 86.81 301.81L86.92 302.88L86.34 301.76C85.9391 301.712 85.5417 301.638 85.15 301.54C82.2569 300.818 79.5962 299.369 77.42 297.33L73.93 302L73.27 302.89C75.7029 305.053 78.6011 306.627 81.74 307.49L81.88 307.54L81.3 310L81 311.32L86 312.5L86.92 308.5C92.69 308.83 96.27 306.11 97.16 302.24C97.3031 301.731 97.3903 301.208 97.42 300.68ZM87.13 286.91L84.62 281.6C80.5 282.12 77.95 284.52 77.19 287.77V287.97C76.09 293.31 80.5 295.77 84.19 297.51L83.19 295.58L82.69 294.63L85.69 289.63C85.6602 289.502 85.6602 289.368 85.69 289.24C85.7419 289.018 85.8524 288.814 86.01 288.65C86.1365 288.533 86.2819 288.438 86.44 288.37L87.2 287L87.13 286.91ZM99.26 286C97.3884 284.521 95.2688 283.387 93 282.65L93.3 281.34L93.89 278.83H93.75L88.85 277.68L88.76 278.07L93.41 285.37L91.61 287.87L90.82 288.97C92.6456 289.678 94.3367 290.692 95.82 291.97L99.82 286.44L99.26 286Z" fill="#E0E0E0"/>
<path d="M89.4701 290.79L88.6901 291.87L86.1801 295.36L86.3501 297.14C87.9901 297.93 89.1001 298.65 88.8901 299.59C88.8484 299.801 88.7354 299.992 88.5701 300.13C88.2902 300.302 87.9792 300.417 87.6549 300.468C87.3306 300.519 86.9994 300.507 86.6801 300.43L86.8101 301.81L86.9201 302.88L86.34 301.76L85.5501 300.24L85.3101 300.19C82.4221 299.465 79.7635 298.024 77.5801 296L73.4301 301.52C73.5901 301.67 73.7501 301.83 73.9301 301.98C76.3244 303.911 79.0873 305.333 82.0501 306.16L81.7401 307.47L81.1601 309.96H81.3001L86.2101 311.1L87.1301 307.1C92.9001 307.43 96.4801 304.71 97.3801 300.84V300.64C98.6201 294.93 93.3201 292.54 89.4701 290.79ZM85.7901 287.92C85.9101 287.41 86.3001 287.02 87.1301 286.92L84.6201 281.61L84.0001 280.35C82.1357 280.604 80.4224 281.513 79.1673 282.914C77.9121 284.316 77.197 286.119 77.1501 288C77.0101 291.91 80.0901 294.06 83.1501 295.61L82.6501 294.66L85.6501 289.66L86.1201 288.87C86.0601 288.81 86.0201 288.74 85.9701 288.68C85.8867 288.574 85.8275 288.451 85.7964 288.32C85.7653 288.189 85.7632 288.052 85.7901 287.92ZM93.2801 281.34H93.1401L93.7301 278.84L94.0301 277.51L89.1501 276.37L89.0401 276.47L88.9201 276.61L88.6201 277.89L88.7401 278.08L93.3901 285.38L91.59 287.88C93.1851 288.562 94.671 289.475 96.0001 290.59L99.3001 285.98L99.9601 285.06C98.0027 283.388 95.7318 282.124 93.2801 281.34Z" fill="#F5F5F5"/>
<path d="M388.21 137.54L391.81 136.66L395.33 150.71L403.94 154.88L404.76 165.07L411.35 169.47L402.9 165.65L401.78 156.85L392.84 152.38L388.21 137.54Z" fill="#161A1D"/>
<path d="M388.21 137.54L391.81 136.66L395.33 150.71L403.94 154.88L404.76 165.07L411.35 169.47L402.9 165.65L401.78 156.85L392.84 152.38L388.21 137.54Z" fill="#E0E0E0"/>
<path d="M433.18 148.65C433.36 149 433.53 149.34 433.69 149.65C435.936 154.457 436.899 159.764 436.484 165.054C436.069 170.344 434.292 175.436 431.324 179.835C428.356 184.234 424.3 187.789 419.55 190.154C414.8 192.519 409.519 193.613 404.22 193.33C401.803 193.194 399.411 192.778 397.09 192.09C396.38 191.88 395.69 191.64 395 191.38C391.955 190.232 389.112 188.605 386.58 186.56C386.08 186.16 385.58 185.75 385.12 185.31C382.146 182.588 379.74 179.305 378.04 175.65C377.88 175.31 377.72 174.97 377.58 174.65C374.842 168.181 374.404 160.97 376.338 154.217C378.272 147.464 382.462 141.578 388.21 137.54L390.21 143.81L390.92 146.06L392.92 152.38L395.24 153.54L396.47 154.16L401.73 156.78L401.86 156.85L402.06 158.42L402.13 158.97L402.25 159.88L402.98 165.65L403.98 166.09L405.98 166.98L408.76 168.24L410.32 168.95L411.47 169.47L410.72 168.69L409.72 167.69L408.49 166.4L407.44 165.31L406.2 164.01L406.02 159.72L405.97 158.39L405.87 156.11L405.81 154.76L405.68 151.68L397.51 148.82L397.31 148.74L396.66 148.52L396.75 147.52V147.33V147.18L397.19 142.18L397.42 139.66L398 133C400.06 132.451 402.171 132.116 404.3 132C405.04 132 405.78 131.95 406.52 132C409.729 132.064 412.907 132.63 415.94 133.68C416.6 133.92 417.26 134.16 417.94 134.44C422.671 136.451 426.819 139.622 430 143.66C431.219 145.216 432.284 146.888 433.18 148.65Z" fill="#161A1D"/>
<path d="M433.18 148.65C433.36 149 433.53 149.34 433.69 149.65C435.936 154.457 436.899 159.764 436.484 165.054C436.069 170.344 434.292 175.436 431.324 179.835C428.356 184.234 424.3 187.789 419.55 190.154C414.8 192.519 409.519 193.613 404.22 193.33C401.803 193.194 399.411 192.778 397.09 192.09C396.38 191.88 395.69 191.64 395 191.38C391.955 190.232 389.112 188.605 386.58 186.56C386.08 186.16 385.58 185.75 385.12 185.31C382.146 182.588 379.74 179.305 378.04 175.65C377.88 175.31 377.72 174.97 377.58 174.65C374.842 168.181 374.404 160.97 376.338 154.217C378.272 147.464 382.462 141.578 388.21 137.54L390.21 143.81L390.92 146.06L392.92 152.38L395.24 153.54L396.47 154.16L401.73 156.78L401.86 156.85L402.06 158.42L402.13 158.97L402.25 159.88L402.98 165.65L403.98 166.09L405.98 166.98L408.76 168.24L410.32 168.95L411.47 169.47L410.72 168.69L409.72 167.69L408.49 166.4L407.44 165.31L406.2 164.01L406.02 159.72L405.97 158.39L405.87 156.11L405.81 154.76L405.68 151.68L397.51 148.82L397.31 148.74L396.66 148.52L396.75 147.52V147.33V147.18L397.19 142.18L397.42 139.66L398 133C400.06 132.451 402.171 132.116 404.3 132C405.04 132 405.78 131.95 406.52 132C409.729 132.064 412.907 132.63 415.94 133.68C416.6 133.92 417.26 134.16 417.94 134.44C422.671 136.451 426.819 139.622 430 143.66C431.219 145.216 432.284 146.888 433.18 148.65Z" fill="#F5F5F5"/>
<path d="M390.16 143.81L390.87 146.06C386.946 149.427 384.183 153.943 382.971 158.969C381.759 163.995 382.161 169.275 384.12 174.06C383.95 173.72 383.78 173.39 383.62 173.06C381.334 168.145 380.736 162.613 381.918 157.323C383.101 152.034 385.999 147.283 390.16 143.81Z" fill="#E0E0E0"/>
<path d="M428.1 152.29C428.26 152.64 428.42 152.98 428.56 153.29C428.27 152.74 427.96 152.2 427.64 151.69C424.718 147.029 420.316 143.483 415.14 141.62C414.48 141.38 413.81 141.17 413.14 140.98C409.978 140.139 406.681 139.935 403.44 140.38C402.64 140.49 401.83 140.64 401.04 140.83C399.705 141.154 398.4 141.592 397.14 142.14L397.37 139.62C403.148 137.499 409.512 137.624 415.203 139.97C420.893 142.316 425.496 146.713 428.1 152.29Z" fill="#E0E0E0"/>
<path d="M428.56 153.32C430.96 159.159 431.021 165.698 428.732 171.581C426.442 177.464 421.976 182.24 416.26 184.92C415.98 185.05 415.73 185.17 415.46 185.28C415.19 185.39 414.92 185.51 414.64 185.61L414.44 185.69L413.54 186L413.42 186.05C412.437 186.364 411.435 186.614 410.42 186.8C410.09 186.87 409.75 186.93 409.42 186.97C408.74 187.07 408.07 187.14 407.42 187.18H406.76H405.08C404.73 187.18 404.38 187.18 404.08 187.12L403.08 187.02L402.22 186.9L401.67 186.81L401.24 186.73L400.72 186.62L399.91 186.43C399.66 186.37 399.43 186.31 399.19 186.23H399.03L398.03 185.91C397.72 185.81 397.41 185.69 397.1 185.57C396.91 185.49 396.73 185.41 396.54 185.35L395.99 185.1L395.47 184.86C395.29 184.77 395.1 184.69 394.92 184.59L394.38 184.31L393.86 184.02C393.5 183.83 393.15 183.61 392.79 183.38L392.37 183.1C392.025 182.877 391.691 182.636 391.37 182.38C391.202 182.271 391.041 182.151 390.89 182.02C390.383 181.635 389.896 181.224 389.43 180.79L389.05 180.44L388.24 179.63C387.99 179.35 387.73 179.07 387.48 178.78C387.37 178.65 387.24 178.51 387.13 178.37C387.02 178.23 387.02 178.24 386.97 178.16L386.61 177.73C386.599 177.703 386.582 177.679 386.56 177.66C386.428 177.493 386.304 177.32 386.19 177.14C386.041 176.956 385.904 176.762 385.78 176.56C385.639 176.375 385.508 176.181 385.39 175.98C385.28 175.82 385.18 175.66 385.08 175.5L384.91 175.19L384.65 174.76C384.54 174.54 384.43 174.34 384.31 174.13C382.351 169.345 381.949 164.065 383.161 159.039C384.373 154.013 387.136 149.497 391.06 146.13L393.06 152.45L395.38 153.61L396.61 154.23L401.87 156.85L402 156.92L402.2 158.49L402.27 159.04L402.39 159.95L403.12 165.72L404.12 166.16L406.12 167.05L408.9 168.31L410.46 169.02L411.61 169.54L410.86 168.76L409.86 167.76L408.63 166.47L407.58 165.38L406.34 164.08L406.16 159.79L406.11 158.46L406.01 156.18L405.95 154.83L405.82 151.75L397.65 148.89L397.45 148.81L396.8 148.59L396.89 147.59V147.4V147.25L397.33 142.25C398.59 141.702 399.895 141.264 401.23 140.94C402.02 140.75 402.83 140.6 403.63 140.49C406.871 140.045 410.168 140.249 413.33 141.09C414 141.28 414.68 141.49 415.33 141.72C420.504 143.592 424.904 147.14 427.83 151.8C428 152.23 428.27 152.77 428.56 153.32Z" fill="#F0F0F0"/>
<path d="M418.25 161.26C415.25 157.17 409.77 158.81 405.95 159.73L406.13 164.01L407.37 165.31L408.42 166.4C409.246 166.165 410.116 166.128 410.96 166.29C411.096 166.331 411.221 166.4 411.328 166.493C411.435 166.586 411.521 166.701 411.58 166.83C411.85 167.41 411.58 168.01 410.58 168.69L411.33 169.47L410.2 169C409.853 169.205 409.496 169.392 409.13 169.56C406.408 170.777 403.421 171.282 400.45 171.03L400.57 176.82V177.93C403.821 178.124 407.074 177.573 410.08 176.32L410.22 176.27L411.29 178.56L411.86 179.79L416.56 177.6L414.83 173.9C419.57 170.6 420.7 166.25 419.02 162.66C418.811 162.168 418.553 161.699 418.25 161.26ZM401.65 156.78L396.39 154.16C393.48 157.16 392.95 160.57 394.39 163.6L394.48 163.78C396.91 168.66 401.9 167.87 405.88 166.95L403.88 166.06L402.88 165.62L402.15 159.85C402.049 159.769 401.967 159.666 401.91 159.55C401.814 159.341 401.776 159.109 401.8 158.88C401.829 158.71 401.883 158.545 401.96 158.39L401.76 156.82L401.65 156.78ZM410.65 148.57C408.26 148.56 405.889 148.983 403.65 149.82L403.08 148.61L401.98 146.27L401.86 146.33L397.29 148.45L397.46 148.82L405.63 151.68L405.76 154.76L405.82 156.11C407.695 155.541 409.653 155.298 411.61 155.39L411.31 148.59L410.65 148.57Z" fill="#E0E0E0"/>
<path d="M405.89 158.39L405.94 159.72L406.12 164.01L407.36 165.31C409.13 164.92 410.45 164.8 410.86 165.66C410.953 165.856 410.985 166.076 410.95 166.29C410.86 166.72 410.46 167.18 409.64 167.69L410.64 168.69L411.39 169.47L410.2 169L408.64 168.29L408.42 168.4C405.697 169.613 402.71 170.115 399.74 169.86L399.88 176.77L400.57 176.82C403.656 176.869 406.72 176.284 409.57 175.1L410.14 176.32L411.22 178.63L411.35 178.56L415.91 176.43L414.18 172.74C418.92 169.43 420.06 165.08 418.38 161.49L418.28 161.3C415.64 156 410 157.39 405.89 158.39ZM401.22 158.39C401.102 158.109 401.079 157.797 401.157 157.502C401.235 157.207 401.408 156.946 401.65 156.76L396.39 154.14L395.16 153.52C394.044 154.678 393.303 156.146 393.033 157.732C392.764 159.318 392.979 160.948 393.65 162.41C393.867 162.887 394.136 163.34 394.45 163.76C396.76 166.93 400.51 166.71 403.87 166.04L402.87 165.6L402.14 159.83L402.02 158.92L401.79 158.86C401.669 158.829 401.555 158.773 401.457 158.696C401.359 158.618 401.278 158.521 401.22 158.41V158.39ZM403.05 148.59H402.91L401.83 146.26L401.24 145.02L396.7 147.14V147.29V147.48L397.26 148.67L397.46 148.75L405.63 151.61L405.76 154.69C407.435 154.265 409.163 154.083 410.89 154.15L410.64 148.5V147.36C408.051 147.258 405.469 147.683 403.05 148.61V148.59Z" fill="#F5F5F5"/>
<path d="M414.17 107.69C412.26 103.25 407.46 94.96 397.55 92.69C388.47 90.62 381.62 102.09 375.99 102.94C370.36 103.79 370.99 101.25 359.74 97.02C350.11 93.41 343.66 102.8 341.38 107.69H414.17Z" fill="#F5F5F5"/>
<path d="M125.71 174.38C125.71 174.38 125.71 166.1 117.58 165.76C113.7 165.59 108.95 168.76 105.95 163.76C102.47 157.92 96.38 154.44 90.95 156.7C84.9 159.2 81.4601 168.77 75.5501 167.99C69.6401 167.21 58.35 163.27 52.55 174.4L125.71 174.38Z" fill="#F5F5F5"/>
<path d="M443.19 248.4C443.19 248.4 443.19 240.13 435.06 239.78C431.17 239.62 426.43 242.78 423.43 237.78C419.95 231.93 413.86 228.45 408.38 230.72C402.32 233.21 398.89 242.79 392.98 242C387.07 241.21 375.78 237.28 369.98 248.41L443.19 248.4Z" fill="#F5F5F5"/>
<path d="M247.49 439.66C364.574 439.66 459.49 436.942 459.49 433.59C459.49 430.238 364.574 427.52 247.49 427.52C130.406 427.52 35.49 430.238 35.49 433.59C35.49 436.942 130.406 439.66 247.49 439.66Z" fill="#F0F0F0"/>
<path d="M237.71 378.27V368.77C237.711 368.692 237.697 368.614 237.668 368.541C237.639 368.468 237.596 368.402 237.541 368.346C237.486 368.29 237.42 368.246 237.348 368.216C237.276 368.186 237.198 368.17 237.12 368.17H232V366.64H237.16C237.724 366.643 238.264 366.868 238.663 367.267C239.062 367.666 239.287 368.206 239.29 368.77V378.27H237.71Z" fill="#263238"/>
<path d="M202.06 368.77V378.27H200.52V368.77C200.523 368.206 200.748 367.666 201.147 367.267C201.546 366.868 202.086 366.643 202.65 366.64H207.81V368.17H202.65C202.493 368.173 202.343 368.237 202.232 368.349C202.122 368.461 202.06 368.613 202.06 368.77Z" fill="#263238"/>
<path d="M180.31 382.29V430.21C180.31 431.271 180.731 432.288 181.482 433.038C182.232 433.788 183.249 434.21 184.31 434.21H253.48C254.541 434.21 255.558 433.788 256.309 433.038C257.059 432.288 257.48 431.271 257.48 430.21V382.29C257.48 381.229 257.059 380.212 256.309 379.461C255.558 378.711 254.541 378.29 253.48 378.29H184.34C183.812 378.286 183.289 378.386 182.8 378.586C182.311 378.785 181.867 379.079 181.492 379.451C181.118 379.823 180.82 380.265 180.617 380.752C180.414 381.239 180.31 381.762 180.31 382.29Z" fill="#161A1D"/>
<g opacity="0.3">
<path d="M180.31 382.29V430.21C180.31 431.271 180.731 432.288 181.482 433.038C182.232 433.788 183.249 434.21 184.31 434.21H253.48C254.541 434.21 255.558 433.788 256.309 433.038C257.059 432.288 257.48 431.271 257.48 430.21V382.29C257.48 381.229 257.059 380.212 256.309 379.461C255.558 378.711 254.541 378.29 253.48 378.29H184.34C183.812 378.286 183.289 378.386 182.8 378.586C182.311 378.785 181.867 379.079 181.492 379.451C181.118 379.823 180.82 380.265 180.617 380.752C180.414 381.239 180.31 381.762 180.31 382.29Z" fill="white"/>
</g>
<path d="M193.53 378.27H190.46V434.25H193.53V378.27Z" fill="#263238"/>
<path d="M247.39 378.27H244.32V434.25H247.39V378.27Z" fill="#263238"/>
<path d="M206.23 369.96H234.09V364.85H206.23V369.96Z" fill="#161A1D"/>
<path d="M282.16 373.35L286.14 373.45L285.81 388.98L293.54 395.73L291.52 406.51L297.09 412.92L289.43 406.58L290.75 397.16L282.76 390L282.16 373.35Z" fill="#161A1D"/>
<path opacity="0.6" d="M282.16 373.35L286.14 373.45L285.81 388.98L293.54 395.73L291.52 406.51L297.09 412.92L289.43 406.58L290.75 397.16L282.76 390L282.16 373.35Z" fill="black"/>
<path d="M325.56 397.55C325.65 397.95 325.73 398.35 325.79 398.75C326.875 405.01 326.126 411.45 323.634 417.295C321.141 423.139 317.011 428.137 311.741 431.686C306.472 435.236 300.288 437.185 293.936 437.3C287.583 437.414 281.334 435.688 275.94 432.33C275.27 431.91 274.61 431.47 273.94 431.01C271.115 428.958 268.635 426.47 266.59 423.64C266.19 423.09 265.8 422.52 265.43 421.94C263.125 418.28 261.562 414.203 260.83 409.94C260.757 409.54 260.697 409.14 260.65 408.74C259.655 401.276 261.243 393.695 265.15 387.258C269.058 380.82 275.049 375.913 282.13 373.35L282.38 380.35L282.48 382.88L282.73 389.97L284.81 391.83L285.91 392.83L290.6 397.03L290.72 397.14L290.48 398.82L290.41 399.41L290.27 400.41L289.4 406.58L290.28 407.32L292.08 408.8L294.6 410.88L296.02 412.06L297.02 412.92L296.46 411.92L295.76 410.61L294.84 408.92L294.06 407.5L293.15 405.81L294.15 401.32L294.46 399.93L295.01 397.54L295.33 396.12L296.07 392.9L288.42 387.63L288.23 387.49L287.63 387.08L287.99 386.08L288.05 385.89L288.11 385.74L290 380.65L290.94 378.11L293.43 371.39C295.717 371.402 297.996 371.653 300.23 372.14C301.01 372.31 301.78 372.5 302.54 372.73C305.84 373.705 308.968 375.19 311.81 377.13C312.43 377.56 313.04 378 313.63 378.47C315.747 380.141 317.654 382.061 319.31 384.19C321.032 386.425 322.46 388.872 323.56 391.47C324.428 393.425 325.098 395.462 325.56 397.55Z" fill="#161A1D"/>
<path d="M325.56 397.55C325.65 397.95 325.73 398.35 325.79 398.75C326.875 405.01 326.126 411.45 323.634 417.295C321.141 423.139 317.011 428.137 311.741 431.686C306.472 435.236 300.288 437.185 293.936 437.3C287.583 437.414 281.334 435.688 275.94 432.33C275.27 431.91 274.61 431.47 273.94 431.01C271.115 428.958 268.635 426.47 266.59 423.64C266.19 423.09 265.8 422.52 265.43 421.94C263.125 418.28 261.562 414.203 260.83 409.94C260.757 409.54 260.697 409.14 260.65 408.74C259.655 401.276 261.243 393.695 265.15 387.258C269.058 380.82 275.049 375.913 282.13 373.35L282.38 380.35L282.48 382.88L282.73 389.97L284.81 391.83L285.91 392.83L290.6 397.03L290.72 397.14L290.48 398.82L290.41 399.41L290.27 400.41L289.4 406.58L290.28 407.32L292.08 408.8L294.6 410.88L296.02 412.06L297.02 412.92L296.46 411.92L295.76 410.61L294.84 408.92L294.06 407.5L293.15 405.81L294.15 401.32L294.46 399.93L295.01 397.54L295.33 396.12L296.07 392.9L288.42 387.63L288.23 387.49L287.63 387.08L287.99 386.08L288.05 385.89L288.11 385.74L290 380.65L290.94 378.11L293.43 371.39C295.717 371.402 297.996 371.653 300.23 372.14C301.01 372.31 301.78 372.5 302.54 372.73C305.84 373.705 308.968 375.19 311.81 377.13C312.43 377.56 313.04 378 313.63 378.47C315.747 380.141 317.654 382.061 319.31 384.19C321.032 386.425 322.46 388.872 323.56 391.47C324.428 393.425 325.098 395.462 325.56 397.55Z" fill="#161A1D"/>
<path opacity="0.6" d="M282.41 380.38L282.51 382.91C277.49 385.284 273.348 389.182 270.672 394.048C267.997 398.913 266.925 404.5 267.61 410.01C267.52 409.62 267.45 409.22 267.38 408.82C266.399 403.086 267.34 397.188 270.059 392.044C272.777 386.9 277.119 382.8 282.41 380.38Z" fill="black"/>
<path opacity="0.6" d="M319.28 399.87C319.353 400.277 319.413 400.677 319.46 401.07C319.32 400.42 319.15 399.78 318.96 399.15C317.256 393.5 313.702 388.587 308.87 385.2C308.26 384.76 307.62 384.36 306.98 383.98C303.947 382.211 300.592 381.065 297.11 380.61C296.25 380.5 295.37 380.43 294.5 380.4C293.029 380.363 291.557 380.45 290.1 380.66L291.04 378.12C297.615 377.552 304.165 379.471 309.393 383.498C314.622 387.525 318.15 393.367 319.28 399.87Z" fill="black"/>
<g opacity="0.3">
<path d="M319.46 401.07C320.297 407.791 318.513 414.576 314.48 420.017C310.447 425.457 304.474 429.136 297.8 430.29C297.496 430.358 297.189 430.408 296.88 430.44L295.94 430.55H295.7L294.7 430.62H294.56C293.466 430.67 292.371 430.65 291.28 430.56L290.2 430.46C289.47 430.37 288.76 430.25 288.05 430.1L287.36 429.95L286.99 429.85C286.808 429.813 286.627 429.766 286.45 429.71C286.17 429.64 285.89 429.56 285.62 429.47C285.35 429.38 284.91 429.24 284.56 429.12L283.56 428.73L282.71 428.36L282.17 428.11L281.73 427.91L281.23 427.65L280.44 427.22C280.21 427.09 279.98 426.96 279.76 426.81L279.6 426.72L278.66 426.11L277.79 425.5L277.27 425.11L276.77 424.7L276.3 424.31L275.8 423.87C275.65 423.72 275.49 423.58 275.32 423.43L274.87 422.99C274.55 422.68 274.25 422.35 273.95 421.99C273.82 421.86 273.7 421.72 273.58 421.58C273.28 421.25 273 420.9 272.73 420.58C272.591 420.417 272.461 420.247 272.34 420.07C271.924 419.527 271.537 418.963 271.18 418.38C271.07 418.22 270.98 418.07 270.88 417.91C270.68 417.56 270.47 417.21 270.27 416.85V416.8C270.08 416.44 269.89 416.08 269.71 415.71C269.64 415.54 269.55 415.36 269.47 415.19L269.36 414.92C269.27 414.75 269.2 414.56 269.12 414.38C269.122 414.35 269.122 414.32 269.12 414.29C269.03 414.08 268.95 413.87 268.88 413.65C268.78 413.415 268.693 413.175 268.62 412.93C268.53 412.7 268.45 412.46 268.38 412.22C268.31 411.98 268.26 411.84 268.2 411.64L268.1 411.27C268.05 411.1 268.01 410.92 267.96 410.75C267.91 410.58 267.85 410.25 267.79 410C267.105 404.489 268.177 398.903 270.852 394.038C273.528 389.172 277.67 385.274 282.69 382.9L282.94 389.99L285.02 391.85L286.12 392.85L290.81 397.05L290.93 397.16L290.69 398.84L290.62 399.43L290.48 400.43L289.61 406.6L290.49 407.34L292.29 408.82L294.81 410.9L296.23 412.08L297.23 412.94L296.67 411.94L295.97 410.63L295.05 408.94L294.27 407.52L293.36 405.83L294.36 401.34L294.67 399.95L295.22 397.56L295.54 396.14L296.28 392.92L288.63 387.65L288.44 387.51L287.84 387.1L288.2 386.1L288.26 385.91L288.32 385.76L290.21 380.67C291.667 380.46 293.139 380.373 294.61 380.41C295.48 380.41 296.36 380.51 297.22 380.62C300.671 381.09 303.995 382.238 307 384C307.64 384.38 308.28 384.78 308.89 385.22C313.726 388.599 317.286 393.505 319 399.15C319.15 399.78 319.32 400.42 319.46 401.07Z" fill="black"/>
</g>
<g opacity="0.6">
<path d="M306.55 406.37C304.62 401.3 298.46 401.44 294.26 401.32L293.26 405.81L294.17 407.5L294.95 408.92C295.871 408.913 296.781 409.118 297.61 409.52C297.737 409.604 297.846 409.713 297.931 409.84C298.015 409.967 298.072 410.11 298.1 410.26C298.21 410.94 297.81 411.49 296.57 411.92L297.13 412.92L296.13 412.06C295.76 412.16 295.34 412.25 294.86 412.34C291.698 412.827 288.463 412.504 285.46 411.4L283.95 417.4L283.66 418.56C286.973 419.671 290.495 420.013 293.96 419.56H294L294.46 422.24L294.71 423.67L300.19 422.73L299.44 418.42C305.28 416.34 307.68 412.16 306.96 407.96C306.872 407.419 306.734 406.887 306.55 406.37ZM290.63 397.05L285.94 392.85C282.08 395.09 280.56 398.52 281.17 402.05V402.26C282.31 407.99 287.69 408.58 292.07 408.76L290.27 407.28L289.39 406.54L290.26 400.37C290.182 400.255 290.128 400.126 290.1 399.99C290.057 399.748 290.082 399.499 290.17 399.27C290.244 399.098 290.346 398.94 290.47 398.8L290.71 397.12L290.63 397.05ZM302.23 391.05C299.761 390.371 297.19 390.144 294.64 390.38L294.39 388.96L293.92 386.23H293.77L288.45 387.14L288.52 387.57L296.17 392.84L295.43 396.06L295.11 397.48C297.209 397.413 299.304 397.714 301.3 398.37L302.91 391.25L302.23 391.05Z" fill="black"/>
</g>
<path d="M294.56 399.92L294.25 401.31L293.25 405.8L294.16 407.49C296.11 407.59 297.51 407.84 297.69 408.85C297.736 409.074 297.704 409.307 297.6 409.51C297.39 409.94 296.85 410.3 295.86 410.6L296.56 411.91L297.12 412.91L296.12 412.05L294.7 410.87L294.44 410.92C291.266 411.422 288.017 411.106 285 410L283.2 417.18C283.42 417.27 283.64 417.35 283.89 417.43C287.058 418.341 290.379 418.597 293.65 418.18L293.9 419.6L294.36 422.3H294.51L299.83 421.38L299.09 417.07C304.93 414.99 307.33 410.81 306.61 406.61V406.39C305.33 400.18 299.1 400 294.56 399.92ZM289.73 398.61C289.687 398.287 289.753 397.959 289.915 397.677C290.078 397.395 290.329 397.175 290.63 397.05L285.94 392.85L284.84 391.85C281.5 394.1 280.19 397.32 280.76 400.63C280.853 401.184 281.004 401.727 281.21 402.25C282.7 406.17 286.65 407.01 290.31 407.25L289.43 406.51L290.3 400.34L290.44 399.34C290.36 399.306 290.283 399.266 290.21 399.22C290.093 399.155 289.991 399.068 289.908 398.963C289.826 398.859 289.765 398.738 289.73 398.61ZM294.39 388.99H294.23L293.77 386.27L293.52 384.83L288.21 385.74L288.15 385.89L288.09 386.08L288.33 387.47L288.52 387.61L296.17 392.88L295.43 396.1C297.284 396.131 299.124 396.434 300.89 397L302.23 391.07L302.5 389.88C299.882 389.049 297.125 388.75 294.39 389V388.99Z" fill="#161A1D"/>
<path d="M191.67 98.77L193.43 91C193.464 90.8563 193.45 90.7054 193.391 90.5702C193.332 90.4349 193.23 90.3227 193.101 90.2504C192.972 90.1781 192.824 90.1497 192.677 90.1695C192.531 90.1892 192.395 90.2561 192.29 90.36L186.57 95.9C186.57 95.9 188.45 99.06 191.67 98.77Z" fill="#161A1D"/>
<g opacity="0.4">
<path d="M191.67 98.77L193.43 91C193.464 90.8563 193.45 90.7054 193.391 90.5702C193.332 90.4349 193.23 90.3227 193.101 90.2504C192.972 90.1781 192.824 90.1497 192.677 90.1695C192.531 90.1892 192.395 90.2561 192.29 90.36L186.57 95.9C186.57 95.9 188.45 99.06 191.67 98.77Z" fill="white"/>
</g>
<path d="M196.51 113.77L199.83 113.12L201.49 112.8L204.32 112.25C204.464 112.222 204.596 112.148 204.694 112.039C204.793 111.93 204.854 111.791 204.867 111.645C204.881 111.499 204.847 111.352 204.769 111.226C204.692 111.101 204.577 111.004 204.44 110.95L200.83 109.48L197.06 108C197.06 108 195 110.94 196.51 113.77Z" fill="#161A1D"/>
<g opacity="0.4">
<path d="M196.51 113.77L199.83 113.12L201.49 112.8L204.32 112.25C204.464 112.222 204.596 112.148 204.694 112.039C204.793 111.93 204.854 111.791 204.867 111.645C204.881 111.499 204.847 111.352 204.769 111.226C204.692 111.101 204.577 111.004 204.44 110.95L200.83 109.48L197.06 108C197.06 108 195 110.94 196.51 113.77Z" fill="white"/>
</g>
<path d="M171.5 100.17L164 97.4999C163.869 97.4631 163.731 97.4663 163.602 97.509C163.473 97.5517 163.36 97.6321 163.277 97.7396C163.194 97.8472 163.145 97.9771 163.137 98.1126C163.129 98.2481 163.161 98.383 163.23 98.4999L168.04 104.84C168.04 104.84 171.4 103.4 171.5 100.17Z" fill="#161A1D"/>
<g opacity="0.4">
<path d="M171.5 100.17L164 97.4999C163.869 97.4631 163.731 97.4663 163.602 97.509C163.473 97.5517 163.36 97.6321 163.277 97.7396C163.194 97.8472 163.145 97.9771 163.137 98.1126C163.129 98.2481 163.161 98.383 163.23 98.4999L168.04 104.84C168.04 104.84 171.4 103.4 171.5 100.17Z" fill="white"/>
</g>
<path d="M195.24 108.67L201.79 104.16C201.911 104.077 202.001 103.957 202.048 103.819C202.095 103.68 202.097 103.53 202.052 103.391C202.007 103.252 201.918 103.131 201.799 103.046C201.68 102.961 201.536 102.917 201.39 102.92L193.39 103.11C193.39 103.11 192.68 106.7 195.24 108.67Z" fill="#161A1D"/>
<path opacity="0.4" d="M195.24 108.67L201.79 104.16C201.911 104.077 202.001 103.957 202.048 103.819C202.095 103.68 202.097 103.53 202.052 103.391C202.007 103.252 201.918 103.131 201.799 103.046C201.68 102.961 201.536 102.917 201.39 102.92L193.39 103.11C193.39 103.11 192.68 106.7 195.24 108.67Z" fill="white"/>
<path d="M173.41 119L171.3 126.66C171.263 126.8 171.272 126.949 171.325 127.083C171.378 127.218 171.473 127.333 171.596 127.41C171.719 127.487 171.863 127.523 172.008 127.512C172.153 127.501 172.29 127.444 172.4 127.35L178.4 122.08C178.4 122.08 176.64 118.81 173.41 119Z" fill="#161A1D"/>
<g opacity="0.4">
<path d="M173.41 119L171.3 126.66C171.263 126.8 171.272 126.949 171.325 127.083C171.378 127.218 171.473 127.333 171.596 127.41C171.719 127.487 171.863 127.523 172.008 127.512C172.153 127.501 172.29 127.444 172.4 127.35L178.4 122.08C178.4 122.08 176.64 118.81 173.41 119Z" fill="white"/>
</g>
<path d="M181.35 124.1L185.85 130.65C185.933 130.77 186.053 130.861 186.191 130.908C186.33 130.955 186.48 130.956 186.619 130.912C186.758 130.867 186.879 130.778 186.964 130.659C187.049 130.54 187.093 130.396 187.09 130.25L186.9 122.25C186.9 122.25 183.32 121.54 181.35 124.1Z" fill="#161A1D"/>
<g opacity="0.4">
<path d="M181.35 124.1L185.85 130.65C185.933 130.77 186.053 130.861 186.191 130.908C186.33 130.955 186.48 130.956 186.619 130.912C186.758 130.867 186.879 130.778 186.964 130.659C187.049 130.54 187.093 130.396 187.09 130.25L186.9 122.25C186.9 122.25 183.32 121.54 181.35 124.1Z" fill="white"/>
</g>
<path d="M160.66 112.11L167.21 113.38C167.429 114.193 167.717 114.986 168.07 115.75L164.36 119.39C164.256 119.493 164.189 119.626 164.167 119.77C164.145 119.915 164.17 120.062 164.238 120.191C164.307 120.32 164.415 120.424 164.546 120.487C164.678 120.549 164.827 120.568 164.97 120.54L170.43 119.45C170.898 119.991 171.402 120.499 171.94 120.97C172.756 121.676 173.64 122.299 174.58 122.83C177.243 124.32 180.286 124.99 183.328 124.757C186.37 124.524 189.276 123.398 191.68 121.52L192.04 121.23L192.53 120.81L192.59 120.75L193.92 121.09L196.72 121.81C196.861 121.848 197.011 121.84 197.147 121.785C197.283 121.73 197.397 121.632 197.472 121.506C197.547 121.38 197.579 121.233 197.562 121.087C197.545 120.942 197.481 120.806 197.38 120.7L194.94 118H195C195.23 117.66 195.44 117.31 195.64 117C197.15 114.311 197.821 111.233 197.568 108.159C197.315 105.086 196.148 102.159 194.218 99.754C192.289 97.3489 189.684 95.5759 186.738 94.6628C183.793 93.7497 180.642 93.7383 177.69 94.6299L175.11 90.9999C175.024 90.8805 174.901 90.7923 174.76 90.7486C174.62 90.7049 174.468 90.7081 174.33 90.7578C174.191 90.8074 174.072 90.9007 173.991 91.0238C173.91 91.1468 173.871 91.2929 173.88 91.4399L174.11 96.1299C173.69 96.3899 173.29 96.6599 172.89 96.9499C171.154 98.2498 169.71 99.8985 168.65 101.79C167.502 103.789 166.818 106.021 166.65 108.32L160.48 110.84C160.355 110.905 160.254 111.007 160.189 111.132C160.125 111.257 160.101 111.399 160.12 111.539C160.14 111.678 160.203 111.808 160.299 111.91C160.396 112.012 160.522 112.082 160.66 112.11Z" fill="#161A1D"/>
<g opacity="0.5">
<path d="M160.66 112.11L167.21 113.38C167.429 114.193 167.717 114.986 168.07 115.75L164.36 119.39C164.256 119.493 164.189 119.626 164.167 119.77C164.145 119.915 164.17 120.062 164.238 120.191C164.307 120.32 164.415 120.424 164.546 120.487C164.678 120.549 164.827 120.568 164.97 120.54L170.43 119.45C170.898 119.991 171.402 120.499 171.94 120.97C172.756 121.676 173.64 122.299 174.58 122.83C177.243 124.32 180.286 124.99 183.328 124.757C186.37 124.524 189.276 123.398 191.68 121.52L192.04 121.23L192.53 120.81L192.59 120.75L193.92 121.09L196.72 121.81C196.861 121.848 197.011 121.84 197.147 121.785C197.283 121.73 197.397 121.632 197.472 121.506C197.547 121.38 197.579 121.233 197.562 121.087C197.545 120.942 197.481 120.806 197.38 120.7L194.94 118H195C195.23 117.66 195.44 117.31 195.64 117C197.15 114.311 197.821 111.233 197.568 108.159C197.315 105.086 196.148 102.159 194.218 99.754C192.289 97.3489 189.684 95.5759 186.738 94.6628C183.793 93.7497 180.642 93.7383 177.69 94.6299L175.11 90.9999C175.024 90.8805 174.901 90.7923 174.76 90.7486C174.62 90.7049 174.468 90.7081 174.33 90.7578C174.191 90.8074 174.072 90.9007 173.991 91.0238C173.91 91.1468 173.871 91.2929 173.88 91.4399L174.11 96.1299C173.69 96.3899 173.29 96.6599 172.89 96.9499C171.154 98.2498 169.71 99.8985 168.65 101.79C167.502 103.789 166.818 106.021 166.65 108.32L160.48 110.84C160.355 110.905 160.254 111.007 160.189 111.132C160.125 111.257 160.101 111.399 160.12 111.539C160.14 111.678 160.203 111.808 160.299 111.91C160.396 112.012 160.522 112.082 160.66 112.11Z" fill="white"/>
</g>
<g opacity="0.5">
<path d="M173.69 104C172.709 105.752 172.27 107.755 172.428 109.757C172.585 111.758 173.333 113.668 174.576 115.244C175.82 116.821 177.503 117.993 179.412 118.613C181.322 119.233 183.372 119.273 185.305 118.727C187.237 118.181 188.964 117.075 190.267 115.548C191.57 114.02 192.391 112.141 192.626 110.147C192.861 108.153 192.5 106.134 191.587 104.346C190.675 102.557 189.252 101.08 187.5 100.1C186.337 99.4483 185.058 99.0322 183.734 98.8756C182.411 98.7189 181.069 98.8247 179.786 99.187C178.504 99.5492 177.305 100.161 176.259 100.987C175.213 101.812 174.34 102.836 173.69 104Z" fill="white"/>
</g>
<g opacity="0.2">
<path d="M184.82 102C185.94 101.06 187.74 101.64 189.16 102.82C189.871 103.45 190.445 104.219 190.849 105.078C191.253 105.938 191.478 106.871 191.51 107.82C191.99 112.04 188.77 117.67 184.22 117.02C179.67 116.37 181.22 112.02 184.57 111.43C187.92 110.84 188.2 106.49 185.24 104.31C183.92 103.29 184.16 102.52 184.82 102Z" fill="#161A1D"/>
</g>
<g opacity="0.2">
<path d="M181.44 105C182.235 104.946 183.031 105.073 183.77 105.37C184.77 105.8 185.86 106.66 185.24 108.3C184.24 110.84 180.7 108.3 179.01 110.23C177.01 112.48 173.39 110.57 174.46 108.1C175.53 105.63 179.68 105.13 181.44 105Z" fill="#161A1D"/>
</g>
<g opacity="0.2">
<path d="M177 112.2C177.6 112.108 178.213 112.209 178.752 112.487C179.291 112.766 179.728 113.208 180 113.75C180.2 114.119 180.278 114.542 180.225 114.958C180.171 115.375 179.987 115.764 179.7 116.07C178.08 118.07 174.99 114.38 175.57 113.07C175.715 112.815 175.922 112.602 176.172 112.449C176.422 112.297 176.707 112.211 177 112.2Z" fill="#161A1D"/>
</g>
<g opacity="0.2">
<path d="M181.8 100.08C182.372 100.118 182.908 100.372 183.3 100.79C183.453 100.944 183.572 101.129 183.65 101.332C183.728 101.535 183.763 101.752 183.752 101.969C183.742 102.186 183.687 102.399 183.59 102.594C183.493 102.788 183.357 102.961 183.19 103.1C181.59 104.99 178.88 102.02 179.54 100.85C180 100.09 181.08 99.9999 181.8 100.08Z" fill="#161A1D"/>
</g>
<g opacity="0.2">
<path d="M177.61 105C177.185 105.146 176.72 105.124 176.31 104.94C176.152 104.873 176.008 104.775 175.89 104.651C175.771 104.526 175.679 104.379 175.62 104.217C175.561 104.056 175.536 103.884 175.546 103.712C175.556 103.541 175.602 103.373 175.68 103.22C176.27 101.36 179.15 102.7 179.03 103.75C179 104.39 178.15 104.77 177.61 105Z" fill="#161A1D"/>
</g>
<path d="M308.25 275.89L310.01 268.14C310.044 267.996 310.03 267.845 309.971 267.71C309.912 267.575 309.81 267.463 309.681 267.39C309.552 267.318 309.404 267.29 309.257 267.309C309.111 267.329 308.975 267.396 308.87 267.5L303.15 273C303.15 273 305 276.18 308.25 275.89Z" fill="#161A1D"/>
<g opacity="0.4">
<path d="M308.25 275.89L310.01 268.14C310.044 267.996 310.03 267.845 309.971 267.71C309.912 267.575 309.81 267.463 309.681 267.39C309.552 267.318 309.404 267.29 309.257 267.309C309.111 267.329 308.975 267.396 308.87 267.5L303.15 273C303.15 273 305 276.18 308.25 275.89Z" fill="white"/>
</g>
<path d="M313.09 290.89L316.41 290.24L318.07 289.92L320.9 289.36C321.046 289.336 321.18 289.264 321.28 289.155C321.381 289.047 321.443 288.908 321.457 288.761C321.47 288.614 321.435 288.466 321.356 288.341C321.277 288.216 321.159 288.121 321.02 288.07L317.41 286.6L313.64 285.08C313.64 285.08 311.53 288.06 313.09 290.89Z" fill="#161A1D"/>
<g opacity="0.4">
<path d="M313.09 290.89L316.41 290.24L318.07 289.92L320.9 289.36C321.046 289.336 321.18 289.264 321.28 289.155C321.381 289.047 321.443 288.908 321.457 288.761C321.47 288.614 321.435 288.466 321.356 288.341C321.277 288.216 321.159 288.121 321.02 288.07L317.41 286.6L313.64 285.08C313.64 285.08 311.53 288.06 313.09 290.89Z" fill="white"/>
</g>
<path d="M288.08 277.29L280.59 274.62C280.452 274.571 280.303 274.568 280.163 274.611C280.023 274.654 279.901 274.741 279.815 274.859C279.729 274.977 279.682 275.119 279.683 275.265C279.684 275.411 279.732 275.553 279.82 275.67L284.63 282.01C284.63 282.01 288 280.52 288.08 277.29Z" fill="#161A1D"/>
<g opacity="0.4">
<path d="M288.08 277.29L280.59 274.62C280.452 274.571 280.303 274.568 280.163 274.611C280.023 274.654 279.901 274.741 279.815 274.859C279.729 274.977 279.682 275.119 279.683 275.265C279.684 275.411 279.732 275.553 279.82 275.67L284.63 282.01C284.63 282.01 288 280.52 288.08 277.29Z" fill="white"/>
</g>
<path d="M311.82 285.78L318.37 281.27C318.503 281.194 318.606 281.076 318.664 280.934C318.721 280.793 318.729 280.636 318.686 280.489C318.644 280.342 318.553 280.214 318.428 280.125C318.304 280.037 318.153 279.992 318 280L310 280.19C310 280.19 309.26 283.82 311.82 285.78Z" fill="#161A1D"/>
<path opacity="0.4" d="M311.82 285.78L318.37 281.27C318.503 281.194 318.606 281.076 318.664 280.934C318.721 280.793 318.729 280.636 318.686 280.489C318.644 280.342 318.553 280.214 318.428 280.125C318.304 280.037 318.153 279.992 318 280L310 280.19C310 280.19 309.26 283.82 311.82 285.78Z" fill="white"/>
<path d="M290 296.06L287.89 303.73C287.853 303.87 287.862 304.019 287.915 304.153C287.968 304.288 288.063 304.403 288.186 304.48C288.309 304.557 288.453 304.593 288.598 304.582C288.742 304.571 288.88 304.514 288.99 304.42L294.99 299.15C294.99 299.15 293.22 295.93 290 296.06Z" fill="#161A1D"/>
<g opacity="0.4">
<path d="M290 296.06L287.89 303.73C287.853 303.87 287.862 304.019 287.915 304.153C287.968 304.288 288.063 304.403 288.186 304.48C288.309 304.557 288.453 304.593 288.598 304.582C288.742 304.571 288.88 304.514 288.99 304.42L294.99 299.15C294.99 299.15 293.22 295.93 290 296.06Z" fill="white"/>
</g>
<path d="M297.93 301.22L302.43 307.77C302.513 307.89 302.633 307.981 302.771 308.028C302.91 308.075 303.06 308.076 303.199 308.032C303.338 307.987 303.459 307.898 303.544 307.779C303.629 307.66 303.673 307.516 303.67 307.37L303.48 299.37C303.48 299.37 299.9 298.66 297.93 301.22Z" fill="#161A1D"/>
<g opacity="0.4">
<path d="M297.93 301.22L302.43 307.77C302.513 307.89 302.633 307.981 302.771 308.028C302.91 308.075 303.06 308.076 303.199 308.032C303.338 307.987 303.459 307.898 303.544 307.779C303.629 307.66 303.673 307.516 303.67 307.37L303.48 299.37C303.48 299.37 299.9 298.66 297.93 301.22Z" fill="white"/>
</g>
<path d="M277.24 289.23L283.79 290.5C284.009 291.313 284.297 292.106 284.65 292.87L280.95 296.51C280.848 296.612 280.781 296.745 280.759 296.888C280.737 297.03 280.762 297.177 280.828 297.305C280.895 297.433 281.001 297.537 281.131 297.601C281.261 297.664 281.408 297.685 281.55 297.66L287.01 296.57C287.478 297.111 287.982 297.619 288.52 298.09C289.336 298.796 290.22 299.419 291.16 299.95C293.823 301.44 296.866 302.111 299.908 301.877C302.95 301.644 305.856 300.518 308.26 298.64L308.62 298.35L309.11 297.93L309.17 297.87L310.5 298.21L313.3 298.93C313.441 298.969 313.592 298.96 313.727 298.905C313.863 298.85 313.977 298.752 314.052 298.626C314.127 298.5 314.159 298.353 314.142 298.207C314.125 298.062 314.061 297.926 313.96 297.82L311.52 295.14L311.57 295.07C311.8 294.73 312.01 294.38 312.21 294.02C313.72 291.331 314.392 288.253 314.138 285.179C313.885 282.106 312.718 279.179 310.788 276.774C308.859 274.369 306.254 272.596 303.308 271.683C300.363 270.77 297.212 270.758 294.26 271.65L291.69 268.1C291.604 267.981 291.482 267.894 291.343 267.85C291.203 267.806 291.053 267.809 290.915 267.857C290.777 267.905 290.658 267.997 290.576 268.118C290.494 268.239 290.453 268.384 290.46 268.53L290.69 273.23C290.27 273.48 289.87 273.76 289.47 274.05C287.682 275.389 286.204 277.098 285.136 279.06C284.067 281.022 283.435 283.191 283.28 285.42L277.11 287.94C276.977 287.997 276.866 288.095 276.793 288.22C276.72 288.344 276.688 288.489 276.703 288.633C276.717 288.776 276.777 288.912 276.874 289.019C276.97 289.126 277.099 289.2 277.24 289.23Z" fill="#161A1D"/>
<g opacity="0.5">
<path d="M277.24 289.23L283.79 290.5C284.009 291.313 284.297 292.106 284.65 292.87L280.95 296.51C280.848 296.612 280.781 296.745 280.759 296.888C280.737 297.03 280.762 297.177 280.828 297.305C280.895 297.433 281.001 297.537 281.131 297.601C281.261 297.664 281.408 297.685 281.55 297.66L287.01 296.57C287.478 297.111 287.982 297.619 288.52 298.09C289.336 298.796 290.22 299.419 291.16 299.95C293.823 301.44 296.866 302.111 299.908 301.877C302.95 301.644 305.856 300.518 308.26 298.64L308.62 298.35L309.11 297.93L309.17 297.87L310.5 298.21L313.3 298.93C313.441 298.969 313.592 298.96 313.727 298.905C313.863 298.85 313.977 298.752 314.052 298.626C314.127 298.5 314.159 298.353 314.142 298.207C314.125 298.062 314.061 297.926 313.96 297.82L311.52 295.14L311.57 295.07C311.8 294.73 312.01 294.38 312.21 294.02C313.72 291.331 314.392 288.253 314.138 285.179C313.885 282.106 312.718 279.179 310.788 276.774C308.859 274.369 306.254 272.596 303.308 271.683C300.363 270.77 297.212 270.758 294.26 271.65L291.69 268.1C291.604 267.981 291.482 267.894 291.343 267.85C291.203 267.806 291.053 267.809 290.915 267.857C290.777 267.905 290.658 267.997 290.576 268.118C290.494 268.239 290.453 268.384 290.46 268.53L290.69 273.23C290.27 273.48 289.87 273.76 289.47 274.05C287.682 275.389 286.204 277.098 285.136 279.06C284.067 281.022 283.435 283.191 283.28 285.42L277.11 287.94C276.977 287.997 276.866 288.095 276.793 288.22C276.72 288.344 276.688 288.489 276.703 288.633C276.717 288.776 276.777 288.912 276.874 289.019C276.97 289.126 277.099 289.2 277.24 289.23Z" fill="white"/>
</g>
<g opacity="0.5">
<path d="M290.27 281.14C289.289 282.892 288.85 284.895 289.007 286.897C289.165 288.898 289.913 290.808 291.156 292.384C292.4 293.961 294.083 295.133 295.992 295.753C297.902 296.373 299.952 296.413 301.885 295.867C303.817 295.321 305.544 294.215 306.847 292.688C308.15 291.16 308.971 289.281 309.206 287.287C309.441 285.293 309.08 283.274 308.167 281.486C307.255 279.697 305.832 278.22 304.08 277.24C302.917 276.588 301.638 276.172 300.314 276.016C298.991 275.859 297.649 275.965 296.366 276.327C295.084 276.689 293.885 277.301 292.839 278.127C291.793 278.952 290.92 279.976 290.27 281.14Z" fill="white"/>
</g>
<g opacity="0.2">
<path d="M301.41 279.07C302.52 278.13 304.32 278.71 305.74 279.89C306.45 280.52 307.025 281.289 307.429 282.148C307.833 283.008 308.058 283.941 308.09 284.89C308.57 289.11 305.35 294.74 300.8 294.09C296.25 293.44 297.8 289.09 301.15 288.5C304.5 287.91 304.78 283.56 301.82 281.38C300.5 280.41 300.74 279.63 301.41 279.07Z" fill="#161A1D"/>
</g>
<g opacity="0.2">
<path d="M298 282.13C298.795 282.076 299.591 282.203 300.33 282.5C301.33 282.93 302.42 283.78 301.8 285.43C300.8 287.97 297.27 285.43 295.58 287.36C293.58 289.61 289.96 287.69 291.03 285.23C292.1 282.77 296.26 282.25 298 282.13Z" fill="#161A1D"/>
</g>
<g opacity="0.2">
<path d="M293.55 289.32C294.15 289.228 294.763 289.329 295.302 289.607C295.841 289.886 296.278 290.328 296.55 290.87C296.751 291.238 296.831 291.66 296.779 292.077C296.727 292.493 296.546 292.883 296.26 293.19C294.63 295.19 291.54 291.49 292.12 290.19C292.265 289.935 292.472 289.722 292.722 289.569C292.972 289.417 293.257 289.331 293.55 289.32Z" fill="#161A1D"/>
</g>
<g opacity="0.2">
<path d="M298.38 277.2C298.951 277.234 299.487 277.484 299.88 277.9C300.033 278.055 300.153 278.241 300.231 278.445C300.309 278.648 300.343 278.866 300.333 279.084C300.323 279.302 300.267 279.515 300.171 279.711C300.074 279.906 299.937 280.08 299.77 280.22C298.17 282.11 295.46 279.14 296.12 277.97C296.54 277.2 297.66 277.15 298.38 277.2Z" fill="#161A1D"/>
</g>
<g opacity="0.2">
<path d="M294.19 282.07C293.765 282.216 293.3 282.194 292.89 282.01C292.731 281.944 292.588 281.845 292.47 281.721C292.351 281.596 292.259 281.449 292.2 281.287C292.141 281.126 292.116 280.954 292.126 280.782C292.136 280.611 292.182 280.443 292.26 280.29C292.85 278.43 295.73 279.77 295.61 280.82C295.53 281.5 294.73 281.88 294.19 282.07Z" fill="#161A1D"/>
</g>
<path d="M224.66 321.42L220.62 288.09L210.03 298.68L99.68 188.32L83.72 188.59L201.92 306.79L191.33 317.39L224.66 321.42Z" fill="#161A1D"/>
<path opacity="0.7" d="M224.66 321.42L220.62 288.09L210.03 298.68L99.68 188.32L83.72 188.59L201.92 306.79L191.33 317.39L224.66 321.42Z" fill="white"/>
<path d="M440.09 338.82L436.05 305.49L425.46 316.08L311.86 202.48L263.56 250.78L218.19 205.41L204.71 191.93L204.68 191.96L111.46 98.75H95.25L209.54 213.04L209.61 213.05L263.56 267L311.86 218.7L417.35 324.19L406.76 334.79L440.09 338.82Z" fill="#161A1D"/>
<path opacity="0.7" d="M440.09 338.82L436.05 305.49L425.46 316.08L311.86 202.48L263.56 250.78L218.19 205.41L204.71 191.93L204.68 191.96L111.46 98.75H95.25L209.54 213.04L209.61 213.05L263.56 267L311.86 218.7L417.35 324.19L406.76 334.79L440.09 338.82Z" fill="white"/>
<path d="M341.38 191.06L345.68 186.76L365.78 206.87L371.49 201.17L373.6 218.61L356.16 216.5L361.53 211.12L341.38 191.06Z" fill="#161A1D"/>
<path d="M184.29 230.98L188.59 226.68L208.7 246.79L214.4 241.09L216.51 258.53L199.07 256.42L204.44 251.04L184.29 230.98Z" fill="#161A1D"/>
<path d="M349.86 305.49L369.96 325.61L375.66 319.9L377.77 337.34L360.33 335.23L365.71 329.86L345.56 309.79L349.86 305.49Z" fill="#161A1D"/>
<path d="M328.93 105.74H224.24C222.296 105.74 220.72 107.316 220.72 109.26V170.66C220.72 172.604 222.296 174.18 224.24 174.18H328.93C330.874 174.18 332.45 172.604 332.45 170.66V109.26C332.45 107.316 330.874 105.74 328.93 105.74Z" fill="#161A1D"/>
<path opacity="0.7" d="M328.93 105.74H224.24C222.296 105.74 220.72 107.316 220.72 109.26V170.66C220.72 172.604 222.296 174.18 224.24 174.18H328.93C330.874 174.18 332.45 172.604 332.45 170.66V109.26C332.45 107.316 330.874 105.74 328.93 105.74Z" fill="white"/>
<path d="M246.99 123.44H237.33V162.86H246.99V123.44Z" fill="#161A1D"/>
<path d="M265.07 129.56H255.41V162.87H265.07V129.56Z" fill="#161A1D"/>
<path d="M265.07 129.56H255.41V162.87H265.07V129.56Z" fill="#161A1D"/>
<path opacity="0.3" d="M265.07 129.56H255.41V162.87H265.07V129.56Z" fill="white"/>
<path d="M283.16 135.68H273.5V162.87H283.16V135.68Z" fill="#161A1D"/>
<path d="M301.24 141.8H291.58V162.87H301.24V141.8Z" fill="#161A1D"/>
<path opacity="0.3" d="M301.24 141.8H291.58V162.87H301.24V141.8Z" fill="white"/>
<path d="M319.33 147.92H309.67V162.87H319.33V147.92Z" fill="#161A1D"/>
<path d="M325.03 163.36H230.79V117.07H231.79V162.36H325.03V163.36Z" fill="#263238"/>
<path d="M312.81 139.79L314.32 137.97L302.93 128.57L296.73 136.1L283.52 125.22L278.59 131.19L265.48 120.38L259.77 127.29L244.78 115.89L244.65 114.52L259.6 125.91L265.34 118.95L278.46 129.77L283.39 123.79L296.59 134.69L302.79 127.15L314.97 137.18L316.29 135.58L317.87 140.42L312.81 139.79Z" fill="#161A1D"/>
<path d="M114.13 138.554C116.336 129.332 110.648 120.067 101.425 117.861C92.2023 115.656 82.9379 121.344 80.7322 130.567C78.5266 139.789 84.215 149.054 93.4376 151.26C102.66 153.465 111.925 147.777 114.13 138.554Z" fill="#161A1D"/>
<g opacity="0.7">
<path d="M114.13 138.554C116.336 129.332 110.648 120.067 101.425 117.861C92.2023 115.656 82.9379 121.344 80.7322 130.567C78.5266 139.789 84.215 149.054 93.4376 151.26C102.66 153.465 111.925 147.777 114.13 138.554Z" fill="white"/>
</g>
<path d="M94.35 141.18C94.4537 140.44 94.8216 139.762 95.3857 139.271C95.9499 138.78 96.6723 138.51 97.42 138.51C98.1676 138.51 98.8901 138.78 99.4542 139.271C100.018 139.762 100.386 140.44 100.49 141.18C100.49 142.65 99.31 143.8 97.41 143.8C95.51 143.8 94.35 142.65 94.35 141.18ZM99.7 136.84H95.12L94.49 125.41H100.33L99.7 136.84Z" fill="#161A1D"/>
<path d="M97.43 152.09C93.9646 152.082 90.5793 151.047 87.7017 149.116C84.8242 147.185 82.5836 144.445 81.2629 141.241C79.9422 138.037 79.6008 134.513 80.2817 131.116C80.9626 127.718 82.6353 124.598 85.0885 122.15C87.5417 119.703 90.6653 118.037 94.0647 117.364C97.4641 116.691 100.987 117.04 104.188 118.368C107.388 119.696 110.124 121.943 112.048 124.825C113.973 127.707 115 131.095 115 134.56C114.997 136.865 114.541 139.146 113.656 141.275C112.772 143.403 111.477 145.336 109.846 146.964C108.214 148.592 106.278 149.882 104.148 150.762C102.017 151.641 99.7346 152.093 97.43 152.09ZM97.43 117.74C94.1033 117.74 90.8513 118.726 88.0853 120.575C85.3192 122.423 83.1634 125.05 81.8903 128.123C80.6172 131.197 80.2841 134.579 80.9331 137.841C81.5821 141.104 83.1841 144.101 85.5364 146.454C87.8887 148.806 90.8858 150.408 94.1485 151.057C97.4113 151.706 100.793 151.373 103.867 150.1C106.94 148.827 109.567 146.671 111.415 143.905C113.263 141.139 114.25 137.887 114.25 134.56C114.245 130.101 112.471 125.826 109.318 122.672C106.164 119.519 101.889 117.745 97.43 117.74Z" fill="#161A1D"/>
<path d="M110.09 146.22L116.09 148.13C116.159 148.151 116.232 148.151 116.301 148.13C116.37 148.109 116.431 148.068 116.476 148.012C116.521 147.956 116.549 147.888 116.555 147.816C116.561 147.745 116.545 147.673 116.51 147.61L113.13 141.7C112.36 143.357 111.334 144.882 110.09 146.22Z" fill="#161A1D"/>
<path d="M89.22 406.62L85.25 420.94L90.91 423.01L97.46 410.38L89.22 406.62Z" fill="#FF8B7B"/>
<path d="M89.5999 421.19C89.5999 421.19 92.3899 418.19 93.3599 418.88C94.3299 419.57 93.5899 423.88 93.5899 423.88C93.5899 423.88 98.8799 427.45 100.48 428C102.08 428.55 103.15 429.85 102.48 433.09L82.5699 427.56C82.5699 427.56 84.6999 420.41 85.0699 419.19C85.4399 417.97 86.7799 419.99 86.7799 419.99L89.5999 421.19Z" fill="#263238"/>
<path d="M146.93 263.29C145.82 267.72 144.76 278.47 143.47 290.99C142.58 299.58 141.59 308.99 140.4 317.78C138.9 329.02 137.08 339.21 134.77 345.25C126.65 366.54 96.7699 413.55 96.7699 413.55L87.3999 411C87.3999 411 105.52 359.8 107.52 354.05C109.52 348.3 117.77 326.55 117.71 303.8C117.65 281.05 119 260 119 260L146.93 263.29Z" fill="#263238"/>
<path opacity="0.2" d="M143.47 291C142.58 299.59 141.59 309 140.4 317.79C137.71 300.95 136.84 275.92 136.84 275.92L143.47 291Z" fill="black"/>
<path d="M86.5 411.06L97.47 414.11L99.25 410.83L87.22 407.33L86.5 411.06Z" fill="#161A1D"/>
<path d="M145.33 411.59V426.46L151.34 426.93L154.28 413.01L145.33 411.59Z" fill="#FF8B7B"/>
<path d="M149.59 425.53C149.59 425.53 151.48 421.91 152.59 422.3C153.7 422.69 154.16 427.08 154.16 427.08C154.16 427.08 160.22 429.08 161.91 429.21C163.6 429.34 164.97 430.28 165.18 433.58H144.51C144.51 433.58 144.65 426.12 144.69 424.84C144.73 423.56 146.55 425.16 146.55 425.16L149.59 425.53Z" fill="#263238"/>
<path d="M138.18 261.75C135.85 263.29 137.18 273.43 137.55 277.8C138.23 286.14 143.47 298.53 144.19 309.36C145.03 321.9 145.63 334.46 145.33 343.17C144.56 365.55 144.73 416.25 144.73 416.25H154.44C154.44 416.25 165.84 365.85 167.97 343.17C169.75 324.37 168.27 270.24 167.97 258.53L138.18 261.75Z" fill="#263238"/>
<path d="M143.89 416.6H155.28L156.12 412.96L143.59 412.81L143.89 416.6Z" fill="#161A1D"/>
<path d="M144.53 176.68L136.76 188.32C132.86 185.839 129.137 183.089 125.62 180.09C123.784 178.544 122.028 176.906 120.36 175.18C119.444 174.245 118.576 173.264 117.76 172.24C116.713 170.952 115.827 169.542 115.12 168.04L114.79 167.27V167.17C114.79 167.04 114.68 166.85 114.63 166.68C114.523 166.354 114.442 166.019 114.39 165.68C114.343 165.349 114.316 165.015 114.31 164.68C114.293 164.374 114.293 164.067 114.31 163.76C114.374 163.267 114.488 162.781 114.65 162.31C114.713 162.11 114.786 161.913 114.87 161.72C114.95 161.55 115.01 161.42 115.09 161.27L115.32 160.85L115.53 160.52C115.653 160.321 115.79 160.13 115.94 159.95C116.338 159.445 116.787 158.983 117.28 158.57C117.68 158.23 118.03 157.97 118.37 157.73C119.516 156.953 120.72 156.265 121.97 155.67C124.116 154.66 126.316 153.768 128.56 153C132.849 151.488 137.236 150.269 141.69 149.35L144.19 155.81C140.49 158.11 136.68 160.32 133.06 162.54C131.74 163.36 130.43 164.18 129.21 165L129.74 165.48C131.17 166.74 132.74 168 134.41 169.26C137.68 171.74 141.22 174.26 144.53 176.68Z" fill="#161A1D"/>
<path d="M170.39 155C171.558 156.807 172.967 158.446 174.58 159.87C174.2 160.279 173.733 160.599 173.215 160.807C172.696 161.014 172.138 161.104 171.58 161.07L170.39 155Z" fill="#FF5652"/>
<path d="M166.79 150.8C166.693 150.796 166.6 150.757 166.53 150.69C166.46 150.617 166.421 150.521 166.421 150.42C166.421 150.319 166.46 150.223 166.53 150.15C166.934 149.693 167.442 149.338 168.011 149.115C168.579 148.893 169.192 148.809 169.8 148.87C169.901 148.889 169.99 148.947 170.05 149.031C170.11 149.115 170.135 149.218 170.12 149.32C170.101 149.42 170.042 149.509 169.958 149.567C169.874 149.625 169.771 149.648 169.67 149.63C169.193 149.579 168.71 149.643 168.263 149.817C167.816 149.991 167.417 150.27 167.1 150.63C167.064 150.68 167.018 150.721 166.964 150.75C166.911 150.78 166.851 150.797 166.79 150.8Z" fill="#263238"/>
<path d="M152.87 160.34C151.59 166.26 148.36 176.72 142.97 178.72C142.97 178.72 142.08 184.9 152.23 189.26C163.38 194.06 159.94 186.02 159.94 186.02C154.47 181.94 156.57 177.5 159.46 173.71L152.87 160.34Z" fill="#FF8B7B"/>
<path d="M144.53 173.54C144.53 173.54 148.38 170.62 149.94 170.75C151.5 170.88 158.33 175.31 158.33 175.31L158.39 177.47L144.53 173.54Z" fill="#161A1D"/>
<path d="M148.19 156.9C150.29 164.68 151.12 169.34 155.92 172.57C163.16 177.43 172.15 171.83 172.42 163.57C172.66 156.14 169.19 144.66 160.84 143.11C158.998 142.758 157.097 142.883 155.318 143.473C153.538 144.063 151.938 145.097 150.671 146.479C149.404 147.861 148.51 149.543 148.076 151.367C147.642 153.191 147.681 155.096 148.19 156.9Z" fill="#FF8B7B"/>
<path d="M168.85 145.14C165.69 151.73 169.08 153.21 168.39 155.9C167.7 158.59 164.52 153.48 163.39 160C162.26 166.52 154.25 169.64 154.25 169.64C153.635 169.224 152.942 168.938 152.213 168.798C151.484 168.659 150.735 168.67 150.01 168.83C129.66 153.29 144.57 146.61 144.57 146.61C144.57 146.61 144.63 143.17 149.15 141.12C154.27 138.8 154.15 141.26 159.4 139.55C164.65 137.84 169.75 134.17 171.8 138.69C172.9 141.19 168.85 145.14 168.85 145.14Z" fill="#263238"/>
<path d="M161.44 157.21C161.968 159.142 163.122 160.844 164.72 162.05C166.83 163.62 168.41 162.05 168.26 159.68C168.12 157.53 166.85 154.11 164.52 153.48C162.19 152.85 160.83 154.87 161.44 157.21Z" fill="#FF8B7B"/>
<path d="M170.39 263.38C149.17 281.74 115.77 263.38 115.77 263.38C119.84 213.28 122.05 187.38 128.69 178.26C131.49 174.4 135.96 172.56 141.69 173.18C160.95 175.28 167.5 182.42 169.16 190.57C169.402 191.814 169.549 193.074 169.6 194.34C169.87 200.87 167.86 207.65 167.33 212.73C166.09 224.15 170.39 263.38 170.39 263.38Z" fill="#161A1D"/>
<path opacity="0.2" d="M169.56 194.34C165.97 193.46 162.17 192.11 162.17 192.11L169.17 190.57C169.395 191.815 169.526 193.075 169.56 194.34Z" fill="black"/>
<path d="M202.22 171.3C202.251 172.038 202.187 172.778 202.03 173.5C201.772 174.592 201.325 175.631 200.71 176.57C199.915 177.762 198.951 178.833 197.85 179.75C197.02 180.472 196.145 181.14 195.23 181.75C193.632 182.81 191.961 183.756 190.23 184.58C186.997 186.151 183.655 187.488 180.23 188.58C176.847 189.679 173.396 190.558 169.9 191.21C168.13 191.55 166.32 191.79 164.45 191.97C162.44 192.178 160.415 192.208 158.4 192.06L159.26 178.06C160.33 178.06 161.7 178 163.09 177.87C164.48 177.74 165.96 177.49 167.44 177.25C170.39 176.75 173.44 176.11 176.37 175.35C179.298 174.612 182.185 173.721 185.02 172.68C186.38 172.17 187.69 171.6 188.82 171.04L189.39 170.74C188.97 170.27 188.49 169.74 188 169.29C185.773 167.109 183.437 165.043 181 163.1C176 159.1 170.75 155.1 165.5 151.3L169.03 145.3C175.085 148.26 180.982 151.531 186.7 155.1C189.663 156.939 192.521 158.942 195.26 161.1C196.825 162.336 198.271 163.715 199.58 165.22C199.994 165.715 200.374 166.236 200.72 166.78C201.209 167.529 201.595 168.339 201.87 169.19C201.963 169.489 202.04 169.793 202.1 170.1C202.163 170.497 202.203 170.898 202.22 171.3Z" fill="#161A1D"/>
<path d="M168.85 145.62C167.876 144.111 166.676 142.762 165.29 141.62C163.478 140.474 161.35 139.928 159.21 140.06C156.61 140.06 156.03 143.77 157.32 144.5C158.61 145.23 159.32 147.14 160.11 147.96C160.9 148.78 164.63 151.73 165.85 151.19C167.07 150.65 168.85 145.62 168.85 145.62Z" fill="#FF8B7B"/>
<path d="M144.71 145.7C144.746 147.367 144.509 149.029 144.01 150.62C143.27 152.87 140.67 155.01 139.49 155.24C138.31 155.47 138.38 152.51 139.74 149.3C141.46 145.22 144.71 145.7 144.71 145.7Z" fill="#FF8B7B"/>
<path d="M166.08 150.82C166.08 150.82 162.86 151.55 160.91 150.82C158.96 150.09 157.54 149.45 158.82 148.97C160.231 148.663 161.681 148.569 163.12 148.69L166.08 150.82Z" fill="#FF8B7B"/>
</svg>
