<svg width="500" height="500" viewBox="0 0 500 500" fill="none" xmlns="http://www.w3.org/2000/svg">
<g filter="url(#filter0_d_101_545)">
<path d="M245.18 423.71C352.263 423.71 439.07 418.642 439.07 412.39C439.07 406.138 352.263 401.07 245.18 401.07C138.098 401.07 51.29 406.138 51.29 412.39C51.29 418.642 138.098 423.71 245.18 423.71Z" fill="#F5F5F5"/>
<path d="M396.51 241.47C389.43 241.47 381.07 228.54 373.69 217.12C368.85 209.64 364.15 202.37 359.15 197.12H375.7V189.12H355.4C359.03 184.98 362.47 179.67 366 174.22C371.54 165.64 378.44 154.97 383.71 154.97H399.23V146.97H383.71C374.08 146.97 366.89 158.1 359.28 169.88C353.74 178.45 346.84 189.12 341.56 189.12H164.42C159.15 189.12 152.25 178.45 146.71 169.88C139.09 158.1 131.9 147 122.28 147H106.75V155H122.28C127.55 155 134.45 165.67 139.99 174.25C143.51 179.7 146.99 185.01 150.58 189.15H78.6799V197.15H159.34C154.34 202.4 149.63 209.67 144.8 217.15C137.42 228.56 129.06 241.5 121.98 241.5H92.5599V249.5H122C133.43 249.5 142.23 235.9 151.53 221.5C158.91 210.08 167.27 197.15 174.35 197.15H344.15C351.23 197.15 359.59 210.08 366.97 221.5C376.28 235.9 385.07 249.5 396.51 249.5H425.93V241.5L396.51 241.47Z" fill="#263238"/>
<g opacity="0.4">
<path d="M351.72 195.21L351.3 195.83C357.19 199.89 362.77 208.09 368.92 217.59L369.55 217.18C363.35 207.61 357.73 199.35 351.72 195.21Z" fill="white"/>
<path d="M377.34 229L376.72 229.43C379.338 233.393 382.354 237.079 385.72 240.43L386.23 239.88C382.901 236.568 379.922 232.922 377.34 229Z" fill="white"/>
<path d="M370.83 220.55C372.13 222.55 373.42 224.55 374.72 226.47L375.34 226.05C374.05 224.12 372.76 222.13 371.46 220.14L370.83 220.55Z" fill="white"/>
<path d="M389 242L388.56 242.6C390.834 244.435 393.64 245.487 396.56 245.6H416.4V244.85H396.51C393.767 244.725 391.136 243.726 389 242Z" fill="white"/>
<path d="M425.93 244.88H419.93V245.63H425.93V244.88Z" fill="white"/>
<path d="M84.6799 192.53H78.6799V193.28H84.6799V192.53Z" fill="white"/>
<path d="M113.76 192.53H90.49V193.28H113.76V192.53Z" fill="white"/>
<path d="M119.58 192.53V193.28H166.11V192.53H164.42C162.476 192.47 160.596 191.829 159.02 190.69L158.61 191.32C159.317 191.792 160.067 192.197 160.85 192.53H119.58Z" fill="white"/>
<path d="M311.53 192.53H288.26V193.28H311.53V192.53Z" fill="white"/>
<path d="M363.88 193.28V192.53H345.14C345.921 192.195 346.671 191.79 347.38 191.32L346.96 190.69C345.385 191.831 343.504 192.472 341.56 192.53H317.35V193.28H344.15C345.571 193.293 346.975 193.589 348.28 194.15L348.57 193.46L348.07 193.28H363.88Z" fill="white"/>
<path d="M282.44 192.53H270.81V193.28H282.44V192.53Z" fill="white"/>
<path d="M264.99 192.53H218.46V193.28H264.99V192.53Z" fill="white"/>
<path d="M375.7 192.53H369.7V193.28H375.7V192.53Z" fill="white"/>
<path d="M361.28 174.62L360.65 174.21C357.53 179 353.9 184.4 350.25 187.99L350.77 188.52C354.48 184.88 358.14 179.44 361.28 174.62Z" fill="white"/>
<path d="M383.71 151.13H388.89V150.38H383.71C376.07 150.38 369.13 161.1 363.01 170.56L363.64 170.97C369.66 161.67 376.48 151.13 383.71 151.13Z" fill="white"/>
<path d="M399.23 150.38H393.23V151.13H399.23V150.38Z" fill="white"/>
<path d="M155.74 188C152.08 184.41 148.45 179 145.34 174.22L144.71 174.63C147.85 179.45 151.51 184.89 155.21 188.53L155.74 188Z" fill="white"/>
<path d="M142.35 171L142.98 170.59C136.85 161.13 129.91 150.41 122.28 150.41H117.09V151.16H122.28C129.5 151.13 136.33 161.67 142.35 171Z" fill="white"/>
<path d="M112.75 150.38H106.75V151.13H112.75V150.38Z" fill="white"/>
<path d="M189.38 192.53H187.61V193.28H189.38H193.61H212.65V192.53H193.61H189.38Z" fill="white"/>
<path d="M148.94 217.18L149.57 217.59C155.72 208.09 161.29 199.89 167.19 195.83L166.76 195.21C160.75 199.35 155.13 207.61 148.94 217.18Z" fill="white"/>
<path d="M174.33 192.53H171.93V192.82C171.246 192.976 170.577 193.19 169.93 193.46L170.22 194.15C171.526 193.591 172.929 193.295 174.35 193.28H184.09V192.53H174.35H174.33Z" fill="white"/>
<path d="M122 244.88H102.14V245.63H122C124.92 245.519 127.727 244.466 130 242.63L129.56 242.03C127.411 243.766 124.76 244.765 122 244.88Z" fill="white"/>
<path d="M143.14 226.05L143.77 226.47C145.06 224.53 146.36 222.54 147.65 220.55L147.02 220.14C145.73 222.13 144.44 224.12 143.14 226.05Z" fill="white"/>
<path d="M132.21 239.8L132.73 240.35C136.099 237.001 139.115 233.315 141.73 229.35L141.12 228.92C138.532 232.843 135.546 236.489 132.21 239.8Z" fill="white"/>
<path d="M98.5598 244.88H92.5598V245.63H98.5598V244.88Z" fill="white"/>
</g>
<path d="M122.32 226.15H115C114.151 226.151 113.315 226.361 112.567 226.762C111.818 227.164 111.181 227.743 110.71 228.45L109.64 230.07C109.21 230.719 108.626 231.252 107.941 231.62C107.255 231.988 106.488 232.181 105.71 232.18H86.78C86.376 232.18 85.9759 232.26 85.6028 232.415C85.2297 232.57 84.8908 232.797 84.6056 233.083C84.3204 233.369 84.0945 233.709 83.9408 234.082C83.7871 234.456 83.7087 234.856 83.71 235.26V264.79H126.36V232.18L125.98 229.35C125.861 228.464 125.425 227.651 124.751 227.062C124.078 226.474 123.214 226.149 122.32 226.15Z" fill="#161A1D"/>
<path opacity="0.2" d="M122.32 226.15H115C114.151 226.151 113.315 226.361 112.567 226.762C111.818 227.164 111.181 227.743 110.71 228.45L109.64 230.07C109.21 230.719 108.626 231.252 107.941 231.62C107.255 231.988 106.488 232.181 105.71 232.18H86.78C86.376 232.18 85.9759 232.26 85.6028 232.415C85.2297 232.57 84.8908 232.797 84.6056 233.083C84.3204 233.369 84.0945 233.709 83.9408 234.082C83.7871 234.456 83.7087 234.856 83.71 235.26V264.79H126.36V232.18L125.98 229.35C125.861 228.464 125.425 227.651 124.751 227.062C124.078 226.474 123.214 226.149 122.32 226.15Z" fill="white"/>
<path d="M123.16 235.92H86.9099V260.71H123.16V235.92Z" fill="#263238"/>
<path opacity="0.9" d="M123.16 235.92H86.9099V260.71H123.16V235.92Z" fill="white"/>
<path d="M126.36 264.79H83.71L77.45 242C77.3411 241.597 77.3263 241.175 77.4068 240.765C77.4873 240.356 77.6609 239.971 77.9142 239.639C78.1675 239.307 78.4936 239.039 78.8675 238.853C79.2413 238.668 79.6528 238.571 80.07 238.57H115.07C116.26 238.573 117.417 238.966 118.363 239.688C119.31 240.41 119.993 241.423 120.31 242.57L126.36 264.79Z" fill="#161A1D"/>
<path opacity="0.6" d="M126.36 264.79H83.71L77.45 242C77.3411 241.597 77.3263 241.175 77.4068 240.765C77.4873 240.356 77.6609 239.971 77.9142 239.639C78.1675 239.307 78.4936 239.039 78.8675 238.853C79.2413 238.668 79.6528 238.571 80.07 238.57H115.07C116.26 238.573 117.417 238.966 118.363 239.688C119.31 240.41 119.993 241.423 120.31 242.57L126.36 264.79Z" fill="white"/>
<path d="M75.2001 117.57H83.1101C84.0264 117.57 84.9286 117.796 85.7364 118.229C86.5442 118.662 87.2325 119.287 87.7401 120.05L88.8901 121.8C89.3567 122.5 89.9886 123.074 90.7298 123.472C91.4711 123.869 92.2989 124.078 93.1401 124.08H113.55C114.428 124.08 115.27 124.429 115.891 125.05C116.511 125.67 116.86 126.512 116.86 127.39V156.55C116.86 157.269 116.575 157.958 116.066 158.466C115.558 158.975 114.869 159.26 114.15 159.26H73.5601C72.8414 159.26 72.1521 158.975 71.6438 158.466C71.1356 157.958 70.8501 157.269 70.8501 156.55V124.08L71.2601 121.02C71.3923 120.067 71.8634 119.194 72.587 118.561C73.3106 117.927 74.2383 117.575 75.2001 117.57Z" fill="#161A1D"/>
<path opacity="0.6" d="M75.2001 117.57H83.1101C84.0264 117.57 84.9286 117.796 85.7364 118.229C86.5442 118.662 87.2325 119.287 87.7401 120.05L88.8901 121.8C89.3567 122.5 89.9886 123.074 90.7298 123.472C91.4711 123.869 92.2989 124.078 93.1401 124.08H113.55C114.428 124.08 115.27 124.429 115.891 125.05C116.511 125.67 116.86 126.512 116.86 127.39V156.55C116.86 157.269 116.575 157.958 116.066 158.466C115.558 158.975 114.869 159.26 114.15 159.26H73.5601C72.8414 159.26 72.1521 158.975 71.6438 158.466C71.1356 157.958 70.8501 157.269 70.8501 156.55V124.08L71.2601 121.02C71.3923 120.067 71.8634 119.194 72.587 118.561C73.3106 117.927 74.2383 117.575 75.2001 117.57Z" fill="white"/>
<path d="M108.59 124.08H104.5V152.41H108.59V124.08Z" fill="#263238"/>
<path opacity="0.5" d="M108.59 124.08H104.5V152.41H108.59V124.08Z" fill="white"/>
<path d="M106.67 125.43H103.53V127.76H106.67V125.43Z" fill="#263238"/>
<path d="M106.67 130.51H103.53V132.84H106.67V130.51Z" fill="#263238"/>
<path d="M106.67 135.59H103.53V137.92H106.67V135.59Z" fill="#263238"/>
<path d="M106.67 140.67H103.53V143H106.67V140.67Z" fill="#263238"/>
<path d="M106.67 145.75H103.53V148.08H106.67V145.75Z" fill="#263238"/>
<path opacity="0.7" d="M106.67 125.43H103.53V127.76H106.67V125.43Z" fill="white"/>
<path opacity="0.7" d="M106.67 130.51H103.53V132.84H106.67V130.51Z" fill="white"/>
<path opacity="0.7" d="M106.67 135.59H103.53V137.92H106.67V135.59Z" fill="white"/>
<path opacity="0.7" d="M106.67 140.67H103.53V143H106.67V140.67Z" fill="white"/>
<path opacity="0.7" d="M106.67 145.75H103.53V148.08H106.67V145.75Z" fill="white"/>
<path d="M109.71 127.76H106.57V130.09H109.71V127.76Z" fill="#263238"/>
<path d="M109.71 132.84H106.57V135.17H109.71V132.84Z" fill="#263238"/>
<path d="M109.71 137.92H106.57V140.25H109.71V137.92Z" fill="#263238"/>
<path d="M109.71 143H106.57V145.33H109.71V143Z" fill="#263238"/>
<path d="M109.71 148.08H106.57V150.41H109.71V148.08Z" fill="#263238"/>
<g opacity="0.8">
<path d="M109.71 127.76H106.57V130.09H109.71V127.76Z" fill="white"/>
<path d="M109.71 132.84H106.57V135.17H109.71V132.84Z" fill="white"/>
<path d="M109.71 137.92H106.57V140.25H109.71V137.92Z" fill="white"/>
<path d="M109.71 143H106.57V145.33H109.71V143Z" fill="white"/>
<path d="M109.71 148.08H106.57V150.41H109.71V148.08Z" fill="white"/>
</g>
<path d="M102.17 150.42V159.71H111.17V150.42H102.17ZM109.72 158.02H103.72V152.1H109.72V158.02Z" fill="#263238"/>
<path opacity="0.7" d="M102.17 150.42V159.71H111.17V150.42H102.17ZM109.72 158.02H103.72V152.1H109.72V158.02Z" fill="white"/>
<path d="M104.7 171.15H63.01V180.44L72.29 189.72H113.97V180.43L104.7 171.15Z" fill="#161A1D"/>
<path opacity="0.3" d="M104.7 171.15H63.01V180.44L72.29 189.72H113.97V180.43L104.7 171.15Z" fill="white"/>
<path d="M113.98 189.71H72.29V199H113.98V189.71Z" fill="#161A1D"/>
<path opacity="0.3" d="M113.98 189.71H72.29V199H113.98V189.71Z" fill="white"/>
<path d="M113.98 199H72.29V208.29H113.98V199Z" fill="#161A1D"/>
<path opacity="0.6" d="M113.98 199H72.29V208.29H113.98V199Z" fill="white"/>
<path d="M113.98 180.43H72.29V189.72H113.98V180.43Z" fill="#161A1D"/>
<path d="M88.01 208.29H97.37V180.43L88.09 171.15H78.73L88.01 180.43V208.29Z" fill="#161A1D"/>
<path opacity="0.2" d="M88.01 208.29H97.37V180.43L88.09 171.15H78.73L88.01 180.43V208.29Z" fill="black"/>
<path d="M85.52 187.07V201.65H99.64V187.07H85.52ZM97.37 199H88V189.71H97.36L97.37 199Z" fill="#263238"/>
<path opacity="0.5" d="M85.52 187.07V201.65H99.64V187.07H85.52ZM97.37 199H88V189.71H97.36L97.37 199Z" fill="white"/>
<path d="M63.01 171.15V180.44L72.29 189.72V180.43L63.01 171.15Z" fill="#263238"/>
<path opacity="0.5" d="M63.01 171.15V180.44L72.29 189.72V180.43L63.01 171.15Z" fill="white"/>
<path d="M63.01 180.43V189.73L72.29 199V189.71L63.01 180.43Z" fill="#263238"/>
<path opacity="0.6" d="M63.01 180.43V189.73L72.29 199V189.71L63.01 180.43Z" fill="white"/>
<path d="M63.01 189.72V199.01L72.29 208.29V199L63.01 189.72Z" fill="#263238"/>
<path opacity="0.8" d="M63.01 189.72V199.01L72.29 208.29V199L63.01 189.72Z" fill="white"/>
<path d="M433.94 213.89H388.48V275.07H433.94V213.89Z" fill="#161A1D"/>
<path opacity="0.7" d="M433.94 213.89H388.48V275.07H433.94V213.89Z" fill="white"/>
<path opacity="0.7" d="M430.97 216.86H391.45V232.79H430.97V216.86Z" fill="white"/>
<path opacity="0.7" d="M430.97 236.51H391.45V252.44H430.97V236.51Z" fill="white"/>
<path d="M430.97 225.45L427.28 220.96L422.73 226.51L418.18 219.97L413.35 224.8L408.61 222.13L404.29 229.29L399.98 222.13L395.09 224.9L391.45 222.84V224.54L395.09 226.6L399.46 224.13L404.29 232.17L409.13 224.13L413.6 226.65L417.97 222.27L422.63 228.97L427.28 223.3L430.97 227.79V225.45Z" fill="#161A1D"/>
<path opacity="0.5" d="M430.97 225.45L427.28 220.96L422.73 226.51L418.18 219.97L413.35 224.8L408.61 222.13L404.29 229.29L399.98 222.13L395.09 224.9L391.45 222.84V224.54L395.09 226.6L399.46 224.13L404.29 232.17L409.13 224.13L413.6 226.65L417.97 222.27L422.63 228.97L427.28 223.3L430.97 227.79V225.45Z" fill="white"/>
<path d="M430.97 241.35L427.25 243.45L422.36 240.68L418.05 247.84L413.74 240.69L409 243.35L404.17 238.52L399.62 245.06L395.06 239.51L391.45 243.92V246.26L395.06 241.85L399.71 247.52L404.37 240.82L408.74 245.2L413.21 242.69L418.05 250.72L422.89 242.69L427.25 245.15L430.97 243.06V241.35Z" fill="#161A1D"/>
<path opacity="0.5" d="M430.97 241.35L427.25 243.45L422.36 240.68L418.05 247.84L413.74 240.69L409 243.35L404.17 238.52L399.62 245.06L395.06 239.51L391.45 243.92V246.26L395.06 241.85L399.71 247.52L404.37 240.82L408.74 245.2L413.21 242.69L418.05 250.72L422.89 242.69L427.25 245.15L430.97 243.06V241.35Z" fill="white"/>
<path d="M407.77 256.91H430.41C430.606 256.91 430.795 256.832 430.933 256.693C431.072 256.554 431.15 256.366 431.15 256.17C431.15 255.974 431.072 255.785 430.933 255.647C430.795 255.508 430.606 255.43 430.41 255.43H407.77C407.574 255.43 407.386 255.508 407.247 255.647C407.108 255.785 407.03 255.974 407.03 256.17C407.03 256.366 407.108 256.554 407.247 256.693C407.386 256.832 407.574 256.91 407.77 256.91Z" fill="#263238"/>
<path d="M407.77 261H427.44C427.623 260.979 427.791 260.891 427.914 260.754C428.036 260.616 428.104 260.439 428.104 260.255C428.104 260.071 428.036 259.894 427.914 259.756C427.791 259.619 427.623 259.531 427.44 259.51H407.77C407.587 259.531 407.419 259.619 407.296 259.756C407.174 259.894 407.106 260.071 407.106 260.255C407.106 260.439 407.174 260.616 407.296 260.754C407.419 260.891 407.587 260.979 407.77 261Z" fill="#263238"/>
<path d="M407.77 265H427.44C427.623 264.979 427.791 264.891 427.914 264.754C428.036 264.616 428.104 264.439 428.104 264.255C428.104 264.071 428.036 263.894 427.914 263.756C427.791 263.619 427.623 263.531 427.44 263.51H407.77C407.587 263.531 407.419 263.619 407.296 263.756C407.174 263.894 407.106 264.071 407.106 264.255C407.106 264.439 407.174 264.616 407.296 264.754C407.419 264.891 407.587 264.979 407.77 265Z" fill="#263238"/>
<path d="M407.77 269H428.43C428.626 269 428.815 268.922 428.953 268.783C429.092 268.645 429.17 268.456 429.17 268.26C429.17 268.064 429.092 267.876 428.953 267.737C428.815 267.598 428.626 267.52 428.43 267.52H407.77C407.574 267.52 407.386 267.598 407.247 267.737C407.108 267.876 407.03 268.064 407.03 268.26C407.03 268.456 407.108 268.645 407.247 268.783C407.386 268.922 407.574 269 407.77 269Z" fill="#263238"/>
<g opacity="0.4">
<path d="M407.77 256.91H430.41C430.606 256.91 430.795 256.832 430.933 256.693C431.072 256.554 431.15 256.366 431.15 256.17C431.15 255.974 431.072 255.785 430.933 255.647C430.795 255.508 430.606 255.43 430.41 255.43H407.77C407.574 255.43 407.386 255.508 407.247 255.647C407.108 255.785 407.03 255.974 407.03 256.17C407.03 256.366 407.108 256.554 407.247 256.693C407.386 256.832 407.574 256.91 407.77 256.91Z" fill="white"/>
<path d="M407.77 261H427.44C427.623 260.979 427.791 260.891 427.914 260.754C428.036 260.616 428.104 260.439 428.104 260.255C428.104 260.071 428.036 259.894 427.914 259.756C427.791 259.619 427.623 259.531 427.44 259.51H407.77C407.587 259.531 407.419 259.619 407.296 259.756C407.174 259.894 407.106 260.071 407.106 260.255C407.106 260.439 407.174 260.616 407.296 260.754C407.419 260.891 407.587 260.979 407.77 261Z" fill="white"/>
<path d="M407.77 265H427.44C427.623 264.979 427.791 264.891 427.914 264.754C428.036 264.616 428.104 264.439 428.104 264.255C428.104 264.071 428.036 263.894 427.914 263.756C427.791 263.619 427.623 263.531 427.44 263.51H407.77C407.587 263.531 407.419 263.619 407.296 263.756C407.174 263.894 407.106 264.071 407.106 264.255C407.106 264.439 407.174 264.616 407.296 264.754C407.419 264.891 407.587 264.979 407.77 265Z" fill="white"/>
<path d="M407.77 269H428.43C428.626 269 428.815 268.922 428.953 268.783C429.092 268.645 429.17 268.456 429.17 268.26C429.17 268.064 429.092 267.876 428.953 267.737C428.815 267.598 428.626 267.52 428.43 267.52H407.77C407.574 267.52 407.386 267.598 407.247 267.737C407.108 267.876 407.03 268.064 407.03 268.26C407.03 268.456 407.108 268.645 407.247 268.783C407.386 268.922 407.574 269 407.77 269Z" fill="white"/>
</g>
<path d="M431.61 119.78H390.28V175.4H431.61V119.78Z" fill="#161A1D"/>
<path opacity="0.6" d="M431.61 119.78H390.28V175.4H431.61V119.78Z" fill="white"/>
<path opacity="0.7" d="M428.91 122.48H392.98V136.96H428.91V122.48Z" fill="white"/>
<path d="M407.93 141.31H428.52C428.685 141.29 428.837 141.21 428.947 141.086C429.057 140.961 429.118 140.801 429.118 140.635C429.118 140.469 429.057 140.309 428.947 140.184C428.837 140.06 428.685 139.98 428.52 139.96H407.93C407.765 139.98 407.613 140.06 407.503 140.184C407.393 140.309 407.332 140.469 407.332 140.635C407.332 140.801 407.393 140.961 407.503 141.086C407.613 141.21 407.765 141.29 407.93 141.31Z" fill="#263238"/>
<path d="M407.93 145H425.82C425.985 144.98 426.137 144.9 426.247 144.776C426.357 144.651 426.418 144.491 426.418 144.325C426.418 144.159 426.357 143.998 426.247 143.874C426.137 143.75 425.985 143.67 425.82 143.65H407.93C407.765 143.67 407.613 143.75 407.503 143.874C407.393 143.998 407.332 144.159 407.332 144.325C407.332 144.491 407.393 144.651 407.503 144.776C407.613 144.9 407.765 144.98 407.93 145Z" fill="#263238"/>
<path d="M407.93 148.66H425.82C425.985 148.64 426.137 148.56 426.247 148.436C426.357 148.312 426.418 148.151 426.418 147.985C426.418 147.819 426.357 147.659 426.247 147.534C426.137 147.41 425.985 147.33 425.82 147.31H407.93C407.765 147.33 407.613 147.41 407.503 147.534C407.393 147.659 407.332 147.819 407.332 147.985C407.332 148.151 407.393 148.312 407.503 148.436C407.613 148.56 407.765 148.64 407.93 148.66Z" fill="#263238"/>
<path d="M407.93 152.34H426.72C426.885 152.32 427.037 152.24 427.147 152.116C427.257 151.991 427.318 151.831 427.318 151.665C427.318 151.499 427.257 151.339 427.147 151.214C427.037 151.09 426.885 151.01 426.72 150.99H407.93C407.765 151.01 407.613 151.09 407.503 151.214C407.393 151.339 407.332 151.499 407.332 151.665C407.332 151.831 407.393 151.991 407.503 152.116C407.613 152.24 407.765 152.32 407.93 152.34Z" fill="#263238"/>
<path d="M407.93 156H423.12C423.285 155.98 423.437 155.9 423.547 155.776C423.657 155.651 423.718 155.491 423.718 155.325C423.718 155.159 423.657 154.998 423.547 154.874C423.437 154.75 423.285 154.67 423.12 154.65H407.93C407.765 154.67 407.613 154.75 407.503 154.874C407.393 154.998 407.332 155.159 407.332 155.325C407.332 155.491 407.393 155.651 407.503 155.776C407.613 155.9 407.765 155.98 407.93 156Z" fill="#263238"/>
<path d="M407.93 159.69H428.52C428.685 159.67 428.837 159.59 428.947 159.466C429.057 159.342 429.118 159.181 429.118 159.015C429.118 158.849 429.057 158.689 428.947 158.564C428.837 158.44 428.685 158.36 428.52 158.34H407.93C407.765 158.36 407.613 158.44 407.503 158.564C407.393 158.689 407.332 158.849 407.332 159.015C407.332 159.181 407.393 159.342 407.503 159.466C407.613 159.59 407.765 159.67 407.93 159.69Z" fill="#263238"/>
<path d="M407.93 163.36H425.82C425.985 163.34 426.137 163.26 426.247 163.136C426.357 163.011 426.418 162.851 426.418 162.685C426.418 162.519 426.357 162.359 426.247 162.234C426.137 162.11 425.985 162.03 425.82 162.01H407.93C407.765 162.03 407.613 162.11 407.503 162.234C407.393 162.359 407.332 162.519 407.332 162.685C407.332 162.851 407.393 163.011 407.503 163.136C407.613 163.26 407.765 163.34 407.93 163.36Z" fill="#263238"/>
<path d="M407.93 167H425.82C425.985 166.98 426.137 166.9 426.247 166.776C426.357 166.651 426.418 166.491 426.418 166.325C426.418 166.159 426.357 165.998 426.247 165.874C426.137 165.75 425.985 165.67 425.82 165.65H407.93C407.765 165.67 407.613 165.75 407.503 165.874C407.393 165.998 407.332 166.159 407.332 166.325C407.332 166.491 407.393 166.651 407.503 166.776C407.613 166.9 407.765 166.98 407.93 167Z" fill="#263238"/>
<path d="M407.93 170.71H426.72C426.885 170.69 427.037 170.61 427.147 170.486C427.257 170.362 427.318 170.201 427.318 170.035C427.318 169.869 427.257 169.709 427.147 169.584C427.037 169.46 426.885 169.38 426.72 169.36H407.93C407.765 169.38 407.613 169.46 407.503 169.584C407.393 169.709 407.332 169.869 407.332 170.035C407.332 170.201 407.393 170.362 407.503 170.486C407.613 170.61 407.765 170.69 407.93 170.71Z" fill="#263238"/>
<g opacity="0.4">
<path d="M407.93 141.31H428.52C428.685 141.29 428.837 141.21 428.947 141.086C429.057 140.961 429.118 140.801 429.118 140.635C429.118 140.469 429.057 140.309 428.947 140.184C428.837 140.06 428.685 139.98 428.52 139.96H407.93C407.765 139.98 407.613 140.06 407.503 140.184C407.393 140.309 407.332 140.469 407.332 140.635C407.332 140.801 407.393 140.961 407.503 141.086C407.613 141.21 407.765 141.29 407.93 141.31Z" fill="white"/>
</g>
<g opacity="0.4">
<path d="M407.93 145H425.82C425.985 144.98 426.137 144.9 426.247 144.776C426.357 144.651 426.418 144.491 426.418 144.325C426.418 144.159 426.357 143.998 426.247 143.874C426.137 143.75 425.985 143.67 425.82 143.65H407.93C407.765 143.67 407.613 143.75 407.503 143.874C407.393 143.998 407.332 144.159 407.332 144.325C407.332 144.491 407.393 144.651 407.503 144.776C407.613 144.9 407.765 144.98 407.93 145Z" fill="white"/>
</g>
<g opacity="0.4">
<path d="M407.93 148.66H425.82C425.985 148.64 426.137 148.56 426.247 148.436C426.357 148.312 426.418 148.151 426.418 147.985C426.418 147.819 426.357 147.659 426.247 147.534C426.137 147.41 425.985 147.33 425.82 147.31H407.93C407.765 147.33 407.613 147.41 407.503 147.534C407.393 147.659 407.332 147.819 407.332 147.985C407.332 148.151 407.393 148.312 407.503 148.436C407.613 148.56 407.765 148.64 407.93 148.66Z" fill="white"/>
</g>
<g opacity="0.4">
<path d="M407.93 152.34H426.72C426.885 152.32 427.037 152.24 427.147 152.116C427.257 151.991 427.318 151.831 427.318 151.665C427.318 151.499 427.257 151.339 427.147 151.214C427.037 151.09 426.885 151.01 426.72 150.99H407.93C407.765 151.01 407.613 151.09 407.503 151.214C407.393 151.339 407.332 151.499 407.332 151.665C407.332 151.831 407.393 151.991 407.503 152.116C407.613 152.24 407.765 152.32 407.93 152.34Z" fill="white"/>
</g>
<g opacity="0.4">
<path d="M407.93 156H423.12C423.285 155.98 423.437 155.9 423.547 155.776C423.657 155.651 423.718 155.491 423.718 155.325C423.718 155.159 423.657 154.998 423.547 154.874C423.437 154.75 423.285 154.67 423.12 154.65H407.93C407.765 154.67 407.613 154.75 407.503 154.874C407.393 154.998 407.332 155.159 407.332 155.325C407.332 155.491 407.393 155.651 407.503 155.776C407.613 155.9 407.765 155.98 407.93 156Z" fill="white"/>
</g>
<g opacity="0.4">
<path d="M407.93 159.69H428.52C428.685 159.67 428.837 159.59 428.947 159.466C429.057 159.342 429.118 159.181 429.118 159.015C429.118 158.849 429.057 158.689 428.947 158.564C428.837 158.44 428.685 158.36 428.52 158.34H407.93C407.765 158.36 407.613 158.44 407.503 158.564C407.393 158.689 407.332 158.849 407.332 159.015C407.332 159.181 407.393 159.342 407.503 159.466C407.613 159.59 407.765 159.67 407.93 159.69Z" fill="white"/>
</g>
<g opacity="0.4">
<path d="M407.93 163.36H425.82C425.985 163.34 426.137 163.26 426.247 163.136C426.357 163.011 426.418 162.851 426.418 162.685C426.418 162.519 426.357 162.359 426.247 162.234C426.137 162.11 425.985 162.03 425.82 162.01H407.93C407.765 162.03 407.613 162.11 407.503 162.234C407.393 162.359 407.332 162.519 407.332 162.685C407.332 162.851 407.393 163.011 407.503 163.136C407.613 163.26 407.765 163.34 407.93 163.36Z" fill="white"/>
</g>
<g opacity="0.4">
<path d="M407.93 167H425.82C425.985 166.98 426.137 166.9 426.247 166.776C426.357 166.651 426.418 166.491 426.418 166.325C426.418 166.159 426.357 165.998 426.247 165.874C426.137 165.75 425.985 165.67 425.82 165.65H407.93C407.765 165.67 407.613 165.75 407.503 165.874C407.393 165.998 407.332 166.159 407.332 166.325C407.332 166.491 407.393 166.651 407.503 166.776C407.613 166.9 407.765 166.98 407.93 167Z" fill="white"/>
</g>
<g opacity="0.4">
<path d="M407.93 170.71H426.72C426.885 170.69 427.037 170.61 427.147 170.486C427.257 170.362 427.318 170.201 427.318 170.035C427.318 169.869 427.257 169.709 427.147 169.584C427.037 169.46 426.885 169.38 426.72 169.36H407.93C407.765 169.38 407.613 169.46 407.503 169.584C407.393 169.709 407.332 169.869 407.332 170.035C407.332 170.201 407.393 170.362 407.503 170.486C407.613 170.61 407.765 170.69 407.93 170.71Z" fill="white"/>
</g>
<path d="M403.11 140.64H392.98V150.77H403.11V140.64Z" fill="#161A1D"/>
<path opacity="0.3" d="M403.11 140.64H392.98V150.77H403.11V140.64Z" fill="white"/>
<path d="M404.09 130.17H401.35V135.65H404.09V130.17Z" fill="#161A1D"/>
<path d="M409.58 127.42H406.84V135.64H409.58V127.42Z" fill="#161A1D"/>
<path d="M415.06 128.8H412.32V135.65H415.06V128.8Z" fill="#161A1D"/>
<path d="M420.54 124.68H417.8V135.65H420.54V124.68Z" fill="#161A1D"/>
<path d="M411.37 165.99H370.04V221.61H411.37V165.99Z" fill="#161A1D"/>
<path opacity="0.8" d="M411.37 165.99H370.04V221.61H411.37V165.99Z" fill="white"/>
<path d="M387.69 172H408.28C408.445 171.98 408.597 171.9 408.707 171.776C408.817 171.651 408.878 171.491 408.878 171.325C408.878 171.159 408.817 170.998 408.707 170.874C408.597 170.75 408.445 170.67 408.28 170.65H387.69C387.525 170.67 387.373 170.75 387.263 170.874C387.153 170.998 387.092 171.159 387.092 171.325C387.092 171.491 387.153 171.651 387.263 171.776C387.373 171.9 387.525 171.98 387.69 172Z" fill="#263238"/>
<path d="M387.69 175.63H405.58C405.745 175.61 405.897 175.53 406.007 175.406C406.117 175.281 406.178 175.121 406.178 174.955C406.178 174.789 406.117 174.629 406.007 174.504C405.897 174.38 405.745 174.3 405.58 174.28H387.69C387.525 174.3 387.373 174.38 387.263 174.504C387.153 174.629 387.092 174.789 387.092 174.955C387.092 175.121 387.153 175.281 387.263 175.406C387.373 175.53 387.525 175.61 387.69 175.63Z" fill="#263238"/>
<path d="M387.69 179.3H405.58C405.745 179.28 405.897 179.2 406.007 179.076C406.117 178.951 406.178 178.791 406.178 178.625C406.178 178.459 406.117 178.299 406.007 178.174C405.897 178.05 405.745 177.97 405.58 177.95H387.69C387.525 177.97 387.373 178.05 387.263 178.174C387.153 178.299 387.092 178.459 387.092 178.625C387.092 178.791 387.153 178.951 387.263 179.076C387.373 179.2 387.525 179.28 387.69 179.3Z" fill="#263238"/>
<path d="M387.69 183H406.48C406.645 182.98 406.797 182.9 406.907 182.776C407.017 182.651 407.078 182.491 407.078 182.325C407.078 182.159 407.017 181.998 406.907 181.874C406.797 181.75 406.645 181.67 406.48 181.65H387.69C387.525 181.67 387.373 181.75 387.263 181.874C387.153 181.998 387.092 182.159 387.092 182.325C387.092 182.491 387.153 182.651 387.263 182.776C387.373 182.9 387.525 182.98 387.69 183Z" fill="#263238"/>
<path d="M387.69 186.65H402.88C403.045 186.63 403.197 186.55 403.307 186.426C403.417 186.301 403.478 186.141 403.478 185.975C403.478 185.809 403.417 185.649 403.307 185.524C403.197 185.4 403.045 185.32 402.88 185.3H387.69C387.525 185.32 387.373 185.4 387.263 185.524C387.153 185.649 387.092 185.809 387.092 185.975C387.092 186.141 387.153 186.301 387.263 186.426C387.373 186.55 387.525 186.63 387.69 186.65Z" fill="#263238"/>
<path d="M387.69 190.33H408.28C408.445 190.31 408.597 190.23 408.707 190.106C408.817 189.981 408.878 189.821 408.878 189.655C408.878 189.489 408.817 189.329 408.707 189.204C408.597 189.08 408.445 189 408.28 188.98H387.69C387.525 189 387.373 189.08 387.263 189.204C387.153 189.329 387.092 189.489 387.092 189.655C387.092 189.821 387.153 189.981 387.263 190.106C387.373 190.23 387.525 190.31 387.69 190.33Z" fill="#263238"/>
<path d="M387.69 194H405.58C405.745 193.98 405.897 193.9 406.007 193.776C406.117 193.651 406.178 193.491 406.178 193.325C406.178 193.159 406.117 192.998 406.007 192.874C405.897 192.75 405.745 192.67 405.58 192.65H387.69C387.525 192.67 387.373 192.75 387.263 192.874C387.153 192.998 387.092 193.159 387.092 193.325C387.092 193.491 387.153 193.651 387.263 193.776C387.373 193.9 387.525 193.98 387.69 194Z" fill="#263238"/>
<path d="M387.69 197.68H405.58C405.745 197.66 405.897 197.58 406.007 197.456C406.117 197.332 406.178 197.171 406.178 197.005C406.178 196.839 406.117 196.679 406.007 196.554C405.897 196.43 405.745 196.35 405.58 196.33H387.69C387.525 196.35 387.373 196.43 387.263 196.554C387.153 196.679 387.092 196.839 387.092 197.005C387.092 197.171 387.153 197.332 387.263 197.456C387.373 197.58 387.525 197.66 387.69 197.68Z" fill="#263238"/>
<path d="M387.69 205H402.88C403.045 204.98 403.197 204.9 403.307 204.776C403.417 204.651 403.478 204.491 403.478 204.325C403.478 204.159 403.417 203.998 403.307 203.874C403.197 203.75 403.045 203.67 402.88 203.65H387.69C387.525 203.67 387.373 203.75 387.263 203.874C387.153 203.998 387.092 204.159 387.092 204.325C387.092 204.491 387.153 204.651 387.263 204.776C387.373 204.9 387.525 204.98 387.69 205Z" fill="#263238"/>
<path d="M387.69 208.71H408.28C408.445 208.69 408.597 208.61 408.707 208.486C408.817 208.362 408.878 208.201 408.878 208.035C408.878 207.869 408.817 207.709 408.707 207.584C408.597 207.46 408.445 207.38 408.28 207.36H387.69C387.525 207.38 387.373 207.46 387.263 207.584C387.153 207.709 387.092 207.869 387.092 208.035C387.092 208.201 387.153 208.362 387.263 208.486C387.373 208.61 387.525 208.69 387.69 208.71Z" fill="#263238"/>
<path d="M387.69 212.38H405.58C405.745 212.36 405.897 212.28 406.007 212.156C406.117 212.031 406.178 211.871 406.178 211.705C406.178 211.539 406.117 211.379 406.007 211.254C405.897 211.13 405.745 211.05 405.58 211.03H387.69C387.525 211.05 387.373 211.13 387.263 211.254C387.153 211.379 387.092 211.539 387.092 211.705C387.092 211.871 387.153 212.031 387.263 212.156C387.373 212.28 387.525 212.36 387.69 212.38Z" fill="#263238"/>
<path d="M387.69 216.06H405.58C405.745 216.04 405.897 215.96 406.007 215.836C406.117 215.711 406.178 215.551 406.178 215.385C406.178 215.219 406.117 215.059 406.007 214.934C405.897 214.81 405.745 214.73 405.58 214.71H387.69C387.525 214.73 387.373 214.81 387.263 214.934C387.153 215.059 387.092 215.219 387.092 215.385C387.092 215.551 387.153 215.711 387.263 215.836C387.373 215.96 387.525 216.04 387.69 216.06Z" fill="#263238"/>
<path d="M387.69 201.35H406.48C406.645 201.33 406.797 201.25 406.907 201.126C407.017 201.001 407.078 200.841 407.078 200.675C407.078 200.509 407.017 200.349 406.907 200.224C406.797 200.1 406.645 200.02 406.48 200H387.69C387.525 200.02 387.373 200.1 387.263 200.224C387.153 200.349 387.092 200.509 387.092 200.675C387.092 200.841 387.153 201.001 387.263 201.126C387.373 201.25 387.525 201.33 387.69 201.35Z" fill="#263238"/>
<g opacity="0.4">
<path d="M387.69 172H408.28C408.445 171.98 408.597 171.9 408.707 171.776C408.817 171.651 408.878 171.491 408.878 171.325C408.878 171.159 408.817 170.998 408.707 170.874C408.597 170.75 408.445 170.67 408.28 170.65H387.69C387.525 170.67 387.373 170.75 387.263 170.874C387.153 170.998 387.092 171.159 387.092 171.325C387.092 171.491 387.153 171.651 387.263 171.776C387.373 171.9 387.525 171.98 387.69 172Z" fill="white"/>
<path d="M387.69 175.63H405.58C405.745 175.61 405.897 175.53 406.007 175.406C406.117 175.281 406.178 175.121 406.178 174.955C406.178 174.789 406.117 174.628 406.007 174.504C405.897 174.38 405.745 174.3 405.58 174.28H387.69C387.525 174.3 387.373 174.38 387.263 174.504C387.153 174.628 387.092 174.789 387.092 174.955C387.092 175.121 387.153 175.281 387.263 175.406C387.373 175.53 387.525 175.61 387.69 175.63Z" fill="white"/>
<path d="M387.69 179.3H405.58C405.745 179.28 405.897 179.2 406.007 179.076C406.117 178.951 406.178 178.791 406.178 178.625C406.178 178.459 406.117 178.299 406.007 178.174C405.897 178.05 405.745 177.97 405.58 177.95H387.69C387.525 177.97 387.373 178.05 387.263 178.174C387.153 178.299 387.092 178.459 387.092 178.625C387.092 178.791 387.153 178.951 387.263 179.076C387.373 179.2 387.525 179.28 387.69 179.3Z" fill="white"/>
<path d="M387.69 183H406.48C406.645 182.98 406.797 182.9 406.907 182.776C407.017 182.651 407.078 182.491 407.078 182.325C407.078 182.159 407.017 181.998 406.907 181.874C406.797 181.75 406.645 181.67 406.48 181.65H387.69C387.525 181.67 387.373 181.75 387.263 181.874C387.153 181.998 387.092 182.159 387.092 182.325C387.092 182.491 387.153 182.651 387.263 182.776C387.373 182.9 387.525 182.98 387.69 183Z" fill="white"/>
<path d="M387.69 186.65H402.88C403.045 186.63 403.197 186.55 403.307 186.426C403.417 186.301 403.478 186.141 403.478 185.975C403.478 185.809 403.417 185.648 403.307 185.524C403.197 185.4 403.045 185.32 402.88 185.3H387.69C387.525 185.32 387.373 185.4 387.263 185.524C387.153 185.648 387.092 185.809 387.092 185.975C387.092 186.141 387.153 186.301 387.263 186.426C387.373 186.55 387.525 186.63 387.69 186.65Z" fill="white"/>
<path d="M387.69 190.33H408.28C408.445 190.31 408.597 190.23 408.707 190.106C408.817 189.981 408.878 189.821 408.878 189.655C408.878 189.489 408.817 189.329 408.707 189.204C408.597 189.08 408.445 189 408.28 188.98H387.69C387.525 189 387.373 189.08 387.263 189.204C387.153 189.329 387.092 189.489 387.092 189.655C387.092 189.821 387.153 189.981 387.263 190.106C387.373 190.23 387.525 190.31 387.69 190.33Z" fill="white"/>
<path d="M387.69 194H405.58C405.745 193.98 405.897 193.9 406.007 193.776C406.117 193.651 406.178 193.491 406.178 193.325C406.178 193.159 406.117 192.998 406.007 192.874C405.897 192.75 405.745 192.67 405.58 192.65H387.69C387.525 192.67 387.373 192.75 387.263 192.874C387.153 192.998 387.092 193.159 387.092 193.325C387.092 193.491 387.153 193.651 387.263 193.776C387.373 193.9 387.525 193.98 387.69 194Z" fill="white"/>
<path d="M387.69 197.68H405.58C405.745 197.66 405.897 197.58 406.007 197.456C406.117 197.331 406.178 197.171 406.178 197.005C406.178 196.839 406.117 196.678 406.007 196.554C405.897 196.43 405.745 196.35 405.58 196.33H387.69C387.525 196.35 387.373 196.43 387.263 196.554C387.153 196.678 387.092 196.839 387.092 197.005C387.092 197.171 387.153 197.331 387.263 197.456C387.373 197.58 387.525 197.66 387.69 197.68Z" fill="white"/>
<path d="M387.69 205H402.88C403.045 204.98 403.197 204.9 403.307 204.776C403.417 204.651 403.478 204.491 403.478 204.325C403.478 204.159 403.417 203.998 403.307 203.874C403.197 203.75 403.045 203.67 402.88 203.65H387.69C387.525 203.67 387.373 203.75 387.263 203.874C387.153 203.998 387.092 204.159 387.092 204.325C387.092 204.491 387.153 204.651 387.263 204.776C387.373 204.9 387.525 204.98 387.69 205Z" fill="white"/>
<path d="M387.69 208.71H408.28C408.445 208.69 408.597 208.61 408.707 208.486C408.817 208.361 408.878 208.201 408.878 208.035C408.878 207.869 408.817 207.708 408.707 207.584C408.597 207.46 408.445 207.38 408.28 207.36H387.69C387.525 207.38 387.373 207.46 387.263 207.584C387.153 207.708 387.092 207.869 387.092 208.035C387.092 208.201 387.153 208.361 387.263 208.486C387.373 208.61 387.525 208.69 387.69 208.71Z" fill="white"/>
<path d="M387.69 212.38H405.58C405.745 212.36 405.897 212.28 406.007 212.156C406.117 212.031 406.178 211.871 406.178 211.705C406.178 211.539 406.117 211.378 406.007 211.254C405.897 211.13 405.745 211.05 405.58 211.03H387.69C387.525 211.05 387.373 211.13 387.263 211.254C387.153 211.378 387.092 211.539 387.092 211.705C387.092 211.871 387.153 212.031 387.263 212.156C387.373 212.28 387.525 212.36 387.69 212.38Z" fill="white"/>
<path d="M387.69 216.06H405.58C405.745 216.04 405.897 215.96 406.007 215.836C406.117 215.711 406.178 215.551 406.178 215.385C406.178 215.219 406.117 215.059 406.007 214.934C405.897 214.81 405.745 214.73 405.58 214.71H387.69C387.525 214.73 387.373 214.81 387.263 214.934C387.153 215.059 387.092 215.219 387.092 215.385C387.092 215.551 387.153 215.711 387.263 215.836C387.373 215.96 387.525 216.04 387.69 216.06Z" fill="white"/>
<path d="M387.69 201.35H406.48C406.645 201.33 406.797 201.25 406.907 201.126C407.017 201.001 407.078 200.841 407.078 200.675C407.078 200.509 407.017 200.349 406.907 200.224C406.797 200.1 406.645 200.02 406.48 200H387.69C387.525 200.02 387.373 200.1 387.263 200.224C387.153 200.349 387.092 200.509 387.092 200.675C387.092 200.841 387.153 201.001 387.263 201.126C387.373 201.25 387.525 201.33 387.69 201.35Z" fill="white"/>
</g>
<path d="M376.39 190.57L374.76 188.94C374.181 189.514 373.721 190.198 373.409 190.952C373.096 191.706 372.937 192.514 372.94 193.33H375.25C375.248 192.817 375.348 192.31 375.544 191.836C375.74 191.362 376.027 190.932 376.39 190.57Z" fill="#161A1D"/>
<path d="M379.14 197.23C378.107 197.227 377.118 196.815 376.389 196.084C375.659 195.353 375.25 194.363 375.25 193.33H372.94C372.94 194.974 373.593 196.551 374.756 197.714C375.919 198.877 377.496 199.53 379.14 199.53V197.23Z" fill="#161A1D"/>
<path opacity="0.3" d="M379.14 197.23C378.107 197.227 377.118 196.815 376.389 196.084C375.659 195.353 375.25 194.363 375.25 193.33H372.94C372.94 194.974 373.593 196.551 374.756 197.714C375.919 198.877 377.496 199.53 379.14 199.53V197.23Z" fill="white"/>
<path d="M376.39 190.57C376.75 190.207 377.178 189.919 377.65 189.724C378.123 189.528 378.629 189.428 379.14 189.43V187.12C378.326 187.12 377.52 187.281 376.768 187.593C376.017 187.906 375.334 188.363 374.76 188.94L376.39 190.57Z" fill="#161A1D"/>
<path opacity="0.5" d="M376.39 190.57C376.75 190.207 377.178 189.919 377.65 189.724C378.123 189.528 378.629 189.428 379.14 189.43V187.12C378.326 187.12 377.52 187.281 376.768 187.593C376.017 187.906 375.334 188.363 374.76 188.94L376.39 190.57Z" fill="black"/>
<path d="M383 193.33C383 194.364 382.589 195.356 381.858 196.088C381.126 196.819 380.134 197.23 379.1 197.23V199.53C379.936 199.564 380.77 199.428 381.552 199.131C382.334 198.834 383.048 198.383 383.651 197.803C384.255 197.224 384.735 196.528 385.062 195.759C385.39 194.989 385.559 194.161 385.559 193.325C385.559 192.489 385.39 191.661 385.062 190.891C384.735 190.122 384.255 189.426 383.651 188.847C383.048 188.267 382.334 187.815 381.552 187.519C380.77 187.222 379.936 187.086 379.1 187.12V189.43C379.613 189.429 380.12 189.529 380.594 189.724C381.068 189.92 381.498 190.207 381.861 190.569C382.223 190.932 382.51 191.362 382.706 191.836C382.901 192.31 383.001 192.817 383 193.33Z" fill="#161A1D"/>
<path opacity="0.2" d="M381.9 196.08L383.53 197.72C384.108 197.145 384.566 196.46 384.879 195.707C385.191 194.954 385.351 194.146 385.35 193.33H383C383.007 193.838 382.914 194.343 382.725 194.815C382.536 195.287 382.256 195.717 381.9 196.08Z" fill="black"/>
<path d="M376.39 178.85L374.76 180.48C375.333 181.059 376.015 181.518 376.767 181.83C377.519 182.143 378.326 182.302 379.14 182.3V180C378.628 180 378.122 179.899 377.65 179.701C377.177 179.504 376.749 179.215 376.39 178.85Z" fill="#161A1D"/>
<path d="M383 176.1C383 177.134 382.589 178.126 381.858 178.858C381.126 179.589 380.134 180 379.1 180V182.3C380.745 182.3 382.323 181.647 383.488 180.485C384.652 179.322 385.307 177.745 385.31 176.1H383Z" fill="#161A1D"/>
<path opacity="0.3" d="M383 176.1C383 177.134 382.589 178.126 381.858 178.858C381.126 179.589 380.134 180 379.1 180V182.3C380.745 182.3 382.323 181.647 383.488 180.485C384.652 179.322 385.307 177.745 385.31 176.1H383Z" fill="white"/>
<path d="M376.39 178.85C376.027 178.49 375.739 178.062 375.543 177.59C375.348 177.118 375.248 176.611 375.25 176.1H372.94C372.938 176.914 373.098 177.721 373.41 178.473C373.722 179.225 374.181 179.907 374.76 180.48L376.39 178.85Z" fill="#161A1D"/>
<path opacity="0.5" d="M376.39 178.85C376.027 178.49 375.739 178.062 375.543 177.59C375.348 177.118 375.248 176.611 375.25 176.1H372.94C372.938 176.914 373.098 177.721 373.41 178.473C373.722 179.225 374.181 179.907 374.76 180.48L376.39 178.85Z" fill="black"/>
<path d="M379.14 172.2C379.653 172.199 380.16 172.299 380.634 172.494C381.108 172.69 381.538 172.977 381.901 173.339C382.263 173.702 382.55 174.132 382.746 174.606C382.941 175.08 383.041 175.587 383.04 176.1H385.35C385.384 175.264 385.248 174.43 384.951 173.648C384.655 172.866 384.203 172.152 383.623 171.549C383.044 170.945 382.349 170.466 381.579 170.138C380.809 169.81 379.982 169.641 379.145 169.641C378.309 169.641 377.481 169.81 376.711 170.138C375.942 170.466 375.246 170.945 374.667 171.549C374.087 172.152 373.636 172.866 373.339 173.648C373.042 174.43 372.906 175.264 372.94 176.1H375.25C375.249 175.588 375.348 175.081 375.543 174.608C375.738 174.135 376.025 173.705 376.386 173.343C376.747 172.981 377.176 172.693 377.649 172.497C378.122 172.301 378.628 172.2 379.14 172.2Z" fill="#161A1D"/>
<path opacity="0.2" d="M381.9 173.34L383.53 171.71C382.956 171.131 382.272 170.671 381.518 170.359C380.764 170.046 379.956 169.887 379.14 169.89V172.2C379.653 172.197 380.161 172.296 380.635 172.492C381.109 172.688 381.539 172.976 381.9 173.34Z" fill="black"/>
<path d="M381.9 207.8L383.53 206.17C384.109 206.744 384.569 207.428 384.881 208.182C385.194 208.936 385.353 209.744 385.35 210.56H383C383.007 210.05 382.913 209.544 382.725 209.07C382.536 208.597 382.256 208.165 381.9 207.8Z" fill="#161A1D"/>
<path d="M379.14 214.46C380.174 214.46 381.166 214.049 381.898 213.318C382.629 212.586 383.04 211.594 383.04 210.56H385.35C385.35 212.207 384.696 213.787 383.531 214.951C382.367 216.116 380.787 216.77 379.14 216.77V214.46Z" fill="#161A1D"/>
<path opacity="0.3" d="M379.14 214.46C380.174 214.46 381.166 214.049 381.898 213.318C382.629 212.586 383.04 211.594 383.04 210.56H385.35C385.35 212.207 384.696 213.787 383.531 214.951C382.367 216.116 380.787 216.77 379.14 216.77V214.46Z" fill="white"/>
<path d="M381.9 207.8C381.538 207.438 381.107 207.151 380.634 206.955C380.16 206.76 379.653 206.659 379.14 206.66V204.35C379.956 204.349 380.763 204.51 381.517 204.822C382.27 205.134 382.954 205.592 383.53 206.17L381.9 207.8Z" fill="#161A1D"/>
<path opacity="0.5" d="M381.9 207.8C381.538 207.438 381.107 207.151 380.634 206.955C380.16 206.76 379.653 206.659 379.14 206.66V204.35C379.956 204.349 380.763 204.51 381.517 204.822C382.27 205.134 382.954 205.592 383.53 206.17L381.9 207.8Z" fill="black"/>
<path d="M375.25 210.56C375.25 211.593 375.659 212.583 376.389 213.314C377.118 214.045 378.107 214.457 379.14 214.46V216.77C377.493 216.77 375.913 216.116 374.749 214.951C373.584 213.787 372.93 212.207 372.93 210.56C372.93 208.913 373.584 207.334 374.749 206.169C375.913 205.004 377.493 204.35 379.14 204.35V206.66C378.107 206.663 377.118 207.075 376.389 207.806C375.659 208.537 375.25 209.527 375.25 210.56Z" fill="#161A1D"/>
<path opacity="0.2" d="M376.39 213.32L374.76 215C374.182 214.425 373.723 213.741 373.411 212.987C373.099 212.234 372.939 211.426 372.94 210.61H375.25C375.26 211.628 375.669 212.601 376.39 213.32Z" fill="black"/>
<path d="M262.44 276.73H286.63C287.333 276.73 288.007 277.009 288.504 277.506C289.001 278.003 289.28 278.677 289.28 279.38V280.85C289.28 281.553 289.001 282.227 288.504 282.724C288.007 283.221 287.333 283.5 286.63 283.5H262.44V276.73Z" fill="#263238"/>
<path d="M215.15 276.73H266.62C267.273 276.73 267.898 276.989 268.36 277.451C268.821 277.912 269.08 278.538 269.08 279.19V281C269.08 281.652 268.821 282.278 268.36 282.739C267.898 283.201 267.273 283.46 266.62 283.46H215.15C214.495 283.46 213.867 283.2 213.404 282.737C212.94 282.273 212.68 281.645 212.68 280.99V279.2C212.679 278.875 212.742 278.553 212.866 278.253C212.989 277.953 213.171 277.68 213.401 277.45C213.63 277.221 213.903 277.039 214.203 276.915C214.504 276.792 214.825 276.729 215.15 276.73Z" fill="black"/>
<path opacity="0.5" d="M215.15 276.73H266.62C267.273 276.73 267.898 276.989 268.36 277.451C268.821 277.912 269.08 278.538 269.08 279.19V281C269.08 281.652 268.821 282.278 268.36 282.739C267.898 283.201 267.273 283.46 266.62 283.46H215.15C214.495 283.46 213.867 283.2 213.404 282.737C212.94 282.273 212.68 281.645 212.68 280.99V279.2C212.679 278.875 212.742 278.553 212.866 278.253C212.989 277.953 213.171 277.68 213.401 277.45C213.63 277.221 213.903 277.039 214.203 276.915C214.504 276.792 214.825 276.729 215.15 276.73Z" fill="white"/>
<path d="M255.32 276.74H268.36L260.01 245.54H255.32V276.74Z" fill="#263238"/>
<path d="M266.46 276.74H239.84L237.19 245.54H258.11L266.46 276.74Z" fill="black"/>
<path opacity="0.3" d="M266.46 276.74H239.84L237.19 245.54H258.11L266.46 276.74Z" fill="white"/>
<path d="M333.51 155.89H321.41L312 263H324.1C325.351 262.979 326.551 262.501 327.472 261.655C328.394 260.809 328.973 259.654 329.1 258.41L337.66 160.51C337.73 159.926 337.674 159.334 337.497 158.774C337.319 158.213 337.025 157.697 336.632 157.26C336.239 156.822 335.757 156.474 335.219 156.238C334.68 156.002 334.098 155.883 333.51 155.89Z" fill="#263238"/>
<path d="M321.35 263H174.87C174.283 263.011 173.7 262.896 173.16 262.663C172.62 262.431 172.136 262.086 171.741 261.651C171.345 261.217 171.047 260.703 170.866 260.144C170.684 259.585 170.625 258.994 170.69 258.41L179.25 160.51C179.38 159.267 179.96 158.115 180.881 157.271C181.802 156.427 183.001 155.95 184.25 155.93H330.72C331.307 155.919 331.889 156.034 332.428 156.266C332.966 156.498 333.45 156.842 333.845 157.275C334.241 157.708 334.539 158.221 334.721 158.779C334.903 159.337 334.964 159.927 334.9 160.51L326.34 258.41C326.213 259.653 325.635 260.806 324.716 261.652C323.797 262.497 322.599 262.977 321.35 263Z" fill="#263238"/>
<path opacity="0.7" d="M321.35 263H174.87C174.283 263.011 173.7 262.896 173.16 262.663C172.62 262.431 172.136 262.086 171.741 261.651C171.345 261.217 171.047 260.703 170.866 260.144C170.684 259.585 170.625 258.994 170.69 258.41L179.25 160.51C179.38 159.267 179.96 158.115 180.881 157.271C181.802 156.427 183.001 155.95 184.25 155.93H330.72C331.307 155.919 331.889 156.034 332.428 156.266C332.966 156.498 333.45 156.842 333.845 157.275C334.241 157.708 334.539 158.221 334.721 158.779C334.903 159.337 334.964 159.927 334.9 160.51L326.34 258.41C326.213 259.653 325.635 260.806 324.716 261.652C323.797 262.497 322.599 262.977 321.35 263Z" fill="white"/>
<path opacity="0.9" d="M317.44 250.46H181C180.488 250.471 179.98 250.371 179.51 250.169C179.04 249.967 178.618 249.666 178.274 249.287C177.93 248.907 177.671 248.459 177.515 247.971C177.359 247.484 177.31 246.968 177.37 246.46L184.48 165.12C184.587 164.039 185.087 163.035 185.885 162.298C186.683 161.561 187.724 161.142 188.81 161.12H325.25C325.762 161.109 326.27 161.208 326.74 161.411C327.211 161.613 327.632 161.914 327.976 162.293C328.32 162.672 328.579 163.121 328.735 163.609C328.891 164.096 328.94 164.612 328.88 165.12L321.77 246.46C321.663 247.541 321.163 248.545 320.365 249.282C319.567 250.019 318.526 250.438 317.44 250.46Z" fill="#FAFAFA"/>
<path d="M281.71 189.88H276.94L277.77 180.33H282.55L281.71 189.88Z" fill="#161A1D"/>
<path opacity="0.2" d="M281.71 189.88H276.94L277.77 180.33H282.55L281.71 189.88Z" fill="black"/>
<path d="M291.26 189.88H286.49L287.74 175.56H292.51L291.26 189.88Z" fill="#161A1D"/>
<path d="M300.81 189.88H296.03L297.08 177.95H301.85L300.81 189.88Z" fill="#161A1D"/>
<path d="M310.36 189.88H305.58L307.25 170.79H312.03L310.36 189.88Z" fill="#161A1D"/>
<path opacity="0.4" d="M310.36 189.88H305.58L307.25 170.79H312.03L310.36 189.88Z" fill="black"/>
<path d="M315.13 189H273.13C273.657 182.933 274.19 176.863 274.73 170.79C274.83 169.66 273.06 169.66 272.96 170.79C272.413 177.15 271.857 183.513 271.29 189.88C271.293 190.112 271.386 190.335 271.551 190.499C271.715 190.664 271.937 190.757 272.17 190.76H315.17C315.403 190.755 315.625 190.657 315.786 190.488C315.948 190.319 316.035 190.093 316.03 189.86C316.025 189.626 315.927 189.405 315.758 189.243C315.589 189.082 315.363 188.995 315.13 189Z" fill="#161A1D"/>
<path opacity="0.5" d="M315.13 189H273.13C273.657 182.933 274.19 176.863 274.73 170.79C274.83 169.66 273.06 169.66 272.96 170.79C272.413 177.15 271.857 183.513 271.29 189.88C271.293 190.112 271.386 190.335 271.551 190.499C271.715 190.664 271.937 190.757 272.17 190.76H315.17C315.403 190.755 315.625 190.657 315.786 190.488C315.948 190.319 316.035 190.093 316.03 189.86C316.025 189.626 315.927 189.405 315.758 189.243C315.589 189.082 315.363 188.995 315.13 189Z" fill="white"/>
<path d="M203 184.71L199.89 187.58C200.835 188.601 201.984 189.411 203.262 189.959C204.54 190.507 205.92 190.78 207.31 190.76L207.66 186.76C206.783 186.765 205.915 186.585 205.112 186.232C204.309 185.879 203.589 185.36 203 184.71Z" fill="#161A1D"/>
<path opacity="0.5" d="M203 184.71L199.89 187.58C200.835 188.601 201.984 189.411 203.262 189.959C204.54 190.507 205.92 190.78 207.31 190.76L207.66 186.76C206.783 186.765 205.915 186.585 205.112 186.232C204.309 185.879 203.589 185.36 203 184.71Z" fill="black"/>
<path d="M215.05 179.88C214.86 181.732 213.998 183.451 212.627 184.711C211.256 185.971 209.472 186.686 207.61 186.72L207.26 190.72C210.222 190.667 213.063 189.531 215.244 187.526C217.426 185.521 218.797 182.787 219.1 179.84L215.05 179.88Z" fill="#161A1D"/>
<path opacity="0.1" d="M215.05 179.88C214.86 181.732 213.998 183.451 212.627 184.711C211.256 185.971 209.472 186.686 207.61 186.72L207.26 190.72C210.222 190.667 213.063 189.531 215.244 187.526C217.426 185.521 218.797 182.787 219.1 179.84L215.05 179.88Z" fill="black"/>
<path d="M203 184.71C202.415 184.059 201.972 183.294 201.7 182.462C201.428 181.63 201.332 180.751 201.42 179.88H197.42C197.278 181.267 197.429 182.669 197.861 183.995C198.293 185.321 198.998 186.542 199.93 187.58L203 184.71Z" fill="#161A1D"/>
<path d="M208.81 173C209.686 172.983 210.556 173.154 211.361 173.5C212.166 173.846 212.888 174.36 213.479 175.007C214.069 175.655 214.515 176.421 214.786 177.254C215.057 178.087 215.147 178.969 215.05 179.84H219.05C219.194 178.462 219.045 177.07 218.612 175.754C218.18 174.438 217.474 173.228 216.541 172.204C215.608 171.181 214.469 170.366 213.198 169.813C211.928 169.261 210.555 168.984 209.17 169C206.206 169.053 203.365 170.191 201.183 172.197C199.001 174.204 197.63 176.941 197.33 179.89H201.33C201.508 178.021 202.369 176.284 203.75 175.012C205.131 173.74 206.933 173.024 208.81 173Z" fill="#161A1D"/>
<path opacity="0.2" d="M208.81 173C209.686 172.983 210.556 173.154 211.361 173.5C212.166 173.846 212.888 174.36 213.479 175.007C214.069 175.655 214.515 176.421 214.786 177.254C215.057 178.087 215.147 178.969 215.05 179.84H219.05C219.194 178.462 219.045 177.07 218.612 175.754C218.18 174.438 217.474 173.228 216.541 172.204C215.608 171.181 214.469 170.366 213.198 169.813C211.928 169.261 210.555 168.984 209.17 169C206.206 169.053 203.365 170.191 201.183 172.197C199.001 174.204 197.63 176.941 197.33 179.89H201.33C201.508 178.021 202.369 176.284 203.75 175.012C205.131 173.74 206.933 173.024 208.81 173Z" fill="white"/>
<path opacity="0.6" d="M213.47 175L216.58 172.14C215.638 171.118 214.491 170.305 213.215 169.756C211.938 169.206 210.56 168.932 209.17 168.95L208.81 172.95C209.687 172.944 210.556 173.123 211.359 173.476C212.163 173.83 212.882 174.349 213.47 175Z" fill="white"/>
<path d="M233.27 184.71L230.16 187.58C231.105 188.6 232.254 189.41 233.532 189.958C234.811 190.506 236.19 190.779 237.58 190.76L237.94 186.76C237.061 186.766 236.191 186.586 235.387 186.233C234.582 185.88 233.861 185.361 233.27 184.71Z" fill="#161A1D"/>
<path opacity="0.5" d="M233.27 184.71L230.16 187.58C231.105 188.6 232.254 189.41 233.532 189.958C234.811 190.506 236.19 190.779 237.58 190.76L237.94 186.76C237.061 186.766 236.191 186.586 235.387 186.233C234.582 185.88 233.861 185.361 233.27 184.71Z" fill="black"/>
<path d="M245.37 179.88C245.18 181.73 244.32 183.448 242.951 184.707C241.582 185.967 239.8 186.683 237.94 186.72L237.58 190.72C240.542 190.667 243.383 189.531 245.564 187.526C247.746 185.521 249.117 182.787 249.42 179.84L245.37 179.88Z" fill="#161A1D"/>
<path opacity="0.1" d="M245.37 179.88C245.18 181.73 244.32 183.448 242.951 184.707C241.582 185.967 239.8 186.683 237.94 186.72L237.58 190.72C240.542 190.667 243.383 189.531 245.564 187.526C247.746 185.521 249.117 182.787 249.42 179.84L245.37 179.88Z" fill="black"/>
<path d="M233.27 184.71C232.686 184.058 232.244 183.292 231.972 182.461C231.7 181.629 231.604 180.751 231.69 179.88H227.69C227.548 181.267 227.698 182.669 228.131 183.995C228.563 185.321 229.268 186.542 230.2 187.58L233.27 184.71Z" fill="#161A1D"/>
<path d="M239.13 173C240.006 172.983 240.876 173.154 241.681 173.5C242.486 173.846 243.208 174.36 243.799 175.007C244.389 175.655 244.835 176.421 245.106 177.254C245.377 178.087 245.467 178.969 245.37 179.84H249.37C249.514 178.462 249.365 177.07 248.933 175.754C248.5 174.438 247.794 173.228 246.861 172.204C245.928 171.181 244.789 170.366 243.518 169.813C242.248 169.261 240.875 168.984 239.49 169C236.526 169.053 233.685 170.191 231.503 172.197C229.321 174.204 227.951 176.941 227.65 179.89H231.65C231.828 178.021 232.69 176.284 234.07 175.012C235.451 173.74 237.253 173.024 239.13 173Z" fill="#161A1D"/>
<path opacity="0.2" d="M239.13 173C240.006 172.983 240.876 173.154 241.681 173.5C242.486 173.846 243.208 174.36 243.799 175.007C244.389 175.655 244.835 176.421 245.106 177.254C245.377 178.087 245.467 178.969 245.37 179.84H249.37C249.514 178.462 249.365 177.07 248.933 175.754C248.5 174.438 247.794 173.228 246.861 172.204C245.928 171.181 244.789 170.366 243.518 169.813C242.248 169.261 240.875 168.984 239.49 169C236.526 169.053 233.685 170.191 231.503 172.197C229.321 174.204 227.951 176.941 227.65 179.89H231.65C231.828 178.021 232.69 176.284 234.07 175.012C235.451 173.74 237.253 173.024 239.13 173Z" fill="white"/>
<path opacity="0.6" d="M243.79 175L246.9 172.14C245.958 171.118 244.812 170.305 243.535 169.756C242.258 169.206 240.88 168.932 239.49 168.95L239.13 172.95C240.008 172.944 240.876 173.123 241.679 173.476C242.483 173.83 243.202 174.349 243.79 175Z" fill="white"/>
<path d="M278.83 225.3H273.13L273.62 219.6H279.33L278.83 225.3ZM274.47 224.06H277.69L277.98 220.84H274.76L274.47 224.06Z" fill="#161A1D"/>
<path d="M278.07 234H272.37L272.86 228.3H278.57L278.07 234ZM273.72 232.76H276.94L277.22 229.54H274L273.72 232.76Z" fill="#161A1D"/>
<path d="M277.31 242.65H271.61L272.11 236.96H277.81L277.31 242.65ZM273 241.42H276.22L276.5 238.19H273.28L273 241.42Z" fill="#161A1D"/>
<path d="M282.78 224C282.602 224.004 282.425 223.97 282.261 223.9C282.097 223.83 281.95 223.725 281.829 223.593C281.709 223.462 281.618 223.306 281.563 223.136C281.508 222.967 281.49 222.787 281.51 222.61C281.549 222.234 281.724 221.885 282.002 221.629C282.28 221.373 282.642 221.228 283.02 221.22H302.09C302.268 221.216 302.445 221.25 302.609 221.32C302.773 221.391 302.921 221.495 303.041 221.627C303.161 221.758 303.252 221.914 303.307 222.084C303.362 222.253 303.38 222.433 303.36 222.61C303.323 222.987 303.149 223.337 302.87 223.593C302.592 223.85 302.229 223.994 301.85 224H282.78Z" fill="#161A1D"/>
<path opacity="0.7" d="M282.78 224C282.602 224.004 282.425 223.97 282.261 223.9C282.097 223.83 281.95 223.725 281.829 223.593C281.709 223.462 281.618 223.306 281.563 223.136C281.508 222.967 281.49 222.787 281.51 222.61C281.549 222.234 281.724 221.885 282.002 221.629C282.28 221.373 282.642 221.228 283.02 221.22H302.09C302.268 221.216 302.445 221.25 302.609 221.32C302.773 221.391 302.921 221.495 303.041 221.627C303.161 221.758 303.252 221.914 303.307 222.084C303.362 222.253 303.38 222.433 303.36 222.61C303.323 222.987 303.149 223.337 302.87 223.593C302.592 223.85 302.229 223.994 301.85 224H282.78Z" fill="white"/>
<path d="M281.27 241.2C281.093 241.201 280.917 241.164 280.755 241.093C280.592 241.022 280.446 240.918 280.327 240.787C280.207 240.656 280.116 240.501 280.06 240.333C280.004 240.165 279.983 239.987 280 239.81C280.039 239.432 280.216 239.082 280.496 238.826C280.776 238.57 281.14 238.425 281.52 238.42H297.52C297.698 238.418 297.873 238.453 298.036 238.524C298.199 238.594 298.345 238.699 298.464 238.83C298.583 238.962 298.673 239.117 298.728 239.286C298.782 239.455 298.8 239.634 298.78 239.81C298.741 240.186 298.566 240.535 298.288 240.791C298.01 241.047 297.648 241.192 297.27 241.2H281.27Z" fill="#161A1D"/>
<path opacity="0.4" d="M281.27 241.2C281.093 241.201 280.917 241.164 280.755 241.093C280.592 241.022 280.446 240.918 280.327 240.787C280.207 240.656 280.116 240.501 280.06 240.333C280.004 240.165 279.983 239.987 280 239.81C280.039 239.432 280.216 239.082 280.496 238.826C280.776 238.57 281.14 238.425 281.52 238.42H297.52C297.698 238.418 297.873 238.453 298.036 238.524C298.199 238.594 298.345 238.699 298.464 238.83C298.583 238.962 298.673 239.117 298.728 239.286C298.782 239.455 298.8 239.634 298.78 239.81C298.741 240.186 298.566 240.535 298.288 240.791C298.01 241.047 297.648 241.192 297.27 241.2H281.27Z" fill="white"/>
<path d="M282 232.52C281.822 232.522 281.646 232.487 281.483 232.416C281.32 232.346 281.173 232.241 281.053 232.11C280.933 231.979 280.842 231.823 280.787 231.654C280.731 231.486 280.712 231.307 280.73 231.13C280.769 230.752 280.946 230.402 281.226 230.146C281.506 229.89 281.87 229.745 282.25 229.74H297C297.178 229.737 297.354 229.773 297.517 229.843C297.681 229.914 297.827 230.019 297.947 230.15C298.067 230.281 298.158 230.436 298.213 230.605C298.269 230.774 298.288 230.953 298.27 231.13C298.231 231.506 298.056 231.855 297.778 232.111C297.5 232.367 297.138 232.512 296.76 232.52H282Z" fill="#161A1D"/>
<path opacity="0.2" d="M282 232.52C281.822 232.522 281.646 232.487 281.483 232.416C281.32 232.346 281.173 232.241 281.053 232.11C280.933 231.979 280.842 231.823 280.787 231.654C280.731 231.486 280.712 231.307 280.73 231.13C280.769 230.752 280.946 230.402 281.226 230.146C281.506 229.89 281.87 229.745 282.25 229.74H297C297.178 229.737 297.354 229.773 297.517 229.843C297.681 229.914 297.827 230.019 297.947 230.15C298.067 230.281 298.158 230.436 298.213 230.605C298.269 230.774 298.288 230.953 298.27 231.13C298.231 231.506 298.056 231.855 297.778 232.111C297.5 232.367 297.138 232.512 296.76 232.52H282Z" fill="white"/>
<path d="M263.53 233.56C262.103 231.56 260.667 229.597 259.22 227.67C259.149 227.555 259.053 227.457 258.939 227.384C258.825 227.311 258.697 227.264 258.563 227.247C258.429 227.23 258.292 227.243 258.164 227.285C258.036 227.327 257.918 227.397 257.82 227.49L253.25 232.49C252.05 230.49 250.86 228.56 249.66 226.59C249.591 226.473 249.496 226.373 249.383 226.298C249.27 226.222 249.141 226.174 249.006 226.156C248.871 226.137 248.734 226.15 248.605 226.192C248.476 226.234 248.358 226.305 248.26 226.4C246.68 227.85 245.14 229.35 243.52 230.76C243.04 230.5 242.52 230.2 242.1 229.92L239.5 228.38C239.295 228.265 239.053 228.235 238.826 228.294C238.598 228.354 238.403 228.499 238.28 228.7L233.66 235.39C232.513 233.163 231.367 230.933 230.22 228.7C230.097 228.499 229.902 228.354 229.674 228.294C229.447 228.235 229.205 228.265 229 228.38L226.79 229.56C226.35 229.81 224.79 230.56 224.41 230.89C223.794 230.471 223.153 230.09 222.49 229.75L220.18 228.38C219.976 228.261 219.733 228.227 219.504 228.287C219.275 228.347 219.079 228.496 218.96 228.7C218.841 228.904 218.807 229.147 218.867 229.376C218.927 229.605 219.076 229.801 219.28 229.92C220.56 230.68 222.84 232.79 224.35 232.78C225.86 232.77 227.66 231.34 229.09 230.41L232.78 237.57C232.86 237.702 232.973 237.812 233.108 237.888C233.243 237.964 233.395 238.004 233.55 238.004C233.705 238.004 233.857 237.964 233.992 237.888C234.127 237.812 234.24 237.702 234.32 237.57L239.32 230.34L243.2 232.63C243.371 232.726 243.569 232.764 243.763 232.739C243.958 232.714 244.139 232.627 244.28 232.49L248.7 228.43L252.35 234.43C252.42 234.546 252.515 234.645 252.629 234.719C252.743 234.794 252.872 234.841 253.006 234.859C253.141 234.876 253.278 234.863 253.407 234.819C253.535 234.776 253.653 234.705 253.75 234.61L258.39 229.49L262 234.43C262.67 235.37 264.21 234.48 263.53 233.56Z" fill="#161A1D"/>
<path d="M262.09 240.87H219.6C220.14 234.73 220.677 228.59 221.21 222.45C221.31 221.31 219.53 221.31 219.43 222.45L217.74 241.76C217.743 241.995 217.837 242.22 218.004 242.386C218.17 242.553 218.395 242.647 218.63 242.65H262.09C262.326 242.65 262.552 242.556 262.719 242.389C262.886 242.222 262.98 241.996 262.98 241.76C262.98 241.524 262.886 241.298 262.719 241.131C262.552 240.964 262.326 240.87 262.09 240.87Z" fill="#161A1D"/>
<path opacity="0.5" d="M262.09 240.87H219.6C220.14 234.73 220.677 228.59 221.21 222.45C221.31 221.31 219.53 221.31 219.43 222.45L217.74 241.76C217.743 241.995 217.837 242.22 218.004 242.386C218.17 242.553 218.395 242.647 218.63 242.65H262.09C262.326 242.65 262.552 242.556 262.719 242.389C262.886 242.222 262.98 241.996 262.98 241.76C262.98 241.524 262.886 241.298 262.719 241.131C262.552 240.964 262.326 240.87 262.09 240.87Z" fill="white"/>
<path d="M308.35 214.69H232.52L234.21 195.34H310.04L308.35 214.69Z" fill="#161A1D"/>
<path opacity="0.9" d="M308.35 214.69H232.52L234.21 195.34H310.04L308.35 214.69Z" fill="white"/>
<path d="M309.69 216.16H230.92L232.92 193.87H311.69L309.69 216.16ZM234.12 213.22H307L308.44 196.82H235.56L234.12 213.22Z" fill="#263238"/>
<path d="M249.65 207.61L249.51 209.15H243.12L243.84 200.89H250.08L249.95 202.42H245.61L245.45 204.22H249.28L249.15 205.7H245.32L245.15 207.61H249.65Z" fill="#161A1D"/>
<path d="M256.15 209.15L254.41 206.28L252.2 209.15H250L253.42 204.95L250.87 200.89H253.04L254.71 203.57L256.8 200.89H258.87L255.64 204.89L258.35 209.16L256.15 209.15Z" fill="#161A1D"/>
<path d="M261.31 202.45H258.67L258.81 200.89H266L265.87 202.45H263.23L262.64 209.15H260.73L261.31 202.45Z" fill="#161A1D"/>
<path d="M271.57 209.15L270.18 206.85H268.42L268.22 209.15H266.31L267.03 200.89H270.6C271.245 200.873 271.887 200.996 272.48 201.25C272.957 201.458 273.358 201.807 273.63 202.25C273.889 202.741 273.993 203.299 273.93 203.85C273.887 204.42 273.686 204.967 273.35 205.43C272.999 205.879 272.532 206.225 272 206.43L273.62 209.09L271.57 209.15ZM271.64 202.82C271.273 202.545 270.818 202.413 270.36 202.45H268.8L268.55 205.32H270.11C270.586 205.35 271.057 205.22 271.45 204.95C271.609 204.821 271.739 204.66 271.832 204.477C271.925 204.295 271.979 204.095 271.99 203.89C272.021 203.697 272.006 203.499 271.945 203.313C271.884 203.127 271.779 202.958 271.64 202.82Z" fill="#161A1D"/>
<path d="M280.57 207.38H276.74L275.85 209.15H273.85L278.25 200.89H280.14L283.14 209.15H281.14L280.57 207.38ZM280.09 205.92L279.09 202.76L277.51 205.92H280.09Z" fill="#161A1D"/>
<path d="M285.6 208.74C284.969 208.392 284.456 207.863 284.13 207.22C283.786 206.541 283.65 205.776 283.74 205.02C283.801 204.232 284.066 203.474 284.51 202.82C284.953 202.175 285.551 201.652 286.25 201.3C286.974 200.929 287.777 200.74 288.59 200.75C289.246 200.736 289.897 200.863 290.5 201.12C291.037 201.365 291.504 201.74 291.86 202.21L290.53 203.34C290.303 203.024 290.002 202.767 289.654 202.593C289.305 202.419 288.92 202.332 288.53 202.34C288.047 202.334 287.569 202.447 287.14 202.67C286.728 202.887 286.382 203.212 286.14 203.61C285.874 204.021 285.715 204.492 285.68 204.98C285.627 205.448 285.703 205.922 285.9 206.35C286.08 206.741 286.377 207.066 286.75 207.28C287.157 207.515 287.621 207.633 288.09 207.62C288.501 207.618 288.906 207.527 289.279 207.354C289.651 207.182 289.983 206.932 290.25 206.62L291.38 207.75C290.949 208.229 290.416 208.605 289.82 208.85C289.186 209.11 288.506 209.239 287.82 209.23C287.05 209.258 286.286 209.09 285.6 208.74Z" fill="#161A1D"/>
<path d="M294.75 202.45H292.11L292.25 200.89H299.44L299.31 202.45H296.66L296.08 209.15H294.17L294.75 202.45Z" fill="#161A1D"/>
<path d="M362.39 290.33H156.76V405.3H362.39V290.33Z" fill="#161A1D"/>
<path d="M141.58 405.3H160.76V290.33H141.58V405.3Z" fill="#161A1D"/>
<path opacity="0.3" d="M141.58 405.3H160.76V290.33H141.58V405.3Z" fill="white"/>
<path d="M348.11 290.33H137.55V300.5H348.11V290.33Z" fill="#161A1D"/>
<path opacity="0.6" d="M348.11 290.33H137.55V300.5H348.11V290.33Z" fill="white"/>
<path d="M141.58 290.33H133.53V405.3H141.58V290.33Z" fill="#161A1D"/>
<path opacity="0.5" d="M141.58 290.33H133.53V405.3H141.58V290.33Z" fill="white"/>
<path d="M353.73 405.3H372.91V290.33H353.73V405.3Z" fill="#161A1D"/>
<path opacity="0.3" d="M353.73 405.3H372.91V290.33H353.73V405.3Z" fill="white"/>
<path d="M360.35 292.52H377.74V283.69H360.35V292.52Z" fill="#161A1D"/>
<path opacity="0.3" d="M360.35 292.52H377.74V283.69H360.35V292.52Z" fill="white"/>
<path d="M340.19 305.99H253.32V405.3H340.19V305.99Z" fill="#161A1D"/>
<path opacity="0.5" d="M340.19 305.99H253.32V405.3H340.19V305.99Z" fill="white"/>
<path d="M345.68 305.99H340.19V405.3H345.68V305.99Z" fill="#161A1D"/>
<path opacity="0.2" d="M345.68 305.99H340.19V405.3H345.68V305.99Z" fill="white"/>
<path d="M334.7 338.61H258.81V361.58H334.7V338.61Z" fill="#161A1D"/>
<path d="M334.7 311.4H258.81V334.37H334.7V311.4Z" fill="#161A1D"/>
<path d="M334.7 365.82H258.81V388.79H334.7V365.82Z" fill="#161A1D"/>
<g opacity="0.7">
<path d="M334.7 338.61H258.81V361.58H334.7V338.61Z" fill="white"/>
<path d="M334.7 311.4H258.81V334.37H334.7V311.4Z" fill="white"/>
<path d="M334.7 365.82H258.81V388.79H334.7V365.82Z" fill="white"/>
</g>
<path d="M353.73 290.33H345.68V405.3H353.73V290.33Z" fill="#161A1D"/>
<path opacity="0.1" d="M362.39 290.33H156.76V405.3H362.39V290.33Z" fill="white"/>
<path opacity="0.5" d="M353.73 290.33H345.68V405.3H353.73V290.33Z" fill="white"/>
<path d="M360.34 283.7H126.91V292.53H360.34V283.7Z" fill="#161A1D"/>
<path opacity="0.6" d="M360.34 283.7H126.91V292.53H360.34V283.7Z" fill="white"/>
<path d="M297 320.39H294.37C293.707 320.39 293.071 320.653 292.602 321.122C292.133 321.591 291.87 322.227 291.87 322.89C291.87 323.553 292.133 324.189 292.602 324.658C293.071 325.126 293.707 325.39 294.37 325.39H297C297.663 325.39 298.299 325.126 298.768 324.658C299.236 324.189 299.5 323.553 299.5 322.89C299.5 322.227 299.236 321.591 298.768 321.122C298.299 320.653 297.663 320.39 297 320.39Z" fill="#161A1D"/>
<path d="M297 347.6H294.37C293.707 347.6 293.071 347.863 292.602 348.332C292.133 348.801 291.87 349.437 291.87 350.1C291.87 350.763 292.133 351.399 292.602 351.868C293.071 352.336 293.707 352.6 294.37 352.6H297C297.663 352.6 298.299 352.336 298.768 351.868C299.236 351.399 299.5 350.763 299.5 350.1C299.5 349.437 299.236 348.801 298.768 348.332C298.299 347.863 297.663 347.6 297 347.6Z" fill="#161A1D"/>
<path d="M297 374.81H294.37C293.707 374.81 293.071 375.073 292.602 375.542C292.133 376.011 291.87 376.647 291.87 377.31C291.87 377.973 292.133 378.609 292.602 379.078C293.071 379.547 293.707 379.81 294.37 379.81H297C297.663 379.81 298.299 379.547 298.768 379.078C299.236 378.609 299.5 377.973 299.5 377.31C299.5 376.647 299.236 376.011 298.768 375.542C298.299 375.073 297.663 374.81 297 374.81Z" fill="#161A1D"/>
<path opacity="0.3" d="M296.84 322.89C296.84 323.384 296.693 323.868 296.419 324.279C296.144 324.69 295.753 325.01 295.297 325.2C294.84 325.389 294.337 325.438 293.852 325.342C293.367 325.245 292.922 325.007 292.572 324.658C292.222 324.308 291.984 323.863 291.888 323.378C291.791 322.893 291.841 322.39 292.03 321.933C292.219 321.476 292.54 321.086 292.951 320.811C293.362 320.537 293.845 320.39 294.34 320.39C295.003 320.39 295.639 320.653 296.108 321.122C296.576 321.591 296.84 322.227 296.84 322.89Z" fill="#FAFAFA"/>
<path opacity="0.3" d="M296.84 350.1C296.84 350.594 296.693 351.078 296.419 351.489C296.144 351.9 295.753 352.22 295.297 352.41C294.84 352.599 294.337 352.648 293.852 352.552C293.367 352.455 292.922 352.217 292.572 351.868C292.222 351.518 291.984 351.073 291.888 350.588C291.791 350.103 291.841 349.6 292.03 349.143C292.219 348.686 292.54 348.296 292.951 348.021C293.362 347.746 293.845 347.6 294.34 347.6C295.003 347.6 295.639 347.863 296.108 348.332C296.576 348.801 296.84 349.437 296.84 350.1Z" fill="#FAFAFA"/>
<path opacity="0.3" d="M296.84 377.31C296.84 377.805 296.693 378.288 296.419 378.699C296.144 379.11 295.753 379.431 295.297 379.62C294.84 379.809 294.337 379.858 293.852 379.762C293.367 379.666 292.922 379.427 292.572 379.078C292.222 378.728 291.984 378.283 291.888 377.798C291.791 377.313 291.841 376.81 292.03 376.353C292.219 375.897 292.54 375.506 292.951 375.231C293.362 374.957 293.845 374.81 294.34 374.81C295.003 374.81 295.639 375.073 296.108 375.542C296.576 376.011 296.84 376.647 296.84 377.31Z" fill="#FAFAFA"/>
<path d="M209.34 183.11C207.91 185.11 211.06 191.56 211.06 191.56L196.87 193.27L199.65 177.8C199.65 177.8 211 180.73 209.34 183.11Z" fill="#CE7A63"/>
<path opacity="0.2" d="M209.12 186C208.832 185.039 208.91 184.006 209.34 183.1C210.34 181.62 206.34 179.93 203.21 178.86C204 180.38 206.09 184.18 209.12 186Z" fill="black"/>
<path d="M243.53 394.49L245.04 408.92L238.38 410.17L234.38 396.24L243.53 394.49Z" fill="#CE7A63"/>
<path d="M244.9 406.45L237.07 408C236.926 408.029 236.796 408.107 236.702 408.219C236.607 408.332 236.554 408.473 236.55 408.62L236.41 415.27C236.402 415.547 236.501 415.817 236.688 416.022C236.874 416.227 237.133 416.352 237.41 416.37C237.483 416.38 237.557 416.38 237.63 416.37C240.45 415.76 242.93 415.1 246.44 414.37C250.59 413.54 249.63 414.25 254.52 413.37C257.47 412.82 257.34 409.37 256.06 409.46C250.22 409.89 249.28 408.28 246.67 406.68C246.125 406.4 245.499 406.319 244.9 406.45Z" fill="#263238"/>
<path opacity="0.2" d="M237.02 405.44L244.57 404.45L243.53 394.49L234.38 396.24L237.02 405.44Z" fill="black"/>
<path d="M185.93 391.56L181.39 409.46L175 408.56L176.7 391.05L185.93 391.56Z" fill="#CE7A63"/>
<path d="M182.24 407.21L174.24 406.65C174.094 406.641 173.95 406.682 173.83 406.766C173.711 406.849 173.622 406.97 173.58 407.11L171.68 413.48C171.599 413.752 171.627 414.045 171.76 414.296C171.893 414.546 172.119 414.735 172.39 414.82H172.62C175.49 414.97 178.06 415 181.62 415.25C185.84 415.55 184.73 415.98 189.69 416.4C192.69 416.65 193.46 413.29 192.2 413.04C186.46 411.9 185.98 410.1 183.89 407.87C183.435 407.463 182.85 407.229 182.24 407.21Z" fill="#263238"/>
<path opacity="0.2" d="M175.39 404.49L182.39 405.56L185.73 392.37C182.67 392.04 177.65 391.54 176.67 391.44L175.39 404.49Z" fill="black"/>
<path d="M192.84 254.53C192.84 254.53 190.64 260.93 190.32 276.53C190.12 285.83 189.21 300.53 188.51 310.92C188.31 313.92 188.12 316.6 187.97 318.63C187.783 321.209 187.182 323.742 186.19 326.13C185.51 327.79 184.66 330.07 183.78 332.9C182.024 338.649 180.759 344.537 180 350.5C177.67 367.94 175 401.74 175 401.74L183.63 402.86L204.89 324.09L227.54 254.47L192.84 254.53Z" fill="#263238"/>
<path opacity="0.2" d="M215.39 292.09L214.48 285.23L207.06 279L204.57 277.77C208.306 288.568 209.78 300.018 208.9 311.41L215.39 292.09Z" fill="black"/>
<path d="M234.27 254.85L244.66 401.15L235.86 402.65C235.86 402.65 224.1 362.16 222.11 339.78C221.874 337.408 221.787 335.023 221.85 332.64C221.94 329.595 221.538 326.556 220.66 323.64L219.42 319.47L212.49 296C211.084 291.092 208.756 286.497 205.63 282.46C202.02 277.91 197.56 269.09 199.41 254.46L232 252.17L234.27 254.85Z" fill="#263238"/>
<path d="M201.73 245.61C201.73 245.61 206.78 244.61 208.48 244.74C210.331 245.172 212.141 245.765 213.89 246.51C214.276 246.635 214.623 246.859 214.895 247.16C215.168 247.461 215.356 247.829 215.442 248.225C215.528 248.622 215.509 249.035 215.386 249.422C215.262 249.808 215.04 250.156 214.74 250.43C214.74 250.43 211.97 253.99 210.58 254.29C207.81 254.87 199.87 250.62 199.87 250.62L201.73 245.61Z" fill="#CE7A63"/>
<path d="M201.48 243.19L198.68 252.24L201.37 252.47L203.84 244.56L201.48 243.19Z" fill="#263238"/>
<path opacity="0.2" d="M201.48 243.19L198.68 252.24L201.37 252.47L203.84 244.56L201.48 243.19Z" fill="white"/>
<path d="M184.86 200.07C184.552 199.667 184.144 199.351 183.677 199.153C183.21 198.955 182.699 198.881 182.195 198.94C181.691 198.998 181.211 199.186 180.802 199.486C180.392 199.786 180.068 200.187 179.86 200.65C176.71 207.39 168.76 225.26 168.73 233.94C168.73 244.75 200.48 251.15 200.48 251.15L202.4 244.94L180.56 231.5L186.85 216.67C186.85 216.67 188.41 204.94 184.86 200.07Z" fill="#161A1D"/>
<path opacity="0.1" d="M184.86 200.07C184.552 199.667 184.144 199.351 183.677 199.153C183.21 198.955 182.699 198.881 182.195 198.94C181.691 198.998 181.211 199.186 180.802 199.486C180.392 199.786 180.068 200.187 179.86 200.65C176.71 207.39 168.76 225.26 168.73 233.94C168.73 244.75 200.48 251.15 200.48 251.15L202.4 244.94L180.56 231.5L186.85 216.67C186.85 216.67 188.41 204.94 184.86 200.07Z" fill="black"/>
<g opacity="0.4">
<path d="M185.51 201.15L182.08 201.62L180.08 203.03L182.43 227.03L186.82 216.69C186.82 216.69 188.21 206.47 185.51 201.15Z" fill="black"/>
<path d="M192.13 238.61L183.05 233L184.37 246.48C186.27 247.19 188.17 247.82 189.97 248.38L192.13 238.61Z" fill="black"/>
</g>
<path d="M233.78 254.77C233.78 254.77 218.13 259.89 192.5 255.77L180.21 204C179.798 202.094 180.016 200.107 180.831 198.336C181.646 196.565 183.015 195.106 184.73 194.18C190 191.26 200.44 188.52 221.03 189.65C223.504 189.788 225.867 190.723 227.767 192.314C229.666 193.906 231 196.068 231.57 198.48L233.78 254.77Z" fill="#161A1D"/>
<path d="M192.68 191.79L194.24 188.12C194.24 188.12 200.41 185 210.87 186.47L213.36 189.35C213.36 189.35 201.65 189.63 192.68 191.79Z" fill="#263238"/>
<path d="M216.76 164.9C216.9 165.48 216.7 166.03 216.31 166.11C215.92 166.19 215.46 165.78 215.31 165.21C215.16 164.64 215.31 164.08 215.75 164C216.19 163.92 216.61 164.32 216.76 164.9Z" fill="#263238"/>
<path d="M216.23 166.66L220.23 170.57C219.755 171.026 219.182 171.366 218.554 171.564C217.926 171.762 217.26 171.812 216.61 171.71L216.23 166.66Z" fill="#BA4D3C"/>
<path d="M193.43 167.51C194.96 175.34 195.43 178.7 200.04 182.27C206.82 185.66 216.51 184.17 217.4 176.05C218.21 168.75 215.58 157.19 207.24 154.93C204.425 154.139 201.411 154.491 198.855 155.911C196.299 157.33 194.406 159.702 193.59 162.51C193.137 164.14 193.083 165.854 193.43 167.51Z" fill="#CE7A63"/>
<path d="M213.81 163.06C213.863 163.061 213.916 163.048 213.963 163.024C214.01 163 214.05 162.964 214.08 162.92C214.292 162.589 214.579 162.313 214.918 162.115C215.257 161.917 215.638 161.802 216.03 161.78C216.071 161.783 216.112 161.777 216.151 161.763C216.19 161.749 216.225 161.728 216.255 161.699C216.285 161.671 216.309 161.637 216.325 161.6C216.342 161.562 216.35 161.521 216.35 161.48C216.35 161.395 216.316 161.314 216.256 161.254C216.196 161.194 216.115 161.16 216.03 161.16C215.531 161.168 215.042 161.3 214.608 161.545C214.173 161.789 213.806 162.138 213.54 162.56C213.497 162.631 213.482 162.716 213.499 162.798C213.515 162.879 213.562 162.951 213.63 163C213.685 163.033 213.746 163.054 213.81 163.06Z" fill="#263238"/>
<path opacity="0.4" d="M233.27 229.25L232.22 210.25L225.44 201.25L221.73 197.81L218.87 199.81C218.87 199.81 219.26 210.33 233.27 229.25Z" fill="black"/>
<path d="M235.47 202.29C239.23 209.19 240.68 213.29 241.97 214.98C242.052 215.093 242.163 215.182 242.292 215.236C242.421 215.291 242.562 215.309 242.7 215.29L264.65 212.1C264.833 212.072 265.02 212.11 265.177 212.207C265.335 212.304 265.453 212.454 265.51 212.63L267.28 218.06C267.314 218.158 267.328 218.263 267.322 218.367C267.315 218.471 267.288 218.572 267.241 218.666C267.194 218.759 267.13 218.842 267.05 218.909C266.971 218.977 266.879 219.028 266.78 219.06L246.2 226.06C244.374 226.774 242.387 226.972 240.456 226.634C238.525 226.295 236.724 225.432 235.25 224.14C229.403 219.01 224.643 212.76 221.25 205.76C219.67 202.64 216 196.86 222.03 191.76C227 187.53 233 197.71 235.47 202.29Z" fill="#161A1D"/>
<path opacity="0.1" d="M235.47 202.29C239.23 209.19 240.68 213.29 241.97 214.98C242.052 215.093 242.163 215.182 242.292 215.236C242.421 215.291 242.562 215.309 242.7 215.29L264.65 212.1C264.833 212.072 265.02 212.11 265.177 212.207C265.335 212.304 265.453 212.454 265.51 212.63L267.28 218.06C267.314 218.158 267.328 218.263 267.322 218.367C267.315 218.471 267.288 218.572 267.241 218.666C267.194 218.759 267.13 218.842 267.05 218.909C266.971 218.977 266.879 219.028 266.78 219.06L246.2 226.06C244.374 226.774 242.387 226.972 240.456 226.634C238.525 226.295 236.724 225.432 235.25 224.14C229.403 219.01 224.643 212.76 221.25 205.76C219.67 202.64 216 196.86 222.03 191.76C227 187.53 233 197.71 235.47 202.29Z" fill="white"/>
<path d="M265.29 212.62L269.81 207.3C270.3 206.72 270.95 206.299 271.68 206.09L282.33 202.99C282.504 202.942 282.69 202.956 282.856 203.029C283.021 203.102 283.157 203.229 283.24 203.39C283.29 203.486 283.319 203.592 283.325 203.7C283.332 203.808 283.316 203.917 283.278 204.018C283.24 204.12 283.182 204.212 283.107 204.29C283.031 204.368 282.94 204.429 282.84 204.47L278.44 206.27C278.287 206.332 278.158 206.44 278.071 206.581C277.985 206.721 277.946 206.886 277.96 207.05L278.18 209.71C278.244 210.506 278.062 211.303 277.657 211.991C277.253 212.68 276.646 213.228 275.92 213.56L272.72 215.02L272.35 215.16L266.85 217.01C266.748 217.045 266.639 217.058 266.531 217.048C266.424 217.038 266.319 217.006 266.225 216.953C266.131 216.9 266.049 216.828 265.984 216.741C265.919 216.655 265.874 216.555 265.85 216.45L265.12 213.3C265.094 213.181 265.096 213.058 265.125 212.94C265.155 212.822 265.211 212.713 265.29 212.62Z" fill="#CE7A63"/>
<path d="M264 212.07L266.71 218.91C266.75 219.01 266.81 219.101 266.887 219.176C266.963 219.252 267.054 219.312 267.154 219.351C267.255 219.39 267.362 219.409 267.469 219.405C267.577 219.401 267.683 219.376 267.78 219.33L268.68 218.89C268.859 218.803 268.998 218.651 269.068 218.465C269.139 218.28 269.136 218.074 269.06 217.89L266.48 211.33C266.413 211.166 266.293 211.028 266.139 210.939C265.985 210.851 265.806 210.816 265.63 210.84L264.63 211C264.511 211.014 264.396 211.056 264.296 211.121C264.195 211.187 264.111 211.275 264.05 211.379C263.989 211.482 263.953 211.599 263.944 211.719C263.935 211.839 263.954 211.959 264 212.07Z" fill="#263238"/>
<path d="M234.14 400.57L235.5 404.18L245.87 402.58L245.58 398.74L234.14 400.57Z" fill="#161A1D"/>
<path opacity="0.2" d="M234.14 400.57L235.5 404.18L245.87 402.58L245.58 398.74L234.14 400.57Z" fill="black"/>
<path d="M174.01 399.11L173.85 402.91L184.25 404.3L185.06 400.53L174.01 399.11Z" fill="#161A1D"/>
<path opacity="0.2" d="M174.01 399.11L173.85 402.91L184.25 404.3L185.06 400.53L174.01 399.11Z" fill="black"/>
<path d="M198.79 182.51C198.79 182.51 199.95 180.86 203.45 182.77C203.45 182.77 208.45 177.2 208.57 171.99C208.57 171.99 212.24 171.32 211.94 168.94C211.64 166.56 209.88 163.47 210.25 161.32C210.62 159.17 214.19 153.53 211.16 151.02C208.13 148.51 207.77 151.5 206.05 151.82C204.33 152.14 193.97 152.52 192.64 159.82C191.139 161.516 190.255 163.669 190.13 165.93C190.004 168.191 190.646 170.429 191.95 172.28C196.48 179.34 198.79 182.51 198.79 182.51Z" fill="#263238"/>
<path d="M208.73 167.1L217.81 162.1C217.81 162.1 220.09 168.04 218.99 168.34C217.89 168.64 216.46 163.97 216.46 163.97L210 167L208.73 167.1Z" fill="#161A1D"/>
<path opacity="0.7" d="M216.69 164.09L217.38 163.68C217.38 163.68 219.25 167.88 218.74 168.25C218.23 168.62 216.69 164.09 216.69 164.09Z" fill="white"/>
<path d="M210 167.28C210.679 167.731 211.262 168.313 211.716 168.991C212.169 169.669 212.483 170.43 212.64 171.23C213.04 173.35 211.04 174.23 209.09 173.47C207.33 172.79 205.01 170.86 205.5 168.8C205.621 168.345 205.852 167.928 206.174 167.585C206.495 167.241 206.897 166.983 207.342 166.832C207.788 166.682 208.264 166.644 208.727 166.722C209.191 166.8 209.628 166.992 210 167.28Z" fill="#CE7A63"/>
</g>
<defs>
<filter id="filter0_d_101_545" x="-4" y="0" width="508" height="508" filterUnits="userSpaceOnUse" color-interpolation-filters="sRGB">
<feFlood flood-opacity="0" result="BackgroundImageFix"/>
<feColorMatrix in="SourceAlpha" type="matrix" values="0 0 0 0 0 0 0 0 0 0 0 0 0 0 0 0 0 0 127 0" result="hardAlpha"/>
<feOffset dy="4"/>
<feGaussianBlur stdDeviation="2"/>
<feComposite in2="hardAlpha" operator="out"/>
<feColorMatrix type="matrix" values="0 0 0 0 0 0 0 0 0 0 0 0 0 0 0 0 0 0 0.25 0"/>
<feBlend mode="normal" in2="BackgroundImageFix" result="effect1_dropShadow_101_545"/>
<feBlend mode="normal" in="SourceGraphic" in2="effect1_dropShadow_101_545" result="shape"/>
</filter>
</defs>
</svg>
